<?xml version="1.0" encoding="UTF-8" standalone="no"?>
<!-- Created with Inkscape (http://www.inkscape.org/) -->

<svg
   xmlns:dc="http://purl.org/dc/elements/1.1/"
   xmlns:cc="http://creativecommons.org/ns#"
   xmlns:rdf="http://www.w3.org/1999/02/22-rdf-syntax-ns#"
   xmlns:svg="http://www.w3.org/2000/svg"
   xmlns="http://www.w3.org/2000/svg"
   xmlns:sodipodi="http://sodipodi.sourceforge.net/DTD/sodipodi-0.dtd"
   xmlns:inkscape="http://www.inkscape.org/namespaces/inkscape"
   width="600mm"
   height="300mm"
   viewBox="0 0 600 300"
   version="1.1"
   id="svg8"
   inkscape:version="0.92.4 (5da689c313, 2019-01-14)"
   sodipodi:docname="loginSmBg.svg">
  <defs
     id="defs2">
    <inkscape:path-effect
       is_visible="true"
       id="path-effect834"
       effect="spiro" />
    <inkscape:path-effect
       effect="spiro"
       id="path-effect830"
       is_visible="true" />
    <filter
       inkscape:label="Clouds"
       inkscape:menu="Overlays"
       inkscape:menu-tooltip="Airy, fluffy, sparse white clouds"
       style="color-interpolation-filters:sRGB;"
       id="filter915">
      <feTurbulence
         numOctaves="1"
         baseFrequency="0.0080000000000000002 0.017000000000000001"
         type="fractalNoise"
         id="feTurbulence905" />
      <feColorMatrix
         result="result0"
         values="1 0 0 0 0 0 1 0 0 0 0 0 1 0 0 0 0 0 5 -2.7"
         id="feColorMatrix907" />
      <feFlood
         flood-opacity="1"
         flood-color="rgb(255,255,255)"
         id="feFlood909" />
      <feComposite
         operator="in"
         in2="result0"
         id="feComposite911" />
      <feComposite
         operator="atop"
         in2="SourceGraphic"
         id="feComposite913" />
    </filter>
    <filter
       inkscape:label="Clouds"
       inkscape:menu="Overlays"
       inkscape:menu-tooltip="Airy, fluffy, sparse white clouds"
       style="color-interpolation-filters:sRGB;"
       id="filter927">
      <feTurbulence
         numOctaves="1.4199999999999999"
         baseFrequency="0.0080000000000000002 0.017000000000000001"
         type="fractalNoise"
         id="feTurbulence917" />
      <feColorMatrix
         result="result0"
         values="1 0 0 0 0 0 1 0 0 0 0 0 1 0 0 0 0 0 5 -2.7"
         id="feColorMatrix919" />
      <feFlood
         flood-opacity="1"
         flood-color="rgb(255,255,255)"
         id="feFlood921" />
      <feComposite
         operator="in"
         in2="result0"
         id="feComposite923" />
      <feComposite
         operator="atop"
         in2="SourceGraphic"
         id="feComposite925" />
    </filter>
  </defs>
  <sodipodi:namedview
     id="base"
     pagecolor="#ffffff"
     bordercolor="#666666"
     borderopacity="1.0"
     inkscape:pageopacity="0.0"
     inkscape:pageshadow="2"
     inkscape:zoom="0.31693306"
     inkscape:cx="744.94221"
     inkscape:cy="942.34706"
     inkscape:document-units="mm"
     inkscape:current-layer="layer1"
     showgrid="false"
     inkscape:pagecheckerboard="true"
     inkscape:window-width="1366"
     inkscape:window-height="705"
     inkscape:window-x="-8"
     inkscape:window-y="-8"
     inkscape:window-maximized="1" />
  <metadata
     id="metadata5">
    <rdf:RDF>
      <cc:Work
         rdf:about="">
        <dc:format>image/svg+xml</dc:format>
        <dc:type
           rdf:resource="http://purl.org/dc/dcmitype/StillImage" />
        <dc:title />
      </cc:Work>
    </rdf:RDF>
  </metadata>
  <g
     inkscape:label="Layer 1"
     inkscape:groupmode="layer"
     id="layer1"
     transform="translate(0,3)">
    <path
       style="fill:#0066ff;stroke:#0066ff;stroke-width:0.26458332px;stroke-linecap:butt;stroke-linejoin:miter;stroke-opacity:1"
       d="m 21.51546,34.677022 c 7.535516,9.35262 12.569297,20.45367 19.420478,30.318598 3.425591,4.932464 7.335762,9.581313 12.038089,13.31655 4.702327,3.735237 10.239388,6.535807 16.167946,7.492924 9.234148,1.490777 18.588925,-1.536751 27.156745,-5.289665 8.567822,-3.752913 16.917532,-8.313606 26.087782,-10.157108 9.81,-1.972114 20.34295,-0.607999 29.09235,4.247239 8.74941,4.855239 15.57026,13.255396 18.04912,22.949761 1.68244,6.579729 1.38743,13.551459 -0.026,20.194159 -1.41349,6.6427 -3.91395,13.00306 -6.62755,19.2288 -5.42718,12.45147 -11.86913,24.96871 -12.3843,38.54178 -0.49126,12.94325 4.47373,25.38575 9.06951,37.49557 4.59577,12.10982 8.97113,24.91193 7.24869,37.74946 -1.48481,11.06641 -7.48248,21.1779 -15.30036,29.14978 -7.81789,7.97188 -17.3963,13.99301 -27.21279,19.31342 -9.81648,5.32041 -19.97424,10.02215 -29.53967,15.78172 -9.56543,5.75958 -18.622646,12.68192 -25.288152,21.63966 -7.945219,10.67755 -12.073874,23.6226 -17.57709,35.74081 -2.751608,6.05911 -5.891593,11.98541 -9.976964,17.2384 -4.085372,5.25298 -9.163455,9.83159 -15.163025,12.7107 -6.940221,3.33052 -14.911187,4.26104 -22.5389283,3.22346 -7.6277412,-1.03758 -14.9229457,-3.98104 -21.4854617,-8.00502 -13.125032,-8.04795 -23.17308,-20.1452 -33.024774,-31.97652 -27.191629,-32.65559 -54.931415,-65.15657 -76.692165,-101.65646 -21.76076,-36.49988 -37.45689,-77.62765 -38.17399,-120.11598 -0.35855,-21.24417 3.0791,-42.63646 10.9599,-62.368056 7.88081,-19.731599 20.26939,-37.764105 36.47978,-51.499692 C -101.51503,16.205724 -81.446263,6.8758463 -60.362425,4.2462327 -39.278587,1.616619 -17.253891,5.8417937 0.90656671,16.870885 8.7052903,21.607155 15.790861,27.572002 21.51546,34.677022 Z"
       id="path828"
       inkscape:connector-curvature="0"
       inkscape:path-effect="#path-effect830"
       inkscape:original-d="M 21.51546,34.677022 C 60.926323,9.6549987 113.55294,22.2525 69.141973,85.805094 -58.642845,268.66661 117.28735,75.930459 122.3865,70.358321 c 96.70964,-105.680248 31.42792,18.131068 47.14147,27.197 15.71356,9.065929 -12.69167,51.976229 -19.0379,77.964739 -6.34623,25.98851 10.87907,50.16309 16.3182,75.24503 5.43914,25.08195 -84.598625,38.874 -97.340972,85.88458 -15.267306,56.32596 -32.44239,51.48676 -42.717079,65.68991 C 16.475533,416.54271 -36.397991,380.38849 -50.298945,365.5815 -64.199898,350.77449 0.9068313,110.54918 0.90656671,16.870885 0.90630212,-76.807409 -6.0780003,52.196157 21.51546,34.677022 Z"
       transform="matrix(0.84227738,0,0,0.542534,-29.010902,3.9506622)"
       sodipodi:nodetypes="sssssssssss" />
    <path
       sodipodi:nodetypes="sssssssssss"
       transform="matrix(-0.68838062,0,0,-0.42161449,628.49587,289.4595)"
       inkscape:original-d="m 7.6393471,13.134527 c 1.7471271,-0.402029 65.1884419,24.28494 101.1486629,37.279325 35.96021,12.994389 9.06592,13.296048 13.59849,19.944469 4.53257,6.648421 31.42792,18.131068 47.14147,27.197 15.71356,9.065929 -12.69167,51.976229 -19.0379,77.964739 -6.34623,25.98851 10.87907,50.16309 16.3182,75.24503 5.43914,25.08195 -62.25065,32.63615 -93.376368,48.95459 C 42.306181,316.03815 52.883323,328.12519 42.608634,342.32834 32.333948,356.53147 -20.539576,320.37725 -34.44053,305.57026 -48.341483,290.76325 0.9068313,110.54918 0.90656671,16.870885 0.90630212,-76.807409 -21.850233,19.920326 7.6393471,13.134527 Z"
       inkscape:path-effect="#path-effect834"
       inkscape:connector-curvature="0"
       id="path832"
       d="M 7.6393471,13.134527 C 25.356782,4.4189842 46.817389,4.547401 65.135255,11.917883 c 18.317865,7.370481 33.499838,21.561198 43.652755,38.495969 4.15488,6.930224 7.6439,14.482426 13.59849,19.944469 6.78523,6.223973 15.93949,8.988472 24.58906,12.144753 4.32478,1.578141 8.62104,3.308346 12.55634,5.697434 3.93529,2.389087 7.51884,5.474396 9.99607,9.354813 3.74667,5.868909 4.70836,13.211899 3.75102,20.108649 -0.95734,6.89674 -3.70127,13.42387 -6.90832,19.60419 -3.20705,6.18033 -6.9007,12.10389 -9.95457,18.36133 -3.05386,6.25744 -5.48047,12.94197 -5.92603,19.89057 -0.41823,6.52235 0.92639,13.05399 3.00582,19.25011 2.07944,6.19612 4.88659,12.1175 7.50483,18.10588 2.61824,5.98839 5.06575,12.09942 6.37134,18.50343 1.30559,6.40401 1.4262,13.16019 -0.56379,19.38561 -2.77923,8.69445 -9.50857,15.73154 -17.33853,20.42295 -7.82996,4.69142 -16.73805,7.26179 -25.64759,9.24614 -8.90955,1.98434 -17.95614,3.43788 -26.677842,6.13038 -8.721701,2.6925 -17.227543,6.7314 -23.712406,13.15512 -6.27274,6.2136 -10.302153,14.27158 -14.555078,22.00906 -4.252924,7.73749 -9.041873,15.52649 -16.26819,20.5996 -6.557697,4.60371 -14.771669,6.60581 -22.772464,6.17589 -8.000796,-0.42993 -15.7814523,-3.20191 -22.6194275,-7.378 C -16.459208,332.77407 -26.106371,319.25719 -34.44053,305.57026 -62.48491,259.51385 -80.181794,205.78597 -76.388356,151.99666 -74.491638,125.102 -67.193102,98.483845 -54.126834,74.900107 -41.060565,51.316368 -22.152257,30.842668 0.90656671,16.870885 3.1024342,15.540367 5.3354968,14.267835 7.6393471,13.134527 Z"
       style="fill:#0066ff;stroke:#0066ff;stroke-width:0.26458332px;stroke-linecap:butt;stroke-linejoin:miter;stroke-opacity:1" />
  </g>
</svg>
