<?xml version="1.0" encoding="UTF-8" standalone="no"?>
<svg
   xmlns:dc="http://purl.org/dc/elements/1.1/"
   xmlns:cc="http://creativecommons.org/ns#"
   xmlns:rdf="http://www.w3.org/1999/02/22-rdf-syntax-ns#"
   xmlns:svg="http://www.w3.org/2000/svg"
   xmlns="http://www.w3.org/2000/svg"
   viewBox="0 0 666.66669 666.66669"
   height="666.66669"
   width="666.66669"
   xml:space="preserve"
   id="svg2"
   version="1.1"><metadata
     id="metadata8"><rdf:RDF><cc:Work
         rdf:about=""><dc:format>image/svg+xml</dc:format><dc:type
           rdf:resource="http://purl.org/dc/dcmitype/StillImage" /><dc:title></dc:title></cc:Work></rdf:RDF></metadata><defs
     id="defs6"><clipPath
       id="clipPath18"
       clipPathUnits="userSpaceOnUse"><path
         id="path16"
         d="M 0,500 H 500 V 0 H 0 Z" /></clipPath><clipPath
       id="clipPath30"
       clipPathUnits="userSpaceOnUse"><path
         id="path28"
         d="M 0,500 H 500 V 0 H 0 Z" /></clipPath><clipPath
       id="clipPath50"
       clipPathUnits="userSpaceOnUse"><path
         id="path48"
         d="M 0,500 H 500 V 0 H 0 Z" /></clipPath><clipPath
       id="clipPath62"
       clipPathUnits="userSpaceOnUse"><path
         id="path60"
         d="m 22.3848,275.381 h 42.8283 v -52.02 H 22.3848 Z" /></clipPath><clipPath
       id="clipPath90"
       clipPathUnits="userSpaceOnUse"><path
         id="path88"
         d="M 0,500 H 500 V 0 H 0 Z" /></clipPath><clipPath
       id="clipPath102"
       clipPathUnits="userSpaceOnUse"><path
         id="path100"
         d="M 326.411,199.696 H 431.328 V 134.571 H 326.411 Z" /></clipPath><clipPath
       id="clipPath122"
       clipPathUnits="userSpaceOnUse"><path
         id="path120"
         d="M 178.429,222.749 H 326.411 V 134.571 H 178.429 Z" /></clipPath><clipPath
       id="clipPath142"
       clipPathUnits="userSpaceOnUse"><path
         id="path140"
         d="M 73.6098,218.694 H 324.088 V 73.0526 H 73.6098 Z" /></clipPath><clipPath
       id="clipPath178"
       clipPathUnits="userSpaceOnUse"><path
         id="path176"
         d="m 300.088,149.843 h 6.509 v -3.776 h -6.509 z" /></clipPath><clipPath
       id="clipPath202"
       clipPathUnits="userSpaceOnUse"><path
         id="path200"
         d="m 286.217,157.855 h 6.509 v -3.776 h -6.509 z" /></clipPath><clipPath
       id="clipPath222"
       clipPathUnits="userSpaceOnUse"><path
         id="path220"
         d="m 272.342,165.865 h 6.509 v -3.775 h -6.509 z" /></clipPath><clipPath
       id="clipPath242"
       clipPathUnits="userSpaceOnUse"><path
         id="path240"
         d="m 258.469,173.873 h 6.509 v -3.776 h -6.509 z" /></clipPath><clipPath
       id="clipPath262"
       clipPathUnits="userSpaceOnUse"><path
         id="path260"
         d="m 244.596,181.883 h 6.509 v -3.776 h -6.509 z" /></clipPath><clipPath
       id="clipPath282"
       clipPathUnits="userSpaceOnUse"><path
         id="path280"
         d="m 230.72,189.894 h 6.509 v -3.776 h -6.509 z" /></clipPath><clipPath
       id="clipPath302"
       clipPathUnits="userSpaceOnUse"><path
         id="path300"
         d="m 216.848,197.903 h 6.509 v -3.776 h -6.509 z" /></clipPath><clipPath
       id="clipPath322"
       clipPathUnits="userSpaceOnUse"><path
         id="path320"
         d="m 202.972,205.913 h 6.509 v -3.776 h -6.509 z" /></clipPath><clipPath
       id="clipPath342"
       clipPathUnits="userSpaceOnUse"><path
         id="path340"
         d="m 189.101,213.924 h 6.509 v -3.775 h -6.509 z" /></clipPath><clipPath
       id="clipPath362"
       clipPathUnits="userSpaceOnUse"><path
         id="path360"
         d="m 175.226,221.933 h 6.509 v -3.776 h -6.509 z" /></clipPath><clipPath
       id="clipPath442"
       clipPathUnits="userSpaceOnUse"><path
         id="path440"
         d="m 137.492,195.747 h 132.672 v -76.85 H 137.492 Z" /></clipPath><clipPath
       id="clipPath498"
       clipPathUnits="userSpaceOnUse"><path
         id="path496"
         d="M 0,500 H 500 V 0 H 0 Z" /></clipPath><clipPath
       id="clipPath534"
       clipPathUnits="userSpaceOnUse"><path
         id="path532"
         d="m 104.191,398.142 h 65.568 V 209.35 h -65.568 z" /></clipPath><clipPath
       id="clipPath626"
       clipPathUnits="userSpaceOnUse"><path
         id="path624"
         d="M 0,500 H 500 V 0 H 0 Z" /></clipPath><clipPath
       id="clipPath654"
       clipPathUnits="userSpaceOnUse"><path
         id="path652"
         d="M 339.531,390.573 H 433.59 V 352.28 h -94.059 z" /></clipPath><clipPath
       id="clipPath678"
       clipPathUnits="userSpaceOnUse"><path
         id="path676"
         d="m 355.108,399.812 h 62.904 v -23.261 h -62.904 z" /></clipPath><clipPath
       id="clipPath698"
       clipPathUnits="userSpaceOnUse"><path
         id="path696"
         d="m 360.726,392.362 h 51.572 v -11.499 h -51.572 z" /></clipPath></defs><g
     transform="matrix(1.3333333,0,0,-1.3333333,0,666.66667)"
     id="g10"><g
       id="g12"><g
         clip-path="url(#clipPath18)"
         id="g14"><g
           transform="translate(88.6603,94.4716)"
           id="g20"><path
             id="path22"
             style="fill:#f0f0f0;fill-opacity:1;fill-rule:nonzero;stroke:none"
             d="m 0,0 c 89.577,-51.565 234.81,-51.566 324.385,-0.001 89.577,51.566 89.577,135.17 0,186.735 C 234.808,238.3 89.575,238.3 -0.001,186.735 -89.578,135.17 -89.578,51.565 0,0" /></g></g></g><g
       id="g24"><g
         clip-path="url(#clipPath30)"
         id="g26"><g
           transform="translate(74.2574,150.2695)"
           id="g32"><path
             id="path34"
             style="fill:#e1e1e1;fill-opacity:1;fill-rule:nonzero;stroke:none"
             d="m 0,0 139.003,-80.247 c 2.49,-1.437 6.526,-1.437 9.016,0 l 210.88,121.752 c 2.489,1.437 2.489,3.768 0,5.205 l -138.992,80.246 c -2.49,1.437 -6.526,1.437 -9.016,0 L 0,5.205 C -2.49,3.768 -2.49,1.437 0,0" /></g><g
           transform="translate(415.5651,270.5119)"
           id="g36"><path
             id="path38"
             style="fill:#e1e1e1;fill-opacity:1;fill-rule:nonzero;stroke:none"
             d="m 0,0 c -16.405,6.567 -42.56,6.568 -58.419,0 -15.859,-6.567 -15.86,-17.216 0,-23.784 15.859,-6.568 42.014,-6.567 58.419,0 C 16.405,-17.216 16.405,-6.568 0,0" /></g><g
           transform="translate(109.5291,200.672)"
           id="g40"><path
             id="path42"
             style="fill:#e1e1e1;fill-opacity:1;fill-rule:nonzero;stroke:none"
             d="m 0,0 c -13.135,-6.261 -34.431,-6.261 -47.566,0 -13.136,6.259 -13.136,16.41 0,22.671 13.135,6.26 34.431,6.26 47.566,0 C 13.135,16.41 13.135,6.259 0,0" /></g></g></g><g
       id="g44"><g
         clip-path="url(#clipPath50)"
         id="g46"><g
           transform="translate(65.213,241.0571)"
           id="g52"><path
             id="path54"
             style="fill:#00dfbf;fill-opacity:1;fill-rule:nonzero;stroke:none"
             d="m 0,0 c -0.511,6.351 -5.406,17.185 -12.66,24.901 -7.253,7.716 -18.855,11.434 -26.013,8.324 -6.666,-2.896 -5.2,-11.83 3.596,-17.12 8.796,-5.291 21.901,-11.772 26.386,-21.779 L 0,-17.696 Z" /></g><g
           id="g56"><g
             id="g58" /><g
             id="g70"><g
               style="opacity:0.10000598"
               id="g68"
               clip-path="url(#clipPath62)"><g
                 id="g66"
                 transform="translate(65.213,241.0571)"><path
                   id="path64"
                   style="fill:#000000;fill-opacity:1;fill-rule:nonzero;stroke:none"
                   d="m 0,0 c -0.511,6.351 -5.406,17.185 -12.66,24.901 -7.253,7.716 -18.855,11.434 -26.013,8.324 -6.666,-2.896 -5.2,-11.83 3.596,-17.12 8.796,-5.291 21.901,-11.772 26.386,-21.779 L 0,-17.696 Z" /></g></g></g></g><g
           transform="translate(66.1283,232.7391)"
           id="g72"><path
             id="path74"
             style="fill:#ffffff;fill-opacity:1;fill-rule:nonzero;stroke:none"
             d="m 0,0 c 0.046,0 0.093,0.007 0.138,0.022 0.231,0.077 0.356,0.326 0.28,0.556 -7.137,21.545 -27.384,35.984 -35.787,37.364 -0.235,0.041 -0.467,-0.122 -0.505,-0.363 -0.04,-0.24 0.123,-0.466 0.362,-0.505 C -27.287,35.723 -7.446,21.52 -0.418,0.302 -0.357,0.117 -0.185,0 0,0" /></g><g
           transform="translate(64.2632,214.838)"
           id="g76"><path
             id="path78"
             style="fill:#00dfbf;fill-opacity:1;fill-rule:nonzero;stroke:none"
             d="m 0,0 c -1.307,3.488 -6.141,9.028 -13.585,13.327 -8.235,4.756 -18.307,6.438 -20.92,10.445 -3.139,4.813 0.721,9.91 8.815,9.561 8.094,-0.35 23.064,-10.151 26.64,-26.432 z" /></g><g
           transform="translate(64.6358,221.4512)"
           id="g80"><path
             id="path82"
             style="fill:#ffffff;fill-opacity:1;fill-rule:nonzero;stroke:none"
             d="m 0,0 c 0.067,0 0.134,0.015 0.198,0.046 0.217,0.11 0.304,0.374 0.196,0.592 -6.968,13.87 -21.673,20.354 -29.264,21.999 -0.239,0.054 -0.471,-0.101 -0.522,-0.337 -0.052,-0.237 0.099,-0.472 0.337,-0.523 7.437,-1.611 21.843,-7.96 28.661,-21.535 C -0.316,0.089 -0.161,0 0,0" /></g></g></g><g
       id="g84"><g
         clip-path="url(#clipPath90)"
         id="g86"><g
           transform="translate(178.4287,220.0081)"
           id="g92"><path
             id="path94"
             style="fill:#00dfbf;fill-opacity:1;fill-rule:nonzero;stroke:none"
             d="m 0,0 v 2.741 l 103.896,57.244 c 1.362,0.786 3.569,0.786 4.93,0 l 144.072,-81.289 c 0,0 0.001,-2.21 0.001,-2.724 0.001,-0.516 -0.339,-1.031 -1.021,-1.425 L 147.982,-85.437 Z" /></g><g
           id="g96"><g
             id="g98" /><g
             id="g110"><g
               style="opacity:0.10000598"
               id="g108"
               clip-path="url(#clipPath102)"><g
                 id="g106"
                 transform="translate(431.3282,195.98)"><path
                   id="path104"
                   style="fill:#000000;fill-opacity:1;fill-rule:nonzero;stroke:none"
                   d="M 0,0 C -0.001,0.515 -0.001,2.724 -0.001,2.724 L -1.76,3.716 -104.917,-58.668 v -2.741 L -1.021,-1.425 C -0.34,-1.031 0.001,-0.516 0,0" /></g></g></g></g><g
           transform="translate(178.4287,222.7491)"
           id="g112"><path
             id="path114"
             style="fill:#00dfbf;fill-opacity:1;fill-rule:nonzero;stroke:none"
             d="m 0,0 103.896,59.985 c 1.362,0.786 3.569,0.786 4.93,0 l 143.052,-82.592 c 1.362,-0.786 1.362,-2.06 0,-2.846 L 147.982,-85.437 Z" /></g><g
           id="g116"><g
             id="g118" /><g
             id="g130"><g
               style="opacity:0.19999701"
               id="g128"
               clip-path="url(#clipPath122)"><g
                 id="g126"
                 transform="translate(326.4106,134.5707)"><path
                   id="path124"
                   style="fill:#000000;fill-opacity:1;fill-rule:nonzero;stroke:none"
                   d="M 0,0 V 2.741 L -147.982,88.178 V 85.437 Z" /></g></g></g></g><g
           transform="translate(180.8013,218.6944)"
           id="g132"><path
             id="path134"
             style="fill:#00dfbf;fill-opacity:1;fill-rule:nonzero;stroke:none"
             d="m 0,0 -105.032,-55.301 -2.16,-3.395 v -2.735 c 0,-1.365 0.788,-2.602 2.16,-3.395 l 138.425,-79.922 c 0.999,-0.576 2.279,-0.894 3.603,-0.894 1.325,0 2.604,0.318 3.603,0.894 l 102.688,59.286 v 2.735 z" /></g><g
           id="g136"><g
             id="g138" /><g
             id="g150"><g
               style="opacity:0.10000598"
               id="g148"
               clip-path="url(#clipPath142)"><g
                 id="g146"
                 transform="translate(180.8013,218.6944)"><path
                   id="path144"
                   style="fill:#000000;fill-opacity:1;fill-rule:nonzero;stroke:none"
                   d="m 0,0 -105.032,-55.301 -2.16,-3.395 v -2.735 c 0,-1.365 0.788,-2.602 2.16,-3.395 l 138.425,-79.922 c 0.999,-0.576 2.279,-0.894 3.603,-0.894 1.325,0 2.604,0.318 3.603,0.894 l 102.688,59.286 v 2.735 z" /></g></g></g></g><g
           transform="translate(217.7974,75.7871)"
           id="g152"><path
             id="path154"
             style="fill:#00dfbf;fill-opacity:1;fill-rule:nonzero;stroke:none"
             d="m 0,0 c -1.325,0 -2.604,0.318 -3.603,0.894 l -138.425,79.922 c -1.373,0.793 -2.16,2.03 -2.16,3.395 0,1.365 0.787,2.603 2.16,3.396 L -41.617,145.578 106.291,60.18 3.603,0.894 C 2.604,0.318 1.325,0 0,0" /></g><g
           transform="translate(176.1779,229.3891)"
           id="g156"><path
             id="path158"
             style="fill:#ececec;fill-opacity:1;fill-rule:nonzero;stroke:none"
             d="m 0,0 -99.27,-57.314 -1.021,-1.423 v -10.654 0 c 0,-0.515 0.34,-1.03 1.021,-1.423 l 138.425,-79.922 c 1.361,-0.786 3.568,-0.786 4.929,0 l 99.272,57.314 v 10.654 z" /></g><g
           transform="translate(319.5396,146.6163)"
           id="g160"><path
             id="path162"
             style="fill:#f0f0f0;fill-opacity:1;fill-rule:nonzero;stroke:none"
             d="m 0,0 -1.241,-0.717 -16.154,-9.324 -3.006,-1.742 -78.872,-45.526 c -1.366,-0.786 -3.574,-0.786 -4.929,0 l -138.434,79.926 c -1.355,0.785 -1.355,2.06 0,2.846 l 1.32,0.763 97.954,56.547 L -1.23,0.717 -0.934,0.535 Z" /></g><g
           transform="translate(217.7966,88.7149)"
           id="g164"><path
             id="path166"
             style="fill:#e1e1e1;fill-opacity:1;fill-rule:nonzero;stroke:none"
             d="m 0,0 v -10.654 c -0.888,0 -1.787,0.194 -2.459,0.593 l -138.434,79.926 c -0.672,0.387 -1.014,0.899 -1.014,1.423 v 10.653 c 0,-0.512 0.342,-1.025 1.014,-1.423 L -2.459,0.592 C -1.787,0.194 -0.888,0 0,0" /></g><g
           transform="translate(319.5396,148.0394)"
           id="g168"><path
             id="path170"
             style="fill:#fafafa;fill-opacity:1;fill-rule:nonzero;stroke:none"
             d="m 0,0 -17.874,-10.314 -2.8,-1.617 -78.599,-45.378 c -1.366,-0.786 -3.574,-0.786 -4.929,0 L -228.167,14.26 c -1.115,0.615 -2.151,1.219 -3.119,1.799 -5.043,3.074 -8.083,5.818 -10.03,8.743 -0.079,0.126 -0.159,0.24 -0.239,0.365 -0.159,0.239 -0.262,0.489 -0.307,0.74 -0.228,1.093 0.501,2.14 1.73,2.504 2.402,0.718 6.034,1.993 9.347,3.894 0.045,0.023 0.08,0.045 0.125,0.068 l 87.296,50.399 z" /></g><g
           id="g172"><g
             id="g174" /><g
             id="g186"><g
               style="opacity:0.10000598"
               id="g184"
               clip-path="url(#clipPath178)"><g
                 id="g182"
                 transform="translate(301.0369,149.2898)"><path
                   id="path180"
                   style="fill:#000000;fill-opacity:1;fill-rule:nonzero;stroke:none"
                   d="m 0,0 c -1.265,-0.737 -1.265,-1.933 0,-2.67 1.265,-0.737 3.325,-0.737 4.602,0 C 5.88,-1.932 5.88,-0.737 4.603,0 3.325,0.737 1.265,0.737 0,0" /></g></g></g></g><g
           transform="translate(315.8283,157.9211)"
           id="g188"><path
             id="path190"
             style="fill:#1a2e35;fill-opacity:1;fill-rule:nonzero;stroke:none"
             d="m 0,0 c -1.753,1.013 -3.95,0.854 -6.193,-0.433 -3.472,-2.015 -6.478,-6.5 -7.787,-11.202 0.524,-0.171 1.116,-0.239 1.696,-0.205 1.207,4.19 3.871,8.14 6.945,9.927 1.002,0.57 1.958,0.866 2.823,0.866 0.603,0 1.161,-0.148 1.662,-0.433 1.48,-0.854 2.334,-2.937 2.334,-5.704 0,-0.455 -0.023,-0.91 -0.08,-1.366 l 1.617,-0.933 c 0.114,0.774 0.171,1.548 0.171,2.299 C 3.188,-3.791 2.026,-1.173 0,0" /></g><g
           transform="translate(318.6858,147.5498)"
           id="g192"><path
             id="path194"
             style="fill:#1a2e35;fill-opacity:1;fill-rule:nonzero;stroke:none"
             d="m 0,0 c -0.011,-0.125 -0.046,-0.262 -0.08,-0.398 l -0.296,0.182 z" /></g><g
           id="g196"><g
             id="g198" /><g
             id="g210"><g
               style="opacity:0.10000598"
               id="g208"
               clip-path="url(#clipPath202)"><g
                 id="g206"
                 transform="translate(287.1656,157.3016)"><path
                   id="path204"
                   style="fill:#000000;fill-opacity:1;fill-rule:nonzero;stroke:none"
                   d="m 0,0 c -1.265,-0.737 -1.265,-1.933 0,-2.67 1.265,-0.737 3.325,-0.737 4.602,0 C 5.88,-1.932 5.88,-0.737 4.603,0 3.326,0.737 1.265,0.737 0,0" /></g></g></g></g><g
           transform="translate(301.957,165.9329)"
           id="g212"><path
             id="path214"
             style="fill:#1a2e35;fill-opacity:1;fill-rule:nonzero;stroke:none"
             d="m 0,0 c -1.753,1.013 -3.95,0.854 -6.193,-0.433 -3.472,-2.015 -6.478,-6.5 -7.787,-11.202 0.524,-0.171 1.116,-0.239 1.696,-0.205 1.207,4.19 3.871,8.14 6.945,9.927 1.002,0.57 1.958,0.866 2.823,0.866 0.603,0 1.161,-0.148 1.662,-0.433 1.48,-0.854 2.334,-2.937 2.334,-5.704 0,-0.455 -0.023,-0.91 -0.08,-1.366 l 1.617,-0.933 c 0.114,0.774 0.171,1.548 0.171,2.299 C 3.188,-3.791 2.026,-1.173 0,0" /></g><g
           id="g216"><g
             id="g218" /><g
             id="g230"><g
               style="opacity:0.10000598"
               id="g228"
               clip-path="url(#clipPath222)"><g
                 id="g226"
                 transform="translate(273.2905,165.3124)"><path
                   id="path224"
                   style="fill:#000000;fill-opacity:1;fill-rule:nonzero;stroke:none"
                   d="m 0,0 c -1.265,-0.737 -1.265,-1.933 0,-2.67 1.265,-0.737 3.325,-0.737 4.602,0 C 5.88,-1.932 5.88,-0.737 4.603,0 3.325,0.737 1.265,0.737 0,0" /></g></g></g></g><g
           transform="translate(288.0819,173.9437)"
           id="g232"><path
             id="path234"
             style="fill:#1a2e35;fill-opacity:1;fill-rule:nonzero;stroke:none"
             d="m 0,0 c -1.753,1.013 -3.95,0.854 -6.193,-0.433 -3.472,-2.015 -6.478,-6.5 -7.787,-11.202 0.524,-0.171 1.116,-0.239 1.696,-0.205 1.207,4.19 3.871,8.14 6.945,9.927 1.002,0.57 1.958,0.866 2.823,0.866 0.603,0 1.161,-0.148 1.662,-0.433 1.48,-0.854 2.334,-2.937 2.334,-5.704 0,-0.455 -0.023,-0.91 -0.08,-1.366 l 1.617,-0.933 c 0.114,0.774 0.171,1.548 0.171,2.299 C 3.188,-3.791 2.026,-1.173 0,0" /></g><g
           id="g236"><g
             id="g238" /><g
             id="g250"><g
               style="opacity:0.10000598"
               id="g248"
               clip-path="url(#clipPath242)"><g
                 id="g246"
                 transform="translate(259.4178,173.3199)"><path
                   id="path244"
                   style="fill:#000000;fill-opacity:1;fill-rule:nonzero;stroke:none"
                   d="m 0,0 c -1.265,-0.737 -1.265,-1.933 0,-2.67 1.265,-0.737 3.325,-0.737 4.602,0 C 5.88,-1.932 5.88,-0.737 4.603,0 3.325,0.737 1.265,0.737 0,0" /></g></g></g></g><g
           transform="translate(274.2092,181.9512)"
           id="g252"><path
             id="path254"
             style="fill:#1a2e35;fill-opacity:1;fill-rule:nonzero;stroke:none"
             d="m 0,0 c -1.753,1.013 -3.95,0.854 -6.193,-0.433 -3.472,-2.015 -6.478,-6.5 -7.787,-11.202 0.524,-0.171 1.116,-0.239 1.696,-0.205 1.207,4.19 3.871,8.14 6.945,9.927 1.002,0.57 1.958,0.866 2.823,0.866 0.603,0 1.161,-0.148 1.662,-0.433 1.48,-0.854 2.334,-2.937 2.334,-5.704 0,-0.455 -0.023,-0.91 -0.08,-1.366 l 1.617,-0.933 c 0.114,0.774 0.171,1.548 0.171,2.299 C 3.188,-3.791 2.026,-1.173 0,0" /></g><g
           id="g256"><g
             id="g258" /><g
             id="g270"><g
               style="opacity:0.10000598"
               id="g268"
               clip-path="url(#clipPath262)"><g
                 id="g266"
                 transform="translate(245.5447,181.3299)"><path
                   id="path264"
                   style="fill:#000000;fill-opacity:1;fill-rule:nonzero;stroke:none"
                   d="m 0,0 c -1.265,-0.737 -1.265,-1.933 0,-2.67 1.265,-0.737 3.325,-0.737 4.602,0 C 5.88,-1.932 5.88,-0.737 4.603,0 3.325,0.737 1.265,0.737 0,0" /></g></g></g></g><g
           transform="translate(260.3362,189.9612)"
           id="g272"><path
             id="path274"
             style="fill:#1a2e35;fill-opacity:1;fill-rule:nonzero;stroke:none"
             d="m 0,0 c -1.753,1.013 -3.95,0.854 -6.193,-0.433 -3.472,-2.015 -6.478,-6.5 -7.787,-11.202 0.524,-0.171 1.116,-0.239 1.696,-0.205 1.207,4.19 3.871,8.14 6.945,9.927 1.002,0.57 1.958,0.866 2.823,0.866 0.603,0 1.161,-0.148 1.662,-0.433 1.48,-0.854 2.334,-2.937 2.334,-5.704 0,-0.455 -0.023,-0.91 -0.08,-1.366 l 1.617,-0.933 c 0.114,0.774 0.171,1.548 0.171,2.299 C 3.188,-3.791 2.026,-1.173 0,0" /></g><g
           id="g276"><g
             id="g278" /><g
             id="g290"><g
               style="opacity:0.10000598"
               id="g288"
               clip-path="url(#clipPath282)"><g
                 id="g286"
                 transform="translate(231.6683,189.3406)"><path
                   id="path284"
                   style="fill:#000000;fill-opacity:1;fill-rule:nonzero;stroke:none"
                   d="m 0,0 c -1.265,-0.737 -1.265,-1.933 0,-2.67 1.265,-0.737 3.325,-0.737 4.602,0 C 5.88,-1.932 5.88,-0.737 4.603,0 3.325,0.737 1.265,0.737 0,0" /></g></g></g></g><g
           transform="translate(246.4598,197.9719)"
           id="g292"><path
             id="path294"
             style="fill:#1a2e35;fill-opacity:1;fill-rule:nonzero;stroke:none"
             d="m 0,0 c -1.753,1.013 -3.95,0.854 -6.193,-0.433 -3.472,-2.015 -6.478,-6.5 -7.787,-11.202 0.524,-0.171 1.116,-0.239 1.696,-0.205 1.207,4.19 3.871,8.14 6.945,9.927 1.002,0.57 1.958,0.866 2.823,0.866 0.603,0 1.161,-0.148 1.662,-0.433 1.48,-0.854 2.334,-2.937 2.334,-5.704 0,-0.455 -0.023,-0.91 -0.08,-1.366 l 1.617,-0.933 c 0.114,0.774 0.171,1.548 0.171,2.299 C 3.188,-3.791 2.026,-1.173 0,0" /></g><g
           id="g296"><g
             id="g298" /><g
             id="g310"><g
               style="opacity:0.10000598"
               id="g308"
               clip-path="url(#clipPath302)"><g
                 id="g306"
                 transform="translate(217.7966,197.35)"><path
                   id="path304"
                   style="fill:#000000;fill-opacity:1;fill-rule:nonzero;stroke:none"
                   d="m 0,0 c -1.265,-0.737 -1.265,-1.933 0,-2.67 1.265,-0.737 3.325,-0.737 4.602,0 C 5.88,-1.932 5.88,-0.737 4.603,0 3.325,0.737 1.265,0.737 0,0" /></g></g></g></g><g
           transform="translate(232.588,205.9813)"
           id="g312"><path
             id="path314"
             style="fill:#1a2e35;fill-opacity:1;fill-rule:nonzero;stroke:none"
             d="m 0,0 c -1.753,1.013 -3.95,0.854 -6.193,-0.433 -3.472,-2.015 -6.478,-6.5 -7.787,-11.202 0.524,-0.171 1.116,-0.239 1.696,-0.205 1.207,4.19 3.871,8.14 6.945,9.927 1.002,0.57 1.958,0.866 2.823,0.866 0.603,0 1.161,-0.148 1.662,-0.433 1.48,-0.854 2.334,-2.937 2.334,-5.704 0,-0.455 -0.023,-0.91 -0.08,-1.366 l 1.617,-0.933 c 0.114,0.774 0.171,1.548 0.171,2.299 C 3.188,-3.791 2.026,-1.173 0,0" /></g><g
           id="g316"><g
             id="g318" /><g
             id="g330"><g
               style="opacity:0.10000598"
               id="g328"
               clip-path="url(#clipPath322)"><g
                 id="g326"
                 transform="translate(203.9209,205.3598)"><path
                   id="path324"
                   style="fill:#000000;fill-opacity:1;fill-rule:nonzero;stroke:none"
                   d="m 0,0 c -1.265,-0.737 -1.265,-1.933 0,-2.67 1.265,-0.737 3.325,-0.737 4.602,0 C 5.88,-1.932 5.88,-0.737 4.603,0 3.325,0.737 1.265,0.737 0,0" /></g></g></g></g><g
           transform="translate(218.7123,213.9911)"
           id="g332"><path
             id="path334"
             style="fill:#1a2e35;fill-opacity:1;fill-rule:nonzero;stroke:none"
             d="m 0,0 c -1.753,1.013 -3.95,0.854 -6.193,-0.433 -3.472,-2.015 -6.478,-6.5 -7.787,-11.202 0.524,-0.171 1.116,-0.239 1.696,-0.205 1.207,4.19 3.871,8.14 6.945,9.927 1.002,0.57 1.958,0.866 2.823,0.866 0.603,0 1.161,-0.148 1.662,-0.433 1.48,-0.854 2.334,-2.937 2.334,-5.704 0,-0.455 -0.023,-0.91 -0.08,-1.366 l 1.617,-0.933 c 0.114,0.774 0.171,1.548 0.171,2.299 C 3.188,-3.791 2.026,-1.173 0,0" /></g><g
           id="g336"><g
             id="g338" /><g
             id="g350"><g
               style="opacity:0.10000598"
               id="g348"
               clip-path="url(#clipPath342)"><g
                 id="g346"
                 transform="translate(190.0497,213.3714)"><path
                   id="path344"
                   style="fill:#000000;fill-opacity:1;fill-rule:nonzero;stroke:none"
                   d="m 0,0 c -1.265,-0.737 -1.265,-1.933 0,-2.67 1.265,-0.737 3.325,-0.737 4.602,0 C 5.88,-1.932 5.88,-0.737 4.603,0 3.325,0.737 1.265,0.737 0,0" /></g></g></g></g><g
           transform="translate(204.8411,222.0027)"
           id="g352"><path
             id="path354"
             style="fill:#1a2e35;fill-opacity:1;fill-rule:nonzero;stroke:none"
             d="m 0,0 c -1.753,1.013 -3.95,0.854 -6.193,-0.433 -3.472,-2.015 -6.478,-6.5 -7.787,-11.202 0.524,-0.171 1.116,-0.239 1.696,-0.205 1.207,4.19 3.871,8.14 6.945,9.927 1.002,0.57 1.958,0.866 2.823,0.866 0.603,0 1.161,-0.148 1.662,-0.433 1.48,-0.854 2.334,-2.937 2.334,-5.704 0,-0.455 -0.023,-0.91 -0.08,-1.366 l 1.617,-0.933 c 0.114,0.774 0.171,1.548 0.171,2.299 C 3.188,-3.791 2.026,-1.173 0,0" /></g><g
           id="g356"><g
             id="g358" /><g
             id="g370"><g
               style="opacity:0.10000598"
               id="g368"
               clip-path="url(#clipPath362)"><g
                 id="g366"
                 transform="translate(176.1742,221.3801)"><path
                   id="path364"
                   style="fill:#000000;fill-opacity:1;fill-rule:nonzero;stroke:none"
                   d="m 0,0 c -1.265,-0.737 -1.265,-1.933 0,-2.67 1.265,-0.737 3.325,-0.737 4.602,0 C 5.88,-1.932 5.88,-0.737 4.603,0 3.325,0.737 1.265,0.737 0,0" /></g></g></g></g><g
           transform="translate(190.9656,230.0114)"
           id="g372"><path
             id="path374"
             style="fill:#1a2e35;fill-opacity:1;fill-rule:nonzero;stroke:none"
             d="m 0,0 c -1.753,1.013 -3.95,0.854 -6.193,-0.433 -3.472,-2.015 -6.478,-6.5 -7.787,-11.202 0.524,-0.171 1.116,-0.239 1.696,-0.205 1.207,4.19 3.871,8.14 6.945,9.927 1.002,0.57 1.958,0.866 2.823,0.866 0.603,0 1.161,-0.148 1.662,-0.433 1.48,-0.854 2.334,-2.937 2.334,-5.704 0,-0.455 -0.023,-0.91 -0.08,-1.366 l 1.617,-0.933 c 0.114,0.774 0.171,1.548 0.171,2.299 C 3.188,-3.791 2.026,-1.173 0,0" /></g><g
           transform="translate(280.2979,150.6674)"
           id="g376"><path
             id="path378"
             style="fill:none;stroke:#ececec;stroke-width:0.56900001;stroke-linecap:round;stroke-linejoin:miter;stroke-miterlimit:10;stroke-dasharray:none;stroke-opacity:1"
             d="M 0,0 -76.373,-44.095" /></g><g
           transform="translate(271.0481,156.0079)"
           id="g380"><path
             id="path382"
             style="fill:none;stroke:#ececec;stroke-width:0.56900001;stroke-linecap:round;stroke-linejoin:miter;stroke-miterlimit:10;stroke-dasharray:none;stroke-opacity:1"
             d="M 0,0 -76.373,-44.095" /></g><g
           transform="translate(261.7983,161.3483)"
           id="g384"><path
             id="path386"
             style="fill:none;stroke:#ececec;stroke-width:0.56900001;stroke-linecap:round;stroke-linejoin:miter;stroke-miterlimit:10;stroke-dasharray:none;stroke-opacity:1"
             d="M 0,0 -76.373,-44.095" /></g><g
           transform="translate(252.5485,166.6888)"
           id="g388"><path
             id="path390"
             style="fill:none;stroke:#ececec;stroke-width:0.56900001;stroke-linecap:round;stroke-linejoin:miter;stroke-miterlimit:10;stroke-dasharray:none;stroke-opacity:1"
             d="M 0,0 -76.373,-44.095" /></g><g
           transform="translate(243.2987,172.0292)"
           id="g392"><path
             id="path394"
             style="fill:none;stroke:#ececec;stroke-width:0.56900001;stroke-linecap:round;stroke-linejoin:miter;stroke-miterlimit:10;stroke-dasharray:none;stroke-opacity:1"
             d="M 0,0 -76.373,-44.095" /></g><g
           transform="translate(234.0489,177.3697)"
           id="g396"><path
             id="path398"
             style="fill:none;stroke:#ececec;stroke-width:0.56900001;stroke-linecap:round;stroke-linejoin:miter;stroke-miterlimit:10;stroke-dasharray:none;stroke-opacity:1"
             d="M 0,0 -76.373,-44.095" /></g><g
           transform="translate(224.7991,182.7101)"
           id="g400"><path
             id="path402"
             style="fill:none;stroke:#ececec;stroke-width:0.56900001;stroke-linecap:round;stroke-linejoin:miter;stroke-miterlimit:10;stroke-dasharray:none;stroke-opacity:1"
             d="M 0,0 -76.373,-44.095" /></g><g
           transform="translate(215.5492,188.0506)"
           id="g404"><path
             id="path406"
             style="fill:none;stroke:#ececec;stroke-width:0.56900001;stroke-linecap:round;stroke-linejoin:miter;stroke-miterlimit:10;stroke-dasharray:none;stroke-opacity:1"
             d="M 0,0 -76.373,-44.095" /></g><g
           transform="translate(206.2994,193.391)"
           id="g408"><path
             id="path410"
             style="fill:none;stroke:#ececec;stroke-width:0.56900001;stroke-linecap:round;stroke-linejoin:miter;stroke-miterlimit:10;stroke-dasharray:none;stroke-opacity:1"
             d="M 0,0 -76.373,-44.095" /></g><g
           transform="translate(197.0496,198.7315)"
           id="g412"><path
             id="path414"
             style="fill:none;stroke:#ececec;stroke-width:0.56900001;stroke-linecap:round;stroke-linejoin:miter;stroke-miterlimit:10;stroke-dasharray:none;stroke-opacity:1"
             d="M 0,0 -76.373,-44.095" /></g><g
           transform="translate(187.7998,204.0719)"
           id="g416"><path
             id="path418"
             style="fill:none;stroke:#ececec;stroke-width:0.56900001;stroke-linecap:round;stroke-linejoin:miter;stroke-miterlimit:10;stroke-dasharray:none;stroke-opacity:1"
             d="M 0,0 -76.373,-44.095" /></g><g
           transform="translate(178.55,209.4124)"
           id="g420"><path
             id="path422"
             style="fill:none;stroke:#ececec;stroke-width:0.56900001;stroke-linecap:round;stroke-linejoin:miter;stroke-miterlimit:10;stroke-dasharray:none;stroke-opacity:1"
             d="M 0,0 -76.373,-44.095" /></g><g
           transform="translate(169.3002,214.7528)"
           id="g424"><path
             id="path426"
             style="fill:none;stroke:#ececec;stroke-width:0.56900001;stroke-linecap:round;stroke-linejoin:miter;stroke-miterlimit:10;stroke-dasharray:none;stroke-opacity:1"
             d="M 0,0 -76.373,-44.095" /></g><g
           transform="translate(164.6668,217.4022)"
           id="g428"><path
             id="path430"
             style="fill:none;stroke:#00dfbf;stroke-width:0.56900001;stroke-linecap:round;stroke-linejoin:miter;stroke-miterlimit:10;stroke-dasharray:none;stroke-opacity:1"
             d="M 0,0 134.134,-77.413" /></g><g
           transform="translate(294.0974,147.9548)"
           id="g432"><path
             id="path434"
             style="fill:none;stroke:#00dfbf;stroke-width:0.56900001;stroke-linecap:round;stroke-linejoin:miter;stroke-miterlimit:10;stroke-dasharray:none;stroke-opacity:1"
             d="M 0,0 -80.781,-46.722" /></g><g
           id="g436"><g
             id="g438" /><g
             id="g490"><g
               style="opacity:0.25"
               id="g488"
               clip-path="url(#clipPath442)"><g
                 id="g446"
                 transform="translate(253.0019,157.2647)"><path
                   id="path444"
                   style="fill:#375a64;fill-opacity:1;fill-rule:nonzero;stroke:none"
                   d="M 0,0 C 0.465,-0.626 -1.003,-0.118 -1.184,-0.037 -2.051,0.351 -2.626,1.299 -3.143,2.05 -2.688,1.8 -2.278,1.574 -1.981,1.437 -1.177,1.066 -0.543,0.731 0,0 M 0.691,0.46 C -0.014,1.529 -1.317,1.957 -2.43,2.461 -2.886,2.667 -3.4,2.947 -3.938,3.229 -4.644,4.36 -5.576,6.199 -4.34,6.433 -3.601,6.572 -2.169,5.797 -1.369,5.559 -0.921,5.426 -1.024,6.081 -1.338,6.204 -2.699,6.739 -5.301,8.426 -5.861,6.111 -6.012,5.485 -5.866,4.746 -5.546,3.983 -6.229,4.247 -6.913,4.413 -7.551,4.354 -8.192,4.294 -8.741,4.276 -8.966,3.525 -9.089,3.112 -8.911,2.931 -8.885,2.62 -8.845,2.146 -8.374,1.993 -8.239,1.962 -8.313,1.974 -8.522,2 -8.965,2.017 -9.928,2.053 -12.56,2.692 -13.171,1.495 -13.424,1 -12.847,0.314 -12.93,0.128 c -0.039,-0.087 -1.916,-0.719 -2.244,-0.921 -0.147,-0.09 -0.047,-0.611 -0.13,-0.659 -0.285,-0.165 -2.218,0.026 -2.778,-0.019 -1.532,-0.126 -5.316,0.444 -4.82,-1.912 0.053,-0.256 0.257,-0.219 0.306,-0.632 0.039,-0.336 0.082,-0.498 0.115,-0.573 -0.055,0.009 -0.161,-0.039 -0.361,-0.317 -0.129,-0.181 -0.656,-0.125 -0.846,-0.363 -0.726,-0.91 0.383,-1.227 -0.521,-1.794 -1.273,-0.799 -3.926,0.818 -5.222,-0.076 -1.153,-0.796 0.347,-3.083 -1.689,-3.123 -0.448,-0.009 -0.187,-0.673 0.153,-0.703 1.901,-0.166 1.696,0.192 2.061,1.746 0.596,2.535 4.377,0.788 6.502,1.375 0.245,0.068 0.267,0.372 0.153,0.556 -0.557,0.9 0.093,1.397 0.932,1.786 0.231,0.108 0.277,0.331 0.156,0.551 -0.227,0.415 -1.034,1.678 -0.541,2.274 0.114,0.137 1.989,0.248 2.254,0.262 1.646,0.091 3.288,0.17 4.943,0.088 0.229,-0.012 0.409,0.26 0.316,0.468 -0.238,0.53 1.898,0.868 2.373,0.975 0.185,0.042 0.268,0.288 0.203,0.45 -1.021,2.536 2.739,1.602 4.3,1.356 0.304,-0.048 0.519,0.186 0.435,0.48 -0.245,0.855 -2.132,1.713 0.105,2.027 0.438,0.061 1.056,-0.126 1.715,-0.41 1.028,-1.741 2.751,-3.422 3.908,-4.027 1.479,-0.774 2.982,-0.262 1.843,1.467" /></g><g
                 id="g450"
                 transform="translate(216.1498,139.9028)"><path
                   id="path448"
                   style="fill:#375a64;fill-opacity:1;fill-rule:nonzero;stroke:none"
                   d="M 0,0 C -0.063,0.108 -0.148,0.284 -0.238,0.496 0.371,0.046 0.945,-0.483 1.04,-0.765 1.393,-1.812 0.171,-0.292 0,0 M -0.655,1.732 C -0.934,2.835 -0.967,4.043 0.057,4.177 0.549,4.241 0.199,4.911 -0.169,4.923 -1.552,4.967 -1.984,3.768 -1.804,2.322 -2.439,2.609 -3.039,2.815 -3.518,2.905 -4.416,3.073 -4.997,3.102 -5.294,2.186 -5.471,1.64 -5.032,1.283 -5.066,0.792 -5.116,0.069 -4.392,0.368 -5.479,0.082 -5.754,0.009 -6.422,0.199 -6.742,0.213 -7.836,0.261 -7.935,0.193 -8.6,-0.367 c -0.68,-0.572 1.003,-0.844 -0.993,-0.525 -0.508,0.082 -1.031,0.337 -1.564,0.217 -0.735,-0.166 -1.12,-0.376 -0.999,-1.189 0.054,-0.364 0.842,-0.848 0.837,-1.082 -0.042,-1.756 -1.907,-0.268 -2.624,-0.003 -0.2,0.073 -0.443,-0.053 -0.451,-0.275 -0.032,-0.868 0.579,-1.174 -0.684,-1.254 -0.153,-0.009 -1.021,0.478 -1.299,0.485 -0.814,0.019 -1.556,-1.058 -2.617,-0.97 -0.289,0.024 -0.387,-0.237 -0.3,-0.472 0.293,-0.792 0.722,-1.272 -0.875,-1.956 -0.036,-0.016 -1.88,0.232 -1.838,0.231 -0.459,0.012 -0.166,-0.742 0.188,-0.769 0.73,-0.055 3.196,-1.096 3.926,-0.112 0.538,0.726 -0.523,1.568 -0.258,2.031 -0.174,-0.305 1.407,0.432 1.58,0.491 0.262,0.089 0.9,0.355 1.237,0.338 0.222,-0.01 0.406,-0.358 0.64,-0.356 0.309,0.003 0.637,-0.149 0.917,0.017 0.213,0.126 0.346,0.516 0.458,0.59 0.281,0.185 -0.363,0.409 0.189,0.599 0.401,0.138 0.747,-0.268 1.122,-0.386 0.596,-0.188 1.5,-0.629 2.011,0.012 0.664,0.832 -0.557,1.41 -0.442,1.969 0.255,1.251 2.041,0.304 2.859,0.859 0.126,0.086 0.156,0.246 0.115,0.385 -0.503,1.728 2.632,0.375 3.619,0.558 0.176,0.033 0.363,0.149 0.337,0.359 -0.019,0.16 -0.392,1.073 -0.389,1.087 0.247,1.037 1.674,0.921 2.331,0.746 0.635,-2.103 2.304,-4.225 4.124,-3.658 0.134,0.042 0.242,0.173 0.229,0.319 -0.124,1.396 -1.747,2.832 -3.441,3.813" /></g><g
                 id="g454"
                 transform="translate(242.5568,129.8982)"><path
                   id="path452"
                   style="fill:#375a64;fill-opacity:1;fill-rule:nonzero;stroke:none"
                   d="M 0,0 C 0.465,-0.626 -1.003,-0.118 -1.184,-0.037 -2.051,0.351 -2.626,1.299 -3.143,2.05 -2.688,1.8 -2.278,1.574 -1.981,1.437 -1.177,1.066 -0.543,0.731 0,0 M 0.691,0.46 C -0.014,1.529 -1.317,1.957 -2.43,2.461 -2.886,2.667 -3.4,2.948 -3.938,3.229 -4.644,4.36 -5.576,6.199 -4.34,6.433 -3.601,6.572 -2.169,5.797 -1.369,5.559 -0.921,5.426 -1.024,6.081 -1.338,6.204 -2.699,6.739 -5.301,8.426 -5.861,6.111 -6.012,5.485 -5.866,4.746 -5.546,3.983 -6.229,4.247 -6.913,4.413 -7.551,4.354 -8.192,4.294 -8.741,4.276 -8.966,3.525 -9.089,3.112 -8.911,2.931 -8.885,2.62 -8.845,2.146 -8.374,1.993 -8.239,1.962 -8.314,1.974 -8.522,2 -8.965,2.017 -9.928,2.054 -12.56,2.692 -13.171,1.495 -13.424,1 -12.847,0.314 -12.93,0.128 c -0.039,-0.087 -1.916,-0.719 -2.244,-0.921 -0.147,-0.09 -0.047,-0.611 -0.13,-0.659 -0.285,-0.165 -2.218,0.026 -2.778,-0.019 -1.532,-0.126 -5.316,0.444 -4.82,-1.912 0.053,-0.256 0.257,-0.219 0.306,-0.632 0.039,-0.336 0.082,-0.498 0.115,-0.573 -0.055,0.009 -0.161,-0.039 -0.361,-0.317 -0.129,-0.181 -0.656,-0.125 -0.846,-0.363 -0.726,-0.91 0.383,-1.227 -0.521,-1.794 -1.273,-0.799 -3.926,0.818 -5.222,-0.076 -1.153,-0.796 0.347,-3.083 -1.689,-3.123 -0.448,-0.009 -0.187,-0.673 0.153,-0.703 1.901,-0.166 1.695,0.192 2.061,1.746 0.596,2.535 4.377,0.788 6.502,1.375 0.245,0.068 0.267,0.372 0.153,0.556 -0.557,0.9 0.093,1.397 0.932,1.786 0.231,0.108 0.277,0.331 0.156,0.551 -0.227,0.415 -1.034,1.678 -0.541,2.274 0.114,0.137 1.989,0.248 2.254,0.262 1.646,0.091 3.288,0.17 4.943,0.088 0.229,-0.012 0.409,0.26 0.316,0.468 -0.238,0.53 1.898,0.868 2.373,0.975 0.185,0.042 0.268,0.288 0.203,0.45 -1.021,2.536 2.739,1.602 4.3,1.356 0.304,-0.048 0.519,0.186 0.435,0.48 -0.245,0.855 -2.132,1.713 0.105,2.027 0.438,0.061 1.056,-0.126 1.715,-0.41 1.028,-1.741 2.751,-3.422 3.908,-4.027 1.479,-0.774 2.982,-0.262 1.843,1.467" /></g><g
                 id="g458"
                 transform="translate(267.3772,148.0326)"><path
                   id="path456"
                   style="fill:#375a64;fill-opacity:1;fill-rule:nonzero;stroke:none"
                   d="M 0,0 C -0.063,0.108 -0.148,0.284 -0.238,0.496 0.371,0.046 0.945,-0.483 1.04,-0.765 1.393,-1.812 0.171,-0.292 0,0 M -0.655,1.732 C -0.934,2.835 -0.967,4.043 0.057,4.177 0.549,4.241 0.199,4.911 -0.169,4.923 -1.552,4.967 -1.984,3.768 -1.804,2.322 -2.44,2.609 -3.039,2.815 -3.518,2.905 -4.416,3.073 -4.997,3.102 -5.294,2.186 -5.471,1.64 -5.032,1.283 -5.066,0.792 -5.116,0.069 -4.392,0.368 -5.479,0.082 -5.754,0.009 -6.422,0.199 -6.742,0.213 -7.836,0.261 -7.935,0.193 -8.6,-0.367 c -0.68,-0.572 1.003,-0.844 -0.993,-0.525 -0.508,0.082 -1.031,0.337 -1.564,0.217 -0.735,-0.166 -1.12,-0.376 -0.999,-1.189 0.054,-0.364 0.842,-0.848 0.837,-1.082 -0.042,-1.756 -1.907,-0.268 -2.624,-0.003 -0.2,0.073 -0.443,-0.053 -0.451,-0.275 -0.032,-0.868 0.579,-1.174 -0.684,-1.254 -0.153,-0.009 -1.021,0.478 -1.299,0.485 -0.814,0.019 -1.556,-1.058 -2.617,-0.97 -0.289,0.024 -0.387,-0.237 -0.3,-0.472 0.293,-0.792 0.722,-1.272 -0.875,-1.956 -0.036,-0.016 -1.88,0.232 -1.838,0.231 -0.459,0.012 -0.166,-0.742 0.188,-0.769 0.73,-0.055 3.196,-1.096 3.926,-0.112 0.538,0.726 -0.523,1.568 -0.258,2.031 -0.174,-0.305 1.407,0.432 1.58,0.491 0.262,0.089 0.9,0.355 1.237,0.338 0.222,-0.01 0.406,-0.358 0.64,-0.356 0.309,0.003 0.637,-0.149 0.917,0.017 0.213,0.126 0.346,0.516 0.458,0.59 0.281,0.185 -0.363,0.41 0.189,0.599 0.401,0.138 0.747,-0.268 1.122,-0.386 0.596,-0.188 1.5,-0.629 2.011,0.012 0.664,0.832 -0.557,1.41 -0.442,1.97 0.255,1.25 2.041,0.303 2.859,0.858 0.126,0.086 0.156,0.246 0.115,0.385 -0.503,1.728 2.632,0.375 3.619,0.558 0.176,0.033 0.363,0.149 0.337,0.359 -0.019,0.16 -0.392,1.073 -0.389,1.087 0.247,1.037 1.674,0.921 2.331,0.746 0.635,-2.103 2.304,-4.225 4.124,-3.658 0.134,0.042 0.242,0.173 0.229,0.319 -0.124,1.396 -1.747,2.832 -3.441,3.813" /></g><g
                 id="g462"
                 transform="translate(196.5861,188.4477)"><path
                   id="path460"
                   style="fill:#375a64;fill-opacity:1;fill-rule:nonzero;stroke:none"
                   d="M 0,0 C 0.465,-0.626 -1.003,-0.118 -1.184,-0.037 -2.051,0.351 -2.626,1.299 -3.143,2.05 -2.688,1.8 -2.278,1.574 -1.981,1.437 -1.177,1.066 -0.543,0.731 0,0 M 0.691,0.46 C -0.014,1.529 -1.317,1.957 -2.43,2.461 -2.886,2.667 -3.4,2.948 -3.938,3.229 -4.644,4.36 -5.576,6.199 -4.34,6.433 -3.601,6.572 -2.169,5.797 -1.369,5.559 -0.921,5.426 -1.024,6.081 -1.338,6.204 -2.699,6.739 -5.301,8.426 -5.861,6.111 -6.012,5.485 -5.866,4.746 -5.546,3.983 -6.229,4.247 -6.913,4.413 -7.551,4.354 -8.192,4.294 -8.741,4.276 -8.966,3.525 -9.089,3.112 -8.911,2.931 -8.885,2.62 -8.845,2.146 -8.374,1.993 -8.239,1.962 -8.314,1.974 -8.522,2 -8.965,2.017 -9.928,2.054 -12.56,2.692 -13.171,1.495 -13.424,1 -12.847,0.314 -12.93,0.128 c -0.039,-0.087 -1.916,-0.719 -2.244,-0.921 -0.147,-0.09 -0.047,-0.611 -0.13,-0.659 -0.285,-0.165 -2.218,0.026 -2.778,-0.019 -1.532,-0.126 -5.316,0.444 -4.82,-1.912 0.053,-0.256 0.257,-0.219 0.306,-0.632 0.039,-0.336 0.082,-0.498 0.115,-0.573 -0.055,0.009 -0.161,-0.039 -0.361,-0.317 -0.129,-0.181 -0.656,-0.125 -0.846,-0.363 -0.726,-0.91 0.383,-1.227 -0.521,-1.794 -1.273,-0.799 -3.926,0.818 -5.222,-0.076 -1.153,-0.796 0.347,-3.083 -1.689,-3.123 -0.448,-0.009 -0.187,-0.673 0.153,-0.703 1.901,-0.166 1.695,0.192 2.061,1.746 0.596,2.535 4.377,0.788 6.502,1.375 0.245,0.068 0.267,0.372 0.153,0.556 -0.557,0.9 0.093,1.397 0.932,1.786 0.231,0.108 0.277,0.331 0.156,0.551 -0.227,0.415 -1.034,1.678 -0.541,2.274 0.114,0.137 1.989,0.248 2.254,0.262 1.646,0.091 3.288,0.17 4.943,0.088 0.229,-0.012 0.409,0.26 0.316,0.468 -0.238,0.53 1.898,0.868 2.373,0.975 0.185,0.042 0.268,0.288 0.203,0.45 -1.021,2.536 2.739,1.602 4.3,1.356 0.304,-0.048 0.519,0.186 0.435,0.48 -0.245,0.855 -2.132,1.713 0.105,2.027 0.438,0.061 1.056,-0.126 1.715,-0.41 1.028,-1.741 2.751,-3.422 3.908,-4.027 1.479,-0.774 2.982,-0.262 1.843,1.467" /></g><g
                 id="g466"
                 transform="translate(159.734,171.0858)"><path
                   id="path464"
                   style="fill:#375a64;fill-opacity:1;fill-rule:nonzero;stroke:none"
                   d="M 0,0 C -0.063,0.108 -0.148,0.284 -0.238,0.496 0.371,0.046 0.945,-0.483 1.04,-0.765 1.393,-1.812 0.171,-0.292 0,0 M -0.655,1.732 C -0.934,2.835 -0.967,4.043 0.057,4.177 0.549,4.241 0.199,4.911 -0.169,4.923 -1.552,4.967 -1.984,3.768 -1.804,2.322 -2.439,2.609 -3.039,2.815 -3.518,2.905 -4.416,3.073 -4.997,3.102 -5.294,2.186 -5.471,1.64 -5.032,1.283 -5.066,0.792 -5.116,0.069 -4.392,0.368 -5.479,0.082 -5.754,0.009 -6.422,0.199 -6.742,0.213 -7.836,0.261 -7.935,0.193 -8.6,-0.367 c -0.68,-0.572 1.003,-0.844 -0.993,-0.525 -0.508,0.082 -1.031,0.337 -1.564,0.217 -0.735,-0.166 -1.12,-0.376 -0.999,-1.189 0.054,-0.364 0.842,-0.848 0.837,-1.082 -0.042,-1.756 -1.907,-0.268 -2.624,-0.003 -0.2,0.073 -0.443,-0.053 -0.451,-0.275 -0.032,-0.868 0.579,-1.174 -0.684,-1.254 -0.153,-0.009 -1.021,0.478 -1.299,0.485 -0.814,0.019 -1.556,-1.058 -2.617,-0.97 -0.289,0.024 -0.387,-0.237 -0.3,-0.472 0.293,-0.792 0.722,-1.272 -0.875,-1.956 -0.036,-0.016 -1.88,0.232 -1.838,0.231 -0.459,0.012 -0.166,-0.742 0.188,-0.769 0.73,-0.055 3.196,-1.096 3.926,-0.112 0.538,0.726 -0.523,1.568 -0.258,2.031 -0.174,-0.305 1.407,0.432 1.58,0.491 0.262,0.089 0.9,0.355 1.237,0.338 0.222,-0.01 0.406,-0.358 0.64,-0.356 0.309,0.003 0.637,-0.149 0.917,0.017 0.213,0.126 0.346,0.516 0.458,0.59 0.281,0.185 -0.363,0.41 0.189,0.599 0.401,0.138 0.747,-0.268 1.122,-0.386 0.596,-0.188 1.5,-0.629 2.011,0.012 0.664,0.832 -0.557,1.41 -0.442,1.97 0.255,1.25 2.041,0.303 2.859,0.858 0.126,0.086 0.156,0.246 0.115,0.385 -0.503,1.728 2.632,0.375 3.619,0.558 0.176,0.033 0.363,0.149 0.337,0.359 -0.019,0.16 -0.392,1.073 -0.389,1.087 0.247,1.037 1.674,0.921 2.331,0.746 0.635,-2.103 2.304,-4.225 4.124,-3.658 0.134,0.042 0.242,0.173 0.229,0.319 -0.124,1.396 -1.747,2.832 -3.441,3.813" /></g><g
                 id="g470"
                 transform="translate(186.141,161.0812)"><path
                   id="path468"
                   style="fill:#375a64;fill-opacity:1;fill-rule:nonzero;stroke:none"
                   d="M 0,0 C 0.465,-0.626 -1.003,-0.118 -1.184,-0.037 -2.051,0.351 -2.626,1.299 -3.143,2.05 -2.688,1.8 -2.278,1.574 -1.981,1.437 -1.177,1.066 -0.543,0.731 0,0 M 0.691,0.46 C -0.014,1.529 -1.317,1.957 -2.43,2.461 -2.886,2.667 -3.4,2.948 -3.938,3.229 -4.644,4.36 -5.576,6.199 -4.34,6.433 -3.601,6.572 -2.169,5.797 -1.369,5.559 -0.921,5.426 -1.024,6.081 -1.338,6.204 -2.699,6.739 -5.301,8.426 -5.861,6.111 -6.012,5.485 -5.866,4.746 -5.546,3.983 -6.229,4.247 -6.913,4.413 -7.551,4.354 -8.192,4.294 -8.741,4.276 -8.966,3.525 -9.089,3.112 -8.911,2.931 -8.885,2.62 -8.845,2.146 -8.374,1.993 -8.239,1.962 -8.314,1.974 -8.522,2 -8.965,2.017 -9.928,2.054 -12.56,2.692 -13.171,1.495 -13.424,1 -12.847,0.314 -12.93,0.128 c -0.039,-0.087 -1.916,-0.719 -2.244,-0.921 -0.147,-0.09 -0.047,-0.611 -0.13,-0.659 -0.285,-0.165 -2.218,0.026 -2.778,-0.019 -1.532,-0.126 -5.316,0.444 -4.82,-1.912 0.053,-0.256 0.257,-0.219 0.306,-0.632 0.039,-0.336 0.082,-0.498 0.115,-0.573 -0.055,0.009 -0.161,-0.039 -0.361,-0.317 -0.129,-0.181 -0.656,-0.125 -0.846,-0.363 -0.726,-0.91 0.383,-1.227 -0.521,-1.794 -1.273,-0.799 -3.926,0.818 -5.222,-0.076 -1.153,-0.796 0.347,-3.083 -1.689,-3.123 -0.448,-0.009 -0.187,-0.673 0.153,-0.703 1.901,-0.166 1.695,0.192 2.061,1.746 0.596,2.535 4.377,0.788 6.502,1.375 0.245,0.068 0.267,0.372 0.153,0.556 -0.557,0.9 0.093,1.397 0.932,1.786 0.231,0.108 0.277,0.331 0.156,0.551 -0.227,0.415 -1.034,1.678 -0.541,2.274 0.114,0.137 1.989,0.248 2.254,0.262 1.646,0.091 3.288,0.17 4.943,0.088 0.229,-0.012 0.409,0.26 0.316,0.468 -0.238,0.53 1.898,0.868 2.373,0.975 0.185,0.042 0.268,0.288 0.203,0.45 -1.021,2.536 2.739,1.602 4.3,1.356 0.304,-0.048 0.519,0.186 0.435,0.48 -0.245,0.855 -2.132,1.713 0.105,2.027 0.438,0.061 1.056,-0.126 1.715,-0.41 1.028,-1.741 2.751,-3.422 3.908,-4.027 1.479,-0.774 2.982,-0.262 1.843,1.467" /></g><g
                 id="g474"
                 transform="translate(210.9614,179.2156)"><path
                   id="path472"
                   style="fill:#375a64;fill-opacity:1;fill-rule:nonzero;stroke:none"
                   d="M 0,0 C -0.063,0.108 -0.148,0.284 -0.238,0.496 0.371,0.046 0.945,-0.483 1.04,-0.765 1.393,-1.812 0.171,-0.292 0,0 M -0.655,1.732 C -0.934,2.835 -0.967,4.043 0.057,4.177 0.549,4.241 0.199,4.911 -0.169,4.923 -1.552,4.967 -1.984,3.768 -1.804,2.322 -2.439,2.609 -3.039,2.815 -3.518,2.905 -4.416,3.073 -4.997,3.102 -5.294,2.186 -5.471,1.64 -5.032,1.283 -5.066,0.792 -5.116,0.069 -4.392,0.368 -5.479,0.081 -5.754,0.009 -6.422,0.199 -6.742,0.213 -7.836,0.261 -7.935,0.193 -8.6,-0.367 c -0.68,-0.572 1.003,-0.844 -0.993,-0.525 -0.508,0.082 -1.031,0.337 -1.564,0.217 -0.735,-0.166 -1.12,-0.376 -0.999,-1.189 0.054,-0.364 0.842,-0.848 0.837,-1.082 -0.042,-1.756 -1.907,-0.268 -2.624,-0.003 -0.2,0.073 -0.443,-0.053 -0.451,-0.275 -0.032,-0.868 0.579,-1.174 -0.684,-1.254 -0.153,-0.009 -1.021,0.478 -1.299,0.485 -0.814,0.019 -1.556,-1.058 -2.617,-0.97 -0.289,0.024 -0.387,-0.237 -0.3,-0.472 0.293,-0.792 0.722,-1.272 -0.875,-1.956 -0.036,-0.016 -1.88,0.232 -1.838,0.231 -0.459,0.012 -0.166,-0.742 0.188,-0.769 0.73,-0.055 3.196,-1.096 3.926,-0.112 0.538,0.726 -0.523,1.568 -0.258,2.031 -0.174,-0.305 1.407,0.432 1.58,0.491 0.262,0.089 0.9,0.355 1.237,0.338 0.222,-0.01 0.406,-0.358 0.64,-0.356 0.309,0.003 0.637,-0.149 0.917,0.017 0.213,0.126 0.346,0.516 0.458,0.59 0.281,0.185 -0.363,0.409 0.189,0.599 0.401,0.138 0.747,-0.268 1.122,-0.386 0.596,-0.188 1.5,-0.629 2.011,0.012 0.664,0.832 -0.557,1.41 -0.442,1.969 0.255,1.251 2.041,0.304 2.859,0.859 0.126,0.086 0.156,0.246 0.115,0.385 -0.503,1.728 2.632,0.375 3.619,0.558 0.176,0.033 0.363,0.149 0.337,0.359 -0.019,0.16 -0.392,1.073 -0.389,1.087 0.247,1.037 1.674,0.921 2.331,0.746 0.635,-2.103 2.304,-4.225 4.124,-3.658 0.134,0.042 0.242,0.173 0.229,0.319 -0.124,1.396 -1.747,2.832 -3.441,3.813" /></g><g
                 id="g478"
                 transform="translate(191.9407,142.2494)"><path
                   id="path476"
                   style="fill:#375a64;fill-opacity:1;fill-rule:nonzero;stroke:none"
                   d="M 0,0 C 0.465,-0.626 -1.003,-0.118 -1.184,-0.037 -2.051,0.351 -2.626,1.299 -3.143,2.05 -2.688,1.8 -2.278,1.574 -1.981,1.437 -1.177,1.066 -0.543,0.731 0,0 M 0.691,0.46 C -0.014,1.529 -1.317,1.957 -2.43,2.461 -2.886,2.667 -3.4,2.948 -3.938,3.229 -4.644,4.36 -5.576,6.199 -4.34,6.433 -3.601,6.572 -2.169,5.797 -1.369,5.559 -0.921,5.426 -1.024,6.081 -1.338,6.204 -2.699,6.739 -5.301,8.426 -5.861,6.111 -6.012,5.485 -5.866,4.746 -5.546,3.983 -6.229,4.247 -6.913,4.413 -7.551,4.354 -8.192,4.294 -8.741,4.276 -8.966,3.525 -9.089,3.112 -8.911,2.931 -8.885,2.62 -8.845,2.146 -8.374,1.993 -8.239,1.962 -8.314,1.974 -8.522,2 -8.965,2.017 -9.928,2.054 -12.56,2.692 -13.171,1.495 -13.424,1 -12.847,0.314 -12.93,0.128 c -0.039,-0.087 -1.916,-0.719 -2.244,-0.921 -0.147,-0.09 -0.047,-0.611 -0.13,-0.659 -0.285,-0.165 -2.218,0.026 -2.778,-0.019 -1.532,-0.126 -5.316,0.444 -4.82,-1.912 0.053,-0.256 0.257,-0.219 0.306,-0.632 0.039,-0.336 0.082,-0.498 0.115,-0.573 -0.055,0.009 -0.161,-0.039 -0.361,-0.317 -0.129,-0.181 -0.656,-0.125 -0.846,-0.363 -0.726,-0.91 0.383,-1.227 -0.521,-1.794 -1.273,-0.799 -3.926,0.818 -5.222,-0.076 -1.153,-0.796 0.347,-3.083 -1.689,-3.123 -0.448,-0.009 -0.187,-0.673 0.153,-0.703 1.901,-0.166 1.695,0.192 2.061,1.746 0.596,2.535 4.377,0.788 6.502,1.375 0.245,0.068 0.267,0.372 0.153,0.556 -0.557,0.9 0.093,1.397 0.932,1.786 0.231,0.108 0.277,0.331 0.156,0.551 -0.227,0.415 -1.034,1.678 -0.541,2.274 0.114,0.137 1.989,0.248 2.254,0.262 1.646,0.091 3.288,0.17 4.943,0.088 0.229,-0.012 0.409,0.26 0.316,0.468 -0.238,0.53 1.898,0.868 2.373,0.975 0.185,0.042 0.268,0.288 0.203,0.45 -1.021,2.536 2.739,1.602 4.3,1.356 0.304,-0.048 0.519,0.186 0.435,0.48 -0.245,0.855 -2.132,1.713 0.105,2.027 0.438,0.061 1.056,-0.126 1.715,-0.41 1.028,-1.741 2.751,-3.422 3.908,-4.027 1.479,-0.774 2.982,-0.262 1.843,1.467" /></g><g
                 id="g482"
                 transform="translate(211.8822,158.6627)"><path
                   id="path480"
                   style="fill:#375a64;fill-opacity:1;fill-rule:nonzero;stroke:none"
                   d="M 0,0 C -0.063,0.108 -0.148,0.284 -0.238,0.496 0.371,0.046 0.945,-0.483 1.04,-0.765 1.393,-1.812 0.171,-0.292 0,0 M -0.655,1.732 C -0.934,2.835 -0.967,4.043 0.057,4.177 0.549,4.241 0.199,4.911 -0.169,4.923 -1.552,4.967 -1.984,3.768 -1.804,2.322 -2.439,2.609 -3.039,2.815 -3.518,2.905 -4.416,3.073 -4.997,3.102 -5.294,2.186 -5.471,1.64 -5.032,1.283 -5.066,0.792 -5.116,0.069 -4.392,0.368 -5.479,0.081 -5.754,0.009 -6.422,0.199 -6.742,0.213 -7.836,0.261 -7.935,0.193 -8.6,-0.367 c -0.68,-0.572 1.003,-0.844 -0.993,-0.525 -0.508,0.082 -1.031,0.337 -1.564,0.217 -0.735,-0.166 -1.12,-0.376 -0.999,-1.189 0.054,-0.364 0.842,-0.848 0.837,-1.082 -0.042,-1.756 -1.907,-0.268 -2.624,-0.003 -0.2,0.073 -0.443,-0.053 -0.451,-0.275 -0.032,-0.868 0.579,-1.174 -0.684,-1.254 -0.153,-0.009 -1.021,0.478 -1.299,0.485 -0.814,0.019 -1.556,-1.058 -2.617,-0.97 -0.289,0.024 -0.387,-0.237 -0.3,-0.472 0.293,-0.792 0.722,-1.272 -0.875,-1.956 -0.036,-0.016 -1.88,0.232 -1.838,0.231 -0.459,0.012 -0.166,-0.742 0.188,-0.769 0.73,-0.055 3.196,-1.096 3.926,-0.112 0.538,0.726 -0.523,1.568 -0.258,2.031 -0.174,-0.305 1.407,0.432 1.58,0.491 0.262,0.089 0.9,0.355 1.237,0.338 0.222,-0.01 0.406,-0.358 0.64,-0.356 0.309,0.003 0.637,-0.149 0.917,0.017 0.213,0.126 0.346,0.516 0.458,0.59 0.281,0.185 -0.363,0.409 0.189,0.599 0.401,0.138 0.747,-0.268 1.122,-0.386 0.596,-0.188 1.5,-0.629 2.011,0.012 0.664,0.832 -0.557,1.41 -0.442,1.969 0.255,1.251 2.041,0.304 2.859,0.859 0.126,0.086 0.156,0.246 0.115,0.385 -0.503,1.728 2.632,0.375 3.619,0.558 0.176,0.033 0.363,0.149 0.337,0.359 -0.019,0.16 -0.392,1.073 -0.389,1.087 0.247,1.037 1.674,0.921 2.331,0.746 0.635,-2.103 2.304,-4.225 4.124,-3.658 0.134,0.042 0.242,0.173 0.229,0.319 -0.124,1.396 -1.747,2.832 -3.441,3.813" /></g><g
                 id="g486"
                 transform="translate(232.5224,174.7231)"><path
                   id="path484"
                   style="fill:#375a64;fill-opacity:1;fill-rule:nonzero;stroke:none"
                   d="M 0,0 C 0.022,0.141 0.026,0.281 -0.012,0.419 -0.31,1.495 -1.553,0.69 -1.767,0.03 c -0.177,-0.546 0.262,-0.903 0.228,-1.394 -0.05,-0.723 0.673,-0.424 -0.414,-0.71 -0.274,-0.073 -0.942,0.117 -1.262,0.131 -1.095,0.048 -1.193,-0.02 -1.858,-0.58 -0.681,-0.572 1.003,-0.844 -0.993,-0.525 -0.508,0.082 -1.032,0.337 -1.565,0.217 -0.734,-0.166 -1.12,-0.376 -0.999,-1.189 0.055,-0.364 0.843,-0.848 0.838,-1.082 -0.042,-1.756 -1.907,-0.268 -2.625,-0.003 -0.199,0.073 -0.442,-0.053 -0.45,-0.275 -0.033,-0.868 0.579,-1.174 -0.685,-1.254 -0.152,-0.009 -1.021,0.478 -1.298,0.485 -0.814,0.019 -1.556,-1.058 -2.617,-0.97 -0.289,0.024 -0.387,-0.237 -0.301,-0.472 0.293,-0.792 0.723,-1.272 -0.874,-1.956 -0.037,-0.016 -1.88,0.232 -1.838,0.231 -0.459,0.012 -0.166,-0.742 0.188,-0.769 0.729,-0.055 3.196,-1.096 3.926,-0.112 0.538,0.726 -0.523,1.568 -0.258,2.031 -0.175,-0.305 1.407,0.432 1.58,0.491 0.261,0.09 0.9,0.355 1.236,0.338 0.222,-0.01 0.406,-0.357 0.64,-0.356 0.309,0.003 0.638,-0.149 0.918,0.017 0.212,0.126 0.345,0.516 0.458,0.59 0.28,0.185 -0.363,0.41 0.189,0.599 0.401,0.138 0.747,-0.268 1.121,-0.386 0.596,-0.188 1.501,-0.629 2.012,0.012 0.664,0.832 -0.557,1.41 -0.443,1.97 0.256,1.25 2.042,0.303 2.86,0.858 0.126,0.086 0.155,0.246 0.115,0.385 -0.504,1.728 2.632,0.375 3.619,0.558 0.176,0.033 0.363,0.149 0.337,0.359 -0.099,0.805 -0.362,1.369 -0.142,2.226 C -0.081,-0.339 -0.027,-0.169 0,0" /></g></g></g></g></g></g><g
       id="g492"><g
         clip-path="url(#clipPath498)"
         id="g494"><g
           transform="translate(105.2926,386.9378)"
           id="g500"><path
             id="path502"
             style="fill:#ff9090;fill-opacity:1;fill-rule:nonzero;stroke:none"
             d="m 0,0 c 4.659,-5.569 12.356,-13.09 16.723,-18.572 2.293,-2.878 3.594,-6.446 3.542,-10.125 -0.039,-2.73 -0.781,-5.009 -3.451,-3.845 -1.927,0.84 -3.153,1.84 -5.967,4.614 -2.532,2.496 -14.773,13.966 -14.773,13.966 0,0 -2.292,14.097 -6.074,15.245 -3.783,1.148 -7.002,7.183 -7.002,7.183 C -10.829,9.087 -5.913,7.066 0,0" /></g><g
           transform="translate(147.8905,241.3636)"
           id="g504"><path
             id="path506"
             style="fill:#ffaaa8;fill-opacity:1;fill-rule:nonzero;stroke:none"
             d="m 0,0 21.869,-32.013 c 0.636,-0.931 2.09,-0.525 2.151,0.6 l 2.132,38.936 z" /></g><g
           transform="translate(171.911,209.9509)"
           id="g508"><path
             id="path510"
             style="fill:#1a2e35;fill-opacity:1;fill-rule:nonzero;stroke:none"
             d="m 0,0 c -0.062,-1.126 -1.516,-1.532 -2.152,-0.601 l -4.269,6.25 c 2.386,-0.541 4.876,0.296 6.449,2.17 l 0.428,0.51 z" /></g><g
           transform="translate(130.1011,406.4198)"
           id="g512"><path
             id="path514"
             style="fill:#00dfbf;fill-opacity:1;fill-rule:nonzero;stroke:none"
             d="M 0,0 0.962,-3.457 2.14,-7.624 43.944,-157.529 c -1.898,-3.934 -5.561,-6.676 -9.612,-8.245 -6.161,-2.409 -13.239,-2.124 -16.526,0.724 l -41.494,148.799 -2.222,7.973 C -24.185,-13.36 1.661,-5.122 0,0" /></g><g
           transform="translate(133.8126,393.2722)"
           id="g516"><path
             id="path518"
             style="fill:#ececec;fill-opacity:1;fill-rule:nonzero;stroke:none"
             d="m 0,0 2.139,-7.723 c 0.694,-2.218 -3.677,-4.979 -9.044,-7.005 -7.122,-2.709 -15.998,-4.119 -16.923,-1.182 l -1.587,5.69 -0.531,2.044 c 0.925,-2.937 9.803,-1.533 16.925,1.176 5.14,1.948 9.38,4.592 9.067,6.753 L 0.04,-0.224 C 0.047,-0.149 0.031,-0.079 0,0" /></g><g
           transform="translate(134.3292,391.3401)"
           id="g520"><path
             id="path522"
             style="fill:#00dfbf;fill-opacity:1;fill-rule:nonzero;stroke:none"
             d="m 0,0 c 1.623,-5.148 -24.327,-13.329 -25.95,-8.18 l -2.166,7.723 c 1.623,-5.148 27.57,3.032 25.947,8.18 z" /></g><g
           transform="translate(130.1011,406.4198)"
           id="g524"><path
             id="path526"
             style="fill:#ececec;fill-opacity:1;fill-rule:nonzero;stroke:none"
             d="m 0,0 2.14,-7.624 c 1.63,-5.043 -23.341,-13.186 -25.828,-8.627 -0.054,0.073 -0.09,0.175 -0.126,0.277 l -2.096,7.696 C -24.185,-13.36 1.661,-5.122 0,0" /></g><g
           id="g528"><g
             id="g530" /><g
             id="g542"><g
               style="opacity:0.10000598"
               id="g540"
               clip-path="url(#clipPath534)"><g
                 id="g538"
                 transform="translate(106.4134,390.169)"><path
                   id="path536"
                   style="fill:#000000;fill-opacity:1;fill-rule:nonzero;stroke:none"
                   d="M 0,0 -2.222,7.973 C -1.442,5.676 4.265,6.105 10.132,7.732 l 0.003,-0.001 42.954,-158.588 10.257,-29.962 -21.869,32.014 0.018,0.005 c 0,0 -10e-4,0 -10e-4,0 z" /></g></g></g></g><g
           transform="translate(121.0417,438.7761)"
           id="g544"><path
             id="path546"
             style="fill:#ff9090;fill-opacity:1;fill-rule:nonzero;stroke:none"
             d="m 0,0 9.059,-32.356 c 0.713,-2.19 -3.598,-4.949 -8.913,-6.987 -7.116,-2.733 -16.016,-4.203 -16.996,-1.291 -0.015,0.009 -0.015,0.009 -0.02,0.032 l -8.708,31.125 C -28.207,-2.385 -15.348,4.586 -6.775,4.052 -3.565,3.875 -0.981,2.654 0,0" /></g><g
           transform="translate(83.0775,400.5491)"
           id="g548"><path
             id="path550"
             style="fill:#1a2e35;fill-opacity:1;fill-rule:nonzero;stroke:none"
             d="m 0,0 v 0 c -10.101,0 -18.29,8.189 -18.29,18.29 v 1.01 c 0,8.561 6.94,15.501 15.501,15.501 h 5.578 c 8.561,0 15.501,-6.94 15.501,-15.501 V 18.29 C 18.29,8.189 10.101,0 0,0" /></g><g
           transform="translate(57.3615,398.6917)"
           id="g552"><path
             id="path554"
             style="fill:#1a2e35;fill-opacity:1;fill-rule:nonzero;stroke:none"
             d="m 0,0 v 0 c 4.588,0 8.307,3.719 8.307,8.307 v 16.515 0 C 3.719,24.822 0,21.103 0,16.515 Z" /></g><g
           transform="translate(101.9008,219.6236)"
           id="g556"><path
             id="path558"
             style="fill:#1a2e35;fill-opacity:1;fill-rule:nonzero;stroke:none"
             d="m 0,0 c 2.123,-2.325 4.465,-4.187 6.979,-6.07 0.375,-0.282 0.765,-0.58 0.969,-1.002 0.329,-0.684 0.84,-2.379 -2.281,-3.468 -3.048,-1.064 -6.85,-0.815 -9.628,0.924 -2.563,1.604 -2.678,4.941 -5.095,6.844 -1.792,1.411 -4.03,1.773 -5.478,3.615 -1.008,1.282 -0.746,2.99 -0.219,5.103 0.574,2.307 0.838,4.052 1.602,3.875 L -13.277,8.76 c 0.952,-1.52 5.89,-1.969 8.088,-0.92 0,0 3.804,-6.323 5.189,-7.84" /></g><g
           transform="translate(104.0656,217.4662)"
           id="g560"><path
             id="path562"
             style="fill:#ffaaa8;fill-opacity:1;fill-rule:nonzero;stroke:none"
             d="m 0,0 c 0,0.003 0,0.013 0,0.016 -0.742,0.68 -1.469,1.381 -2.165,2.143 -0.893,0.978 -2.792,3.95 -4.03,5.94 -0.753,1.211 -1.682,2.737 -1.722,4.34 -0.051,2.04 0.146,5.67 0.146,5.67 l -7.313,0.482 -0.358,-7.672 v 10e-4 c -0.189,-1.739 1.248,-3.283 3.794,-5.477 2.545,-2.193 5.779,-7.31 8.084,-8.597 C -1.26,-4.441 0.388,-4.393 1.371,-3.735 2.383,-3.057 2.483,-2.537 0,0" /></g><g
           transform="translate(77.5487,212.313)"
           id="g564"><path
             id="path566"
             style="fill:#1a2e35;fill-opacity:1;fill-rule:nonzero;stroke:none"
             d="m 0,0 c 2.123,-2.325 4.465,-4.187 6.979,-6.07 0.375,-0.282 0.765,-0.579 0.969,-1.002 0.329,-0.684 0.84,-2.379 -2.281,-3.468 -3.048,-1.064 -6.85,-0.815 -9.628,0.924 -2.563,1.604 -2.678,4.941 -5.095,6.844 -1.792,1.411 -4.03,1.773 -5.478,3.615 -1.008,1.282 -0.746,2.99 -0.22,5.103 0.574,2.307 0.839,4.052 1.603,3.875 L -13.277,8.76 c 0.952,-1.52 5.89,-1.969 8.088,-0.92 0,0 3.804,-6.323 5.189,-7.84" /></g><g
           transform="translate(79.7135,210.1557)"
           id="g568"><path
             id="path570"
             style="fill:#ffaaa8;fill-opacity:1;fill-rule:nonzero;stroke:none"
             d="m 0,0 c 0,0.003 0,0.013 0,0.016 -0.742,0.68 -1.469,1.381 -2.165,2.143 -0.893,0.978 -2.792,3.95 -4.03,5.94 -0.753,1.211 -1.595,2.816 -1.713,4.416 -0.131,1.791 -0.039,5.517 -0.039,5.517 l -7.312,-0.04 -0.183,-7.073 v 10e-4 c -0.189,-1.739 1.248,-3.283 3.794,-5.477 2.545,-2.193 5.779,-7.31 8.084,-8.597 C -1.26,-4.441 0.388,-4.393 1.371,-3.735 2.383,-3.057 2.483,-2.537 0,0" /></g><g
           transform="translate(64.3643,346.6613)"
           id="g572"><path
             id="path574"
             style="fill:#2b454e;fill-opacity:1;fill-rule:nonzero;stroke:none"
             d="m 0,0 c -6.375,-13.923 0.876,-66.713 0.876,-66.713 -0.192,-2.259 -2.184,-5.768 -2.417,-12.671 -0.3,-8.858 1.272,-41.572 1.272,-41.572 0,0 3.839,-2.325 8.341,-0.166 0,0 7.549,44.406 9.023,56.088 1.285,10.195 3.754,34.158 3.754,34.158 l 5.076,-34.103 c 0,0 -2.608,-5.693 -2.743,-10.833 -0.182,-6.901 0.836,-38.929 0.836,-38.929 0,0 3.089,-1.083 8.475,-0.29 0,0 7.679,43.341 8.4,51.611 0.431,4.94 -3.26,65.506 -3.26,65.506 z" /></g><g
           transform="translate(85.2132,315.7852)"
           id="g576"><path
             id="path578"
             style="fill:#1a2e35;fill-opacity:1;fill-rule:nonzero;stroke:none"
             d="m 0,0 2.07,11.385 c 0,0 8.755,1.813 12.726,5.547 0,0 -4.166,-5.182 -10.354,-6.88 L 2.118,0.096 4.415,-29.659 Z" /></g><g
           transform="translate(76.8066,395.0788)"
           id="g580"><path
             id="path582"
             style="fill:#f5f5f5;fill-opacity:1;fill-rule:nonzero;stroke:none"
             d="m 0,0 v 0 c -5.592,-0.773 -8.592,-2.007 -10.397,-7.263 -1.181,-3.439 -0.861,-8.498 0.327,-11.935 l 4.888,-14.285 c 0,0 -4.822,-7.512 -7.26,-14.935 14.291,-7.976 33.335,-3.734 37.633,2.086 0.181,1.235 -0.977,7.205 -0.631,13.537 0.37,6.752 1.454,14.507 0.393,18.68 -1.972,7.748 -7.38,12.807 -13.469,14.44 z" /></g><g
           transform="translate(95.3588,427.9531)"
           id="g584"><path
             id="path586"
             style="fill:#ffaaa8;fill-opacity:1;fill-rule:nonzero;stroke:none"
             d="m 0,0 c 1.932,-1.142 4.32,-6.001 4.084,-16.187 -0.2,-8.633 -2.998,-10.765 -4.403,-11.38 -1.405,-0.615 -4.115,-0.241 -6.749,0.198 v -5.181 c 0,0 3.64,-4.229 3.411,-6.605 -0.229,-2.375 -5.257,-2.937 -8.664,-0.616 -3.407,2.321 -5.592,5.854 -5.592,5.854 v 12.524 c 0,0 -1.778,-2.375 -4.687,-0.444 -2.909,1.932 -3.02,6.714 -1.329,8.431 1.692,1.717 5.337,1.173 6.016,-1.199 0,0 4.202,-0.153 9.797,2.92 C -2.521,-8.612 -0.372,-3.347 0,0" /></g><g
           transform="translate(89.8041,413.9352)"
           id="g588"><path
             id="path590"
             style="fill:#1a2e35;fill-opacity:1;fill-rule:nonzero;stroke:none"
             d="M 0,0 C 0.031,-0.622 -0.429,-1.149 -1.028,-1.178 -1.627,-1.206 -2.137,-0.725 -2.169,-0.103 -2.2,0.519 -1.74,1.047 -1.141,1.075 -0.542,1.103 -0.031,0.622 0,0" /></g><g
           transform="translate(90.0939,406.6171)"
           id="g592"><path
             id="path594"
             style="fill:#ff9090;fill-opacity:1;fill-rule:nonzero;stroke:none"
             d="M 0,0 2.521,-0.804 C 2.312,-1.526 1.578,-1.931 0.882,-1.709 0.185,-1.487 -0.209,-0.722 0,0" /></g><g
           transform="translate(98.7052,417.2686)"
           id="g596"><path
             id="path598"
             style="fill:#1a2e35;fill-opacity:1;fill-rule:nonzero;stroke:none"
             d="M 0,0 -2.197,1.523 C -1.796,2.15 -0.979,2.317 -0.372,1.897 0.234,1.476 0.401,0.627 0,0" /></g><g
           transform="translate(98.1988,414.72)"
           id="g600"><path
             id="path602"
             style="fill:#1a2e35;fill-opacity:1;fill-rule:nonzero;stroke:none"
             d="M 0,0 C 0.031,-0.622 -0.429,-1.149 -1.028,-1.178 -1.627,-1.206 -2.137,-0.725 -2.169,-0.103 -2.2,0.519 -1.74,1.047 -1.141,1.075 -0.542,1.104 -0.031,0.622 0,0" /></g><g
           transform="translate(93.0773,415.3416)"
           id="g604"><path
             id="path606"
             style="fill:#ff9090;fill-opacity:1;fill-rule:nonzero;stroke:none"
             d="M 0,0 0.173,-6.535 3.612,-5.47 Z" /></g><g
           transform="translate(88.2904,400.5844)"
           id="g608"><path
             id="path610"
             style="fill:#ff9090;fill-opacity:1;fill-rule:nonzero;stroke:none"
             d="m 0,0 c -2.776,0.364 -8.488,2.005 -9.378,4.263 0,0 0.296,-1.419 2.003,-2.881 C -5.669,-0.081 0,-1.728 0,-1.728 Z" /></g><g
           transform="translate(132.2291,353.0028)"
           id="g612"><path
             id="path614"
             style="fill:#ffaaa8;fill-opacity:1;fill-rule:nonzero;stroke:none"
             d="m 0,0 c -1.697,-0.641 -3.399,-0.685 -5.716,-1.778 -2.041,-0.963 -2.899,-1.324 -4.999,-1.426 -2.276,-0.11 -8.64,2.605 -14.238,5.207 -6.604,3.07 -13.627,8.629 -16.33,11.682 -5.486,6.198 -10.17,13.95 -12.588,18.093 -1.992,3.412 -4.045,8.366 -7.187,8.99 -5.503,-0.577 -7.737,-10.16 -4.168,-16.081 3.57,-5.922 9.915,-13.664 16.683,-20.227 3.279,-3.181 9.29,-6.627 17.894,-10.309 6.493,-2.778 11.704,-4.504 17.373,-5.981 1.724,-0.449 2.94,-1.088 6.176,-2.199 1.305,-0.448 2.723,-0.98 4.1,-1.017 1.749,-0.047 3.511,0.104 5.206,0.556 2.133,0.571 4.159,1.635 5.698,3.22 0.846,0.871 1.545,1.907 1.905,3.067 0.36,1.16 0.362,2.452 -0.122,3.566 C 9.589,-4.411 9.466,-4.186 9.269,-4.038 8.913,-3.771 8.42,-3.821 7.98,-3.885 5.52,-4.242 2.92,-4.994 0.446,-5.09 c -2.09,-0.08 -3.578,0.152 -3.314,0.477 0.264,0.325 1.496,0.287 3.083,1.187 1.516,0.86 2.491,2.607 1.942,3.419 C 1.608,0.806 1.696,0.641 0,0" /></g><g
           transform="translate(136.8582,376.0999)"
           id="g616"><path
             id="path618"
             style="fill:#ffaaa8;fill-opacity:1;fill-rule:nonzero;stroke:none"
             d="M 0,0 C 0,0 -2.275,1.81 -6.598,1.099 -8.69,0.755 -7.89,-7.165 -1.159,-9.37 c 4.38,-1.436 5.27,-0.696 6.683,-4.3 0,0 2.644,0.549 2,4.577 C 6.881,-5.065 5.123,-1.392 2.187,2.073 0.257,4.352 0.128,6.269 -0.819,5.62 -1.89,4.886 -1.234,3.005 -1.234,3.005 Z" /></g></g></g><g
       id="g620"><g
         clip-path="url(#clipPath626)"
         id="g622"><g
           transform="translate(414.9799,333.27)"
           id="g628"><path
             id="path630"
             style="fill:#1a2e35;fill-opacity:1;fill-rule:nonzero;stroke:none"
             d="m 0,0 c -16.074,5.919 -41.701,5.919 -57.24,0.001 -15.539,-5.919 -15.539,-15.516 0,-21.435 15.539,-5.919 41.166,-5.918 57.24,0.001 C 16.074,-15.515 16.074,-5.918 0,0" /></g><g
           transform="translate(428.3116,359.2951)"
           id="g632"><path
             id="path634"
             style="fill:#fafafa;fill-opacity:1;fill-rule:nonzero;stroke:none"
             d="m 0,0 -83.5,-0.091 6.329,-98.378 h 0.079 c 0.395,-3.583 3.741,-7.117 10.12,-9.853 13.599,-5.833 36.024,-5.833 50.09,0 6.599,2.736 10.061,6.27 10.468,9.853 h 0.081 z" /></g><g
           transform="translate(344.8125,359.2038)"
           id="g636"><path
             id="path638"
             style="fill:#f0f0f0;fill-opacity:1;fill-rule:nonzero;stroke:none"
             d="m 0,0 1.286,-19.979 c 1.918,-1.33 4.208,-2.594 6.974,-3.74 18.055,-7.477 47.832,-7.477 66.509,0.001 0.807,0.322 1.481,0.675 2.213,1.016 2.977,1.404 5.241,2.948 5.241,2.948 l 1.276,19.845 z" /></g><g
           transform="translate(433.5896,356.3871)"
           id="g640"><path
             id="path642"
             style="fill:#00dfbf;fill-opacity:1;fill-rule:nonzero;stroke:none"
             d="m 0,0 v 15.04 h -9.731 c -1.299,0.683 -2.717,1.343 -4.276,1.967 -18.677,7.477 -48.455,7.477 -66.51,10e-4 -1.503,-0.623 -2.834,-1.287 -4.087,-1.968 h -9.455 V -0.002 c 0,-4.9 4.515,-9.8 13.542,-13.539 18.055,-7.477 47.833,-7.477 66.51,0.001 C -4.668,-9.801 0.001,-4.901 0,0" /></g><g
           transform="translate(419.5818,384.9654)"
           id="g644"><path
             id="path646"
             style="fill:#00dfbf;fill-opacity:1;fill-rule:nonzero;stroke:none"
             d="m 0,0 c -18.677,7.477 -48.454,7.477 -66.509,0.001 -18.056,-7.477 -18.056,-19.602 0,-27.079 18.055,-7.477 47.832,-7.477 66.509,0 C 18.677,-19.6 18.677,-7.477 0,0" /></g><g
           id="g648"><g
             id="g650" /><g
             id="g662"><g
               style="opacity:0.30000299"
               id="g660"
               clip-path="url(#clipPath654)"><g
                 id="g658"
                 transform="translate(419.5818,384.9654)"><path
                   id="path656"
                   style="fill:#ffffff;fill-opacity:1;fill-rule:nonzero;stroke:none"
                   d="m 0,0 c -18.677,7.477 -48.454,7.477 -66.509,0.001 -18.056,-7.477 -18.056,-19.602 0,-27.079 18.055,-7.477 47.832,-7.477 66.509,0 C 18.677,-19.6 18.677,-7.477 0,0" /></g></g></g></g><g
           transform="translate(421.5985,375.6579)"
           id="g664"><path
             id="path666"
             style="fill:#00dfbf;fill-opacity:1;fill-rule:nonzero;stroke:none"
             d="M 0,0 H 0.003 L -3.763,13.747 H -66.319 L -70.091,0 h 0.003 c -1.4,-3.906 1.884,-8.004 9.865,-11.006 13.579,-5.108 35.973,-5.108 50.019,0 C -1.948,-8.004 1.449,-3.906 0,0" /></g><g
           transform="translate(408.6445,396.4054)"
           id="g668"><path
             id="path670"
             style="fill:#00dfbf;fill-opacity:1;fill-rule:nonzero;stroke:none"
             d="m 0,0 c -12.491,4.542 -32.405,4.542 -44.48,0.001 -12.075,-4.542 -12.075,-11.907 0,-16.449 12.075,-4.543 31.989,-4.542 44.48,0 C 12.49,-11.906 12.49,-4.542 0,0" /></g><g
           id="g672"><g
             id="g674" /><g
             id="g686"><g
               style="opacity:0.30000299"
               id="g684"
               clip-path="url(#clipPath678)"><g
                 id="g682"
                 transform="translate(408.6445,396.4054)"><path
                   id="path680"
                   style="fill:#ffffff;fill-opacity:1;fill-rule:nonzero;stroke:none"
                   d="m 0,0 c -12.491,4.542 -32.405,4.542 -44.48,0.001 -12.075,-4.542 -12.075,-11.907 0,-16.449 12.075,-4.543 31.989,-4.542 44.48,0 C 12.49,-11.906 12.49,-4.542 0,0" /></g></g></g></g><g
           transform="translate(413.6806,388.1687)"
           id="g688"><path
             id="path690"
             style="fill:#00dfbf;fill-opacity:1;fill-rule:nonzero;stroke:none"
             d="m 0,0 c -0.022,-0.173 -0.346,-0.756 -1.383,-1.556 -0.972,-0.735 -2.594,-1.664 -5.122,-2.593 -5.512,-1.989 -13.142,-3.156 -20.923,-3.156 -7.781,0 -15.281,1.145 -20.577,3.134 -2.486,0.929 -4.041,1.88 -4.95,2.615 -1.015,0.822 -1.296,1.426 -1.296,1.578 0,0.303 1.08,2.226 6.246,4.171 5.296,1.989 12.796,3.134 20.577,3.134 7.781,0 15.411,-1.145 20.923,-3.155 C -1.318,2.291 -0.022,0.389 0,0" /></g><g
           id="g692"><g
             id="g694" /><g
             id="g706"><g
               style="opacity:0.10000598"
               id="g704"
               clip-path="url(#clipPath698)"><g
                 id="g702"
                 transform="translate(412.2977,386.6129)"><path
                   id="path700"
                   style="fill:#000000;fill-opacity:1;fill-rule:nonzero;stroke:none"
                   d="m 0,0 c -0.973,-0.735 -2.594,-1.664 -5.123,-2.594 -5.511,-1.988 -13.141,-3.155 -20.922,-3.155 -7.781,0 -15.281,1.145 -20.577,3.134 -2.486,0.929 -4.041,1.88 -4.95,2.615 0.909,0.735 2.464,1.686 4.95,2.615 5.296,1.989 12.796,3.134 20.577,3.134 7.781,0 15.411,-1.145 20.922,-3.155 C -2.594,1.664 -0.973,0.757 0,0" /></g></g></g></g><g
           transform="translate(399.7825,386.3311)"
           id="g708"><path
             id="path710"
             style="fill:#1a2e35;fill-opacity:1;fill-rule:nonzero;stroke:none"
             d="M 0,0 C 1.819,1.031 4.031,1.452 4.941,0.941 5.85,0.429 5.113,-0.832 3.293,-1.877 1.475,-2.921 -0.738,-3.343 -1.647,-2.818 -2.556,-2.292 -1.819,-1.031 0,0" /></g><g
           transform="translate(348.4289,286.9072)"
           id="g712"><path
             id="path714"
             style="fill:#375a64;fill-opacity:1;fill-rule:nonzero;stroke:none"
             d="m 0,0 c 0,-3.655 3.66,-7.309 10.979,-10.097 14.64,-5.576 38.783,-5.576 53.927,0 7.558,2.784 11.344,6.43 11.356,10.078 l 2.344,35.664 c 0,-3.878 -4.019,-7.757 -12.055,-10.716 -16.074,-5.919 -41.701,-5.919 -57.24,0 -7.77,2.96 -11.655,6.839 -11.655,10.718 z" /></g><g
           transform="translate(381.499,284.7984)"
           id="g716"><path
             id="path718"
             style="fill:#1a2e35;fill-opacity:1;fill-rule:nonzero;stroke:none"
             d="m 0,0 c -1.359,1.828 -2.11,4.074 -3.21,6.053 -2.192,3.942 -5.323,6.621 -9.327,8.213 -0.536,0.213 -1.198,-0.008 -1.452,-0.526 -2.028,-4.128 -0.784,-9.908 3.413,-14.106 4.156,-4.155 9.878,-5.44 13.999,-3.501 0.234,0.11 0.298,0.565 0.109,0.676 C 2.205,-2.419 1.021,-1.374 0,0" /></g><g
           transform="translate(371.1972,300.1956)"
           id="g720"><path
             id="path722"
             style="fill:#1a2e35;fill-opacity:1;fill-rule:nonzero;stroke:none"
             d="m 0,0 c 2.162,-0.825 4.182,-2.126 5.881,-3.618 1.818,-1.597 3.225,-3.635 4.255,-5.824 1.566,-3.326 3.061,-5.383 5.356,-7.095 0.5,-0.373 1.263,-0.272 1.606,0.248 2.741,4.147 1.654,10.505 -2.869,15.029 C 9.943,3.025 3.994,4.256 -0.15,2.047 -0.982,1.603 -0.882,0.336 0,0" /></g></g></g></g></svg>