<?xml version="1.0" encoding="UTF-8" standalone="no"?>
<svg
   xmlns:dc="http://purl.org/dc/elements/1.1/"
   xmlns:cc="http://creativecommons.org/ns#"
   xmlns:rdf="http://www.w3.org/1999/02/22-rdf-syntax-ns#"
   xmlns:svg="http://www.w3.org/2000/svg"
   xmlns="http://www.w3.org/2000/svg"
   xmlns:sodipodi="http://sodipodi.sourceforge.net/DTD/sodipodi-0.dtd"
   xmlns:inkscape="http://www.inkscape.org/namespaces/inkscape"
   viewBox="0 0 1000 666.66669"
   height="666.66669"
   width="1000"
   xml:space="preserve"
   id="svg2"
   version="1.1"
   sodipodi:docname="writing.svg"
   inkscape:version="0.92.4 (5da689c313, 2019-01-14)"><sodipodi:namedview
     pagecolor="#ffffff"
     bordercolor="#666666"
     borderopacity="1"
     objecttolerance="10"
     gridtolerance="10"
     guidetolerance="10"
     inkscape:pageopacity="0"
     inkscape:pageshadow="2"
     inkscape:window-width="1366"
     inkscape:window-height="705"
     id="namedview390"
     showgrid="false"
     inkscape:zoom="0.6168125"
     inkscape:cx="452.34245"
     inkscape:cy="333.33334"
     inkscape:window-x="-8"
     inkscape:window-y="-8"
     inkscape:window-maximized="1"
     inkscape:current-layer="svg2" /><metadata
     id="metadata8"><rdf:RDF><cc:Work
         rdf:about=""><dc:format>image/svg+xml</dc:format><dc:type
           rdf:resource="http://purl.org/dc/dcmitype/StillImage" /><dc:title /></cc:Work></rdf:RDF></metadata><defs
     id="defs6"><clipPath
       id="clipPath56"
       clipPathUnits="userSpaceOnUse"><path
         id="path54"
         d="M 0,500 H 750 V 0 H 0 Z" /></clipPath><clipPath
       id="clipPath130"
       clipPathUnits="userSpaceOnUse"><path
         id="path128"
         d="M 0,500 H 750 V 0 H 0 Z" /></clipPath><clipPath
       id="clipPath142"
       clipPathUnits="userSpaceOnUse"><path
         id="path140"
         d="M 0,500 H 750 V 0 H 0 Z" /></clipPath><clipPath
       id="clipPath154"
       clipPathUnits="userSpaceOnUse"><path
         id="path152"
         d="M 0,500 H 750 V 0 H 0 Z" /></clipPath><clipPath
       id="clipPath320"
       clipPathUnits="userSpaceOnUse"><path
         id="path318"
         d="M 191.443,194.885 H 298.475 V 144.433 H 191.443 Z" /></clipPath><clipPath
       id="clipPath336"
       clipPathUnits="userSpaceOnUse"><path
         id="path334"
         d="m 245.32,209.281 h 16.855 V 192.426 H 245.32 Z" /></clipPath><clipPath
       id="clipPath380"
       clipPathUnits="userSpaceOnUse"><path
         id="path378"
         d="M 0,500 H 750 V 0 H 0 Z" /></clipPath><clipPath
       id="clipPath388"
       clipPathUnits="userSpaceOnUse"><path
         id="path386"
         d="m 611.753,105.483 h 64.471 V 75.0929 h -64.471 z" /></clipPath><clipPath
       id="clipPath404"
       clipPathUnits="userSpaceOnUse"><path
         id="path402"
         d="m 644.206,114.155 h 10.153 v -10.153 h -10.153 z" /></clipPath><clipPath
       id="clipPath428"
       clipPathUnits="userSpaceOnUse"><path
         id="path426"
         d="M 0,500 H 750 V 0 H 0 Z" /></clipPath><clipPath
       id="clipPath436"
       clipPathUnits="userSpaceOnUse"><path
         id="path434"
         d="m 601.584,111.273 h 64.471 V 80.8819 h -64.471 z" /></clipPath><clipPath
       id="clipPath452"
       clipPathUnits="userSpaceOnUse"><path
         id="path450"
         d="M 634.037,119.944 H 644.19 V 109.791 H 634.037 Z" /></clipPath><clipPath
       id="clipPath476"
       clipPathUnits="userSpaceOnUse"><path
         id="path474"
         d="M 0,500 H 750 V 0 H 0 Z" /></clipPath><clipPath
       id="clipPath484"
       clipPathUnits="userSpaceOnUse"><path
         id="path482"
         d="m 592.528,116.057 h 64.471 V 85.666 h -64.471 z" /></clipPath><clipPath
       id="clipPath500"
       clipPathUnits="userSpaceOnUse"><path
         id="path498"
         d="m 624.98,124.728 h 10.153 V 114.575 H 624.98 Z" /></clipPath><clipPath
       id="clipPath524"
       clipPathUnits="userSpaceOnUse"><path
         id="path522"
         d="M 0,500 H 750 V 0 H 0 Z" /></clipPath><clipPath
       id="clipPath532"
       clipPathUnits="userSpaceOnUse"><path
         id="path530"
         d="M 582.358,110.102 H 646.83 V 79.7113 h -64.472 z" /></clipPath><clipPath
       id="clipPath548"
       clipPathUnits="userSpaceOnUse"><path
         id="path546"
         d="m 614.811,118.773 h 10.153 V 108.62 h -10.153 z" /></clipPath><clipPath
       id="clipPath566"
       clipPathUnits="userSpaceOnUse"><path
         id="path564"
         d="M 0,500 H 750 V 0 H 0 Z" /></clipPath><clipPath
       id="clipPath578"
       clipPathUnits="userSpaceOnUse"><path
         id="path576"
         d="M 0,500 H 750 V 0 H 0 Z" /></clipPath><clipPath
       id="clipPath746"
       clipPathUnits="userSpaceOnUse"><path
         id="path744"
         d="M 0,500 H 750 V 0 H 0 Z" /></clipPath></defs><g
     transform="matrix(1.4073984,0,0,-1.5162628,-36.323629,704.11867)"
     id="g10"><path
       id="path12"
       style="fill:#ebebeb;fill-opacity:1;fill-rule:nonzero;stroke:none"
       d="M 172.773,209.716 H 53.193 v 214.817 h 119.58 z"
       inkscape:connector-curvature="0" /><path
       id="path14"
       style="fill:#80b3ff;fill-opacity:1;fill-rule:nonzero;stroke:none"
       d="M 166.763,216.114 H 57.971 v 202.189 h 108.792 z"
       inkscape:connector-curvature="0" /><g
       style="fill:#aaccff"
       transform="translate(166.7628,415.9216)"
       id="g16"><path
         id="path18"
         style="fill:#aaccff;fill-opacity:1;fill-rule:nonzero;stroke:none"
         d="M 0,0 -108.792,-138.388 V 2.382 H 0 Z"
         inkscape:connector-curvature="0" /></g><path
       id="path20"
       style="fill:#ebebeb;fill-opacity:1;fill-rule:nonzero;stroke:none"
       d="M 169.126,357.987 H 57.972 v 2.153 h 111.154 z"
       inkscape:connector-curvature="0" /><path
       id="path22"
       style="fill:#ebebeb;fill-opacity:1;fill-rule:nonzero;stroke:none"
       d="M 169.126,309.838 H 57.972 v 2.153 h 111.154 z"
       inkscape:connector-curvature="0" /><path
       id="path24"
       style="fill:#ebebeb;fill-opacity:1;fill-rule:nonzero;stroke:none"
       d="M 169.126,261.689 H 57.972 v 2.152 h 111.154 z"
       inkscape:connector-curvature="0" /><path
       id="path26"
       style="fill:#ebebeb;fill-opacity:1;fill-rule:nonzero;stroke:none"
       d="m 115.115,210.382 h -5.497 v 148.682 h 5.497 z"
       inkscape:connector-curvature="0" /><path
       id="path28"
       style="fill:#ebebeb;fill-opacity:1;fill-rule:nonzero;stroke:none"
       d="m 81.41,359.063 h -2.49 v 59.24 h 2.49 z"
       inkscape:connector-curvature="0" /><path
       id="path30"
       style="fill:#ebebeb;fill-opacity:1;fill-rule:nonzero;stroke:none"
       d="m 102.886,359.063 h -2.49 v 59.24 h 2.49 z"
       inkscape:connector-curvature="0" /><path
       id="path32"
       style="fill:#ebebeb;fill-opacity:1;fill-rule:nonzero;stroke:none"
       d="m 124.362,359.063 h -2.49 v 59.24 h 2.49 z"
       inkscape:connector-curvature="0" /><path
       id="path34"
       style="fill:#ebebeb;fill-opacity:1;fill-rule:nonzero;stroke:none"
       d="m 145.839,359.063 h -2.49 v 59.24 h 2.49 z"
       inkscape:connector-curvature="0" /><path
       id="path36"
       style="fill:#f5f5f5;fill-opacity:1;fill-rule:nonzero;stroke:none"
       d="m 53.193,208.385 h -5.058 v 219.791 h 5.058 z"
       inkscape:connector-curvature="0" /><g
       transform="translate(177.8307,207.779)"
       id="g38"><path
         id="path40"
         style="fill:#e0e0e0;fill-opacity:1;fill-rule:nonzero;stroke:none"
         d="m 0,0 -5.058,1.937 v 218.46 H 0 Z"
         inkscape:connector-curvature="0" /></g><path
       id="path42"
       style="fill:#e0e0e0;fill-opacity:1;fill-rule:nonzero;stroke:none"
       d="M 177.831,424.533 H 48.135 v 5.861 h 129.696 z"
       inkscape:connector-curvature="0" /><path
       id="path44"
       style="fill:#e0e0e0;fill-opacity:1;fill-rule:nonzero;stroke:none"
       d="M 181.255,201.595 H 44.547 v 5.46 h 136.708 z"
       inkscape:connector-curvature="0" /><g
       transform="translate(172.7731,209.7155)"
       id="g46"><path
         id="path48"
         style="fill:#ebebeb;fill-opacity:1;fill-rule:nonzero;stroke:none"
         d="M 0,0 8.481,-2.66 H -128.226 L -119.58,0 Z"
         inkscape:connector-curvature="0" /></g><g
       id="g50"><g
         clip-path="url(#clipPath56)"
         id="g52"><g
           style="fill:#87aade"
           transform="translate(687.1569,290.6203)"
           id="g58"><path
             id="path60"
             style="fill:#87aade;fill-opacity:1;fill-rule:nonzero;stroke:none"
             d="m 0,0 c 0,0 -8.452,0.608 -7.674,-18.352 0.778,-18.961 2.713,-29.06 2.713,-29.06 0,0 -0.249,-4.204 -3.505,-3.379 -3.256,0.826 -9.381,4.917 -12.406,1.859 -3.138,-3.172 -2.022,-8.037 2.14,-13.768 4.162,-5.73 12.818,-18.62 13.596,-19.788 0.764,-1.147 1.072,-3.298 -1.237,-3.091 -2.309,0.206 -17.887,5.487 -19.95,-2.055 -2.063,-7.543 12.153,-21.602 13.678,-23.169 1.525,-1.567 1.607,-2.556 0.989,-3.503 -0.619,-0.948 -5.689,1.32 -10.181,2.64 -4.492,1.321 -9.933,2.064 -10.759,-2.387 -0.825,-4.452 5.437,-17.479 28.886,-31.169 l 11.281,-5.633 10.677,6.811 c 21.963,15.967 26.89,29.555 25.623,33.902 -1.267,4.346 -6.605,3.062 -10.943,1.299 -4.338,-1.763 -9.155,-4.527 -9.866,-3.646 -0.709,0.882 -0.726,1.874 0.633,3.585 1.361,1.712 14.1,17.122 11.293,24.421 -2.807,7.298 -17.78,0.485 -20.055,0.05 -2.277,-0.438 -2.187,1.733 -1.541,2.951 0.658,1.24 7.981,14.932 11.548,21.049 3.568,6.118 4.192,11.07 0.752,13.913 -3.315,2.74 -9.001,-1.943 -12.158,-3.09 -3.156,-1.147 -3.824,3.011 -3.824,3.011 0,0 0.914,10.242 -0.208,29.185 C 8.38,1.529 -0.172,0 -0.172,0"
             inkscape:connector-curvature="0" /></g><g
           transform="translate(687.8248,273.6389)"
           id="g62"><path
             id="path64"
             style="fill:#e0e0e0;fill-opacity:1;fill-rule:nonzero;stroke:none"
             d="m 0,0 c 0,0 0.022,-0.134 0.045,-0.396 0.021,-0.28 0.052,-0.667 0.09,-1.164 0.071,-1.043 0.173,-2.548 0.303,-4.477 0.259,-3.889 0.592,-9.518 0.976,-16.476 0.774,-13.915 1.678,-33.147 2.606,-54.389 0.927,-21.249 1.783,-40.482 2.478,-54.4 0.354,-6.945 0.64,-12.571 0.839,-16.482 0.096,-1.93 0.171,-3.436 0.223,-4.481 0.019,-0.497 0.035,-0.885 0.046,-1.166 0.008,-0.263 0.001,-0.399 0.001,-0.399 0,0 -0.022,0.134 -0.045,0.396 -0.021,0.281 -0.051,0.667 -0.089,1.164 -0.072,1.044 -0.173,2.548 -0.304,4.477 -0.259,3.888 -0.592,9.517 -0.976,16.475 C 5.42,-117.403 4.516,-98.17 3.588,-76.92 2.66,-55.678 1.805,-36.447 1.109,-22.529 0.756,-15.584 0.47,-9.958 0.271,-6.047 0.175,-4.116 0.1,-2.61 0.048,-1.565 0.028,-1.067 0.013,-0.68 0.001,-0.398 -0.007,-0.135 0,0 0,0"
             inkscape:connector-curvature="0" /></g><g
           transform="translate(674.6227,235.6198)"
           id="g66"><path
             id="path68"
             style="fill:#e0e0e0;fill-opacity:1;fill-rule:nonzero;stroke:none"
             d="m 0,0 c 0.021,0.021 0.27,-0.188 0.702,-0.584 0.434,-0.395 1.043,-0.984 1.789,-1.72 1.489,-1.474 3.491,-3.565 5.657,-5.914 2.12,-2.319 4.036,-4.416 5.518,-6.037 0.658,-0.715 1.219,-1.322 1.679,-1.821 0.398,-0.429 0.608,-0.677 0.588,-0.698 -0.021,-0.022 -0.271,0.185 -0.706,0.579 -0.434,0.395 -1.044,0.985 -1.783,1.729 -1.474,1.49 -3.448,3.607 -5.613,5.954 C 5.696,-6.209 3.766,-4.127 2.272,-2.517 1.609,-1.806 1.046,-1.2 0.583,-0.703 0.187,-0.271 -0.021,-0.021 0,0"
             inkscape:connector-curvature="0" /></g><g
           transform="translate(691.6744,219.2184)"
           id="g70"><path
             id="path72"
             style="fill:#e0e0e0;fill-opacity:1;fill-rule:nonzero;stroke:none"
             d="m 0,0 c -0.085,0.083 4.041,4.404 9.214,9.648 5.175,5.247 9.437,9.43 9.522,9.347 0.085,-0.084 -4.04,-4.403 -9.215,-9.65 C 4.349,4.101 0.085,-0.084 0,0"
             inkscape:connector-curvature="0" /></g><g
           transform="translate(691.6285,186.527)"
           id="g74"><path
             id="path76"
             style="fill:#e0e0e0;fill-opacity:1;fill-rule:nonzero;stroke:none"
             d="m 0,0 c -0.014,0.027 0.267,0.204 0.786,0.501 0.603,0.338 1.339,0.751 2.206,1.238 1.862,1.046 4.429,2.5 7.202,4.205 2.78,1.7 5.243,3.324 7.017,4.512 0.827,0.552 1.53,1.021 2.104,1.404 0.5,0.328 0.785,0.498 0.802,0.474 0.018,-0.023 -0.233,-0.24 -0.703,-0.61 -0.471,-0.37 -1.161,-0.893 -2.029,-1.519 C 15.652,8.95 13.208,7.281 10.421,5.576 7.638,3.865 5.039,2.449 3.137,1.47 2.184,0.984 1.407,0.601 0.863,0.352 0.319,0.101 0.013,-0.026 0,0"
             inkscape:connector-curvature="0" /></g><g
           transform="translate(672.9391,197.9675)"
           id="g78"><path
             id="path80"
             style="fill:#e0e0e0;fill-opacity:1;fill-rule:nonzero;stroke:none"
             d="m 0,0 c 0.016,0.026 0.293,-0.105 0.78,-0.366 0.489,-0.26 1.187,-0.649 2.045,-1.136 1.718,-0.977 4.075,-2.35 6.665,-3.89 2.591,-1.541 4.924,-2.957 6.601,-3.999 0.839,-0.522 1.513,-0.95 1.975,-1.255 0.461,-0.304 0.709,-0.485 0.694,-0.51 -0.015,-0.026 -0.292,0.106 -0.78,0.366 -0.488,0.26 -1.186,0.648 -2.045,1.137 -1.717,0.975 -4.075,2.349 -6.665,3.889 -2.59,1.541 -4.923,2.956 -6.6,3.999 C 1.831,-1.243 1.156,-0.814 0.694,-0.511 0.233,-0.206 -0.015,-0.025 0,0"
             inkscape:connector-curvature="0" /></g><g
           transform="translate(669.2321,169.113)"
           id="g82"><path
             id="path84"
             style="fill:#e0e0e0;fill-opacity:1;fill-rule:nonzero;stroke:none"
             d="m 0,0 c 0.015,0.026 0.367,-0.146 0.992,-0.479 0.695,-0.384 1.575,-0.87 2.626,-1.449 2.207,-1.239 5.241,-2.977 8.58,-4.92 3.339,-1.942 6.35,-3.721 8.518,-5.029 1.022,-0.626 1.88,-1.151 2.556,-1.566 0.599,-0.378 0.922,-0.6 0.908,-0.625 -0.015,-0.027 -0.368,0.146 -0.993,0.479 -0.694,0.384 -1.575,0.869 -2.625,1.448 -2.208,1.24 -5.243,2.978 -8.582,4.92 C 8.643,-5.278 5.633,-3.499 3.464,-2.192 2.441,-1.565 1.584,-1.04 0.907,-0.625 0.309,-0.247 -0.016,-0.025 0,0"
             inkscape:connector-curvature="0" /></g><g
           transform="translate(692.9283,155.5436)"
           id="g86"><path
             id="path88"
             style="fill:#e0e0e0;fill-opacity:1;fill-rule:nonzero;stroke:none"
             d="m 0,0 c -0.015,0.025 0.336,0.259 0.98,0.657 0.718,0.437 1.639,0.997 2.743,1.669 2.314,1.41 5.505,3.368 8.965,5.627 3.467,2.254 6.551,4.375 8.775,5.925 1.061,0.737 1.946,1.351 2.637,1.831 0.625,0.43 0.979,0.656 0.997,0.632 0.017,-0.025 -0.303,-0.296 -0.898,-0.767 C 23.604,15.103 22.732,14.436 21.642,13.629 19.461,12.015 16.397,9.85 12.925,7.591 9.456,5.328 6.234,3.408 3.878,2.063 2.698,1.394 1.737,0.862 1.064,0.511 0.393,0.157 0.015,-0.026 0,0"
             inkscape:connector-curvature="0" /></g><g
           transform="translate(709.8834,136.0749)"
           id="g90"><path
             id="path92"
             style="fill:#e0e0e0;fill-opacity:1;fill-rule:nonzero;stroke:none"
             d="m 0,0 h -31.21 l 10.187,-77.107 h 10.836 z"
             inkscape:connector-curvature="0" /></g><g
           transform="translate(680.2936,126.5964)"
           id="g94"><path
             id="path96"
             style="fill:#f5f5f5;fill-opacity:1;fill-rule:nonzero;stroke:none"
             d="m 0,0 c -0.013,-0.008 0.034,-0.109 0.166,-0.274 0.134,-0.164 0.378,-0.377 0.753,-0.539 0.74,-0.323 2.04,-0.348 3.297,0.405 1.26,0.695 2.357,2.06 4.047,2.664 1.675,0.64 3.75,0.524 5.738,-0.114 2.013,-0.623 3.761,-1.641 5.345,-2.589 1.587,-0.945 3.041,-1.787 4.345,-2.332 1.295,-0.566 2.424,-0.826 3.205,-0.927 0.392,-0.052 0.698,-0.067 0.906,-0.062 0.208,10e-4 0.316,0.009 0.317,0.027 0.018,0.102 -1.766,0.086 -4.281,1.291 -1.26,0.576 -2.676,1.437 -4.25,2.404 C 18.021,0.922 16.23,1.985 14.152,2.628 12.1,3.288 9.892,3.408 8.096,2.693 7.197,2.352 6.444,1.815 5.815,1.284 5.178,0.757 4.607,0.261 4.029,-0.101 2.888,-0.838 1.688,-0.869 0.989,-0.628 0.271,-0.378 0.04,0.043 0,0"
             inkscape:connector-curvature="0" /></g><g
           transform="translate(681.4323,112.3952)"
           id="g98"><path
             id="path100"
             style="fill:#f5f5f5;fill-opacity:1;fill-rule:nonzero;stroke:none"
             d="m 0,0 c 0.042,-0.026 0.247,0.317 0.735,0.827 0.496,0.495 1.311,1.143 2.493,1.581 1.17,0.449 2.675,0.716 4.339,0.654 1.672,-0.058 3.495,-0.425 5.432,-0.74 1.934,-0.325 3.849,-0.47 5.561,-0.231 1.71,0.22 3.196,0.713 4.375,1.25 1.181,0.539 2.055,1.129 2.63,1.563 0.577,0.437 0.851,0.731 0.833,0.75 C 26.34,5.739 25.135,4.66 22.79,3.671 21.62,3.188 20.165,2.744 18.503,2.557 16.841,2.351 15.002,2.503 13.079,2.824 11.158,3.137 9.307,3.497 7.582,3.53 5.854,3.569 4.298,3.255 3.093,2.742 1.877,2.241 1.055,1.514 0.588,0.96 0.363,0.672 0.2,0.441 0.116,0.269 0.024,0.101 -0.016,0.009 0,0"
             inkscape:connector-curvature="0" /></g><g
           transform="translate(706.3473,104.7927)"
           id="g102"><path
             id="path104"
             style="fill:#f5f5f5;fill-opacity:1;fill-rule:nonzero;stroke:none"
             d="m 0,0 c 0.012,0.022 -0.276,0.218 -0.859,0.446 -0.581,0.23 -1.468,0.465 -2.587,0.555 -1.117,0.089 -2.457,0.017 -3.91,-0.224 -1.457,-0.236 -3.016,-0.637 -4.655,-0.985 -1.636,-0.346 -3.217,-0.578 -4.647,-0.525 -1.431,0.049 -2.702,0.362 -3.69,0.797 -2.008,0.882 -2.723,2.165 -2.798,2.084 -0.02,-0.011 0.122,-0.333 0.528,-0.815 0.401,-0.48 1.103,-1.094 2.118,-1.595 1.013,-0.498 2.332,-0.862 3.821,-0.94 1.492,-0.081 3.116,0.146 4.773,0.495 1.657,0.353 3.206,0.766 4.63,1.021 1.422,0.262 2.721,0.368 3.809,0.328 C -1.276,0.568 -0.031,-0.094 0,0"
             inkscape:connector-curvature="0" /></g><g
           transform="translate(684.1901,94.0983)"
           id="g106"><path
             id="path108"
             style="fill:#f5f5f5;fill-opacity:1;fill-rule:nonzero;stroke:none"
             d="m 0,0 c 0.015,-0.082 1.114,0.694 3.029,0.306 0.94,-0.17 1.99,-0.646 3.171,-1.182 1.176,-0.549 2.594,-1.018 4.114,-1.135 3.067,-0.294 5.794,0.697 7.467,1.731 0.857,0.508 1.453,1.054 1.858,1.428 0.38,0.405 0.575,0.637 0.549,0.662 C 20.12,1.885 19.3,0.962 17.601,0.031 15.93,-0.894 13.297,-1.786 10.36,-1.503 7.405,-1.335 5.138,0.428 3.089,0.661 2.091,0.811 1.256,0.667 0.735,0.457 0.207,0.251 -0.016,0.019 0,0"
             inkscape:connector-curvature="0" /></g><g
           transform="translate(685.9283,79.2985)"
           id="g110"><path
             id="path112"
             style="fill:#f5f5f5;fill-opacity:1;fill-rule:nonzero;stroke:none"
             d="m 0,0 c -0.001,-0.059 1.047,-0.052 2.602,0.517 1.569,0.524 3.51,1.727 5.778,2.628 1.138,0.433 2.279,0.701 3.316,0.695 1.038,-0.005 1.965,-0.259 2.667,-0.609 1.434,-0.713 1.849,-1.728 1.928,-1.664 0.022,0.01 -0.041,0.265 -0.296,0.659 -0.252,0.391 -0.73,0.902 -1.463,1.323 C 13.803,3.966 12.82,4.276 11.704,4.309 10.584,4.341 9.378,4.069 8.199,3.621 5.85,2.685 3.969,1.446 2.471,0.853 0.99,0.214 -0.012,0.082 0,0"
             inkscape:connector-curvature="0" /></g><g
           transform="translate(687.4586,72.4128)"
           id="g114"><path
             id="path116"
             style="fill:#f5f5f5;fill-opacity:1;fill-rule:nonzero;stroke:none"
             d="m 0,0 c -0.017,-0.063 0.73,-0.333 1.976,-0.642 1.244,-0.309 2.99,-0.639 4.939,-0.833 1.951,-0.189 3.728,-0.206 5.008,-0.144 1.281,0.06 2.067,0.179 2.063,0.244 -0.007,0.154 -3.163,0.02 -7.021,0.408 C 3.106,-0.598 0.037,0.149 0,0"
             inkscape:connector-curvature="0" /></g><path
           id="path118"
           style="fill:#e0e0e0;fill-opacity:1;fill-rule:nonzero;stroke:none"
           d="m 692.171,352.341 h -96.363 v 63.355 h 96.363 z"
           inkscape:connector-curvature="0" /><path
           id="path120"
           style="fill:#fafafa;fill-opacity:1;fill-rule:nonzero;stroke:none"
           d="m 688.768,355.174 h -89.609 v 57.932 h 89.609 z"
           inkscape:connector-curvature="0" /><path
           id="path122"
           style="fill:#e0e0e0;fill-opacity:1;fill-rule:nonzero;stroke:none"
           d="m 658.58,376.048 h -29.232 v 15.941 h 29.232 z"
           inkscape:connector-curvature="0" /></g></g><g
       style="fill:#aaccff"
       id="g124"><g
         style="fill:#aaccff"
         clip-path="url(#clipPath130)"
         id="g126"><g
           style="fill:#aaccff"
           transform="translate(676.5465,282.4597)"
           id="g132"><path
             id="path134"
             style="fill:#aaccff;fill-opacity:1;fill-rule:nonzero;stroke:none"
             d="m 0,0 c -3.427,28.335 -24.189,53.851 -51.237,62.964 -30.816,10.383 -64.409,0.235 -95.108,-10.492 -30.696,-10.727 -63.459,-22.221 -95.008,-14.341 -43.224,10.796 -69.294,53.497 -104.095,81.315 -37.222,29.753 -87.366,42.721 -134.346,34.744 -26.738,-4.54 -53.252,-16.298 -70.169,-37.497 -14.693,-18.411 -31.107,-47.563 -31.821,-71.108 -1.297,-42.791 10.063,-82.953 51.648,-130.822 124.642,-129.62 270.371,-109.693 401.806,-83.992 32.579,6.372 66.57,30.949 94.022,59.455 C -1.997,-76.224 3.985,-32.955 0,0"
             inkscape:connector-curvature="0" /></g></g></g><g
       id="g136"><g
         clip-path="url(#clipPath142)"
         id="g138"><g
           transform="translate(719.2487,57.946)"
           id="g144"><path
             id="path146"
             style="fill:#263238;fill-opacity:1;fill-rule:nonzero;stroke:none"
             d="m 0,0 c 0,-0.144 -154.138,-0.26 -344.232,-0.26 -190.161,0 -344.265,0.116 -344.265,0.26 0,0.145 154.104,0.261 344.265,0.261 C -154.138,0.261 0,0.145 0,0"
             inkscape:connector-curvature="0" /></g></g></g><g
       id="g148"><g
         clip-path="url(#clipPath154)"
         id="g150"><g
           transform="translate(480.234,248.9953)"
           id="g156"><path
             id="path158"
             style="fill:#ebebeb;fill-opacity:1;fill-rule:nonzero;stroke:none"
             d="M 0,0 H -190.138 V 212.756 H 16.22 V 16.22 C 16.22,7.262 8.957,0 0,0"
             inkscape:connector-curvature="0" /></g><g
           transform="translate(479.4127,398.4313)"
           id="g160"><path
             id="path162"
             style="fill:#455a64;fill-opacity:1;fill-rule:nonzero;stroke:none"
             d="m 0,0 c 0,-0.432 -37.298,-0.782 -83.296,-0.782 -46.014,0 -83.304,0.35 -83.304,0.782 0,0.431 37.29,0.781 83.304,0.781 C -37.298,0.781 0,0.431 0,0"
             inkscape:connector-curvature="0" /></g><g
           transform="translate(397.1022,384.0187)"
           id="g164"><path
             id="path166"
             style="fill:#455a64;fill-opacity:1;fill-rule:nonzero;stroke:none"
             d="m 0,0 c 0,-0.432 -18.427,-0.781 -41.153,-0.781 -22.733,0 -41.157,0.349 -41.157,0.781 0,0.431 18.424,0.781 41.157,0.781 C -18.427,0.781 0,0.431 0,0"
             inkscape:connector-curvature="0" /></g><g
           transform="translate(430.027,385.3537)"
           id="g168"><path
             id="path170"
             style="fill:#455a64;fill-opacity:1;fill-rule:nonzero;stroke:none"
             d="m 0,0 c 0,-0.432 -4.881,-0.781 -10.9,-0.781 -6.022,0 -10.902,0.349 -10.902,0.781 0,0.431 4.88,0.781 10.902,0.781 C -4.881,0.781 0,0.431 0,0"
             inkscape:connector-curvature="0" /></g><g
           transform="translate(483.8619,386.2433)"
           id="g172"><path
             id="path174"
             style="fill:#455a64;fill-opacity:1;fill-rule:nonzero;stroke:none"
             d="m 0,0 c 0,-0.432 -9.662,-0.781 -21.578,-0.781 -11.919,0 -21.579,0.349 -21.579,0.781 0,0.431 9.66,0.781 21.579,0.781 C -9.662,0.781 0,0.431 0,0"
             inkscape:connector-curvature="0" /></g><g
           transform="translate(390.2291,370.2263)"
           id="g176"><path
             id="path178"
             style="fill:#455a64;fill-opacity:1;fill-rule:nonzero;stroke:none"
             d="m 0,0 c 0,-0.432 -17.332,-0.781 -38.707,-0.781 -21.381,0 -38.709,0.349 -38.709,0.781 0,0.431 17.328,0.781 38.709,0.781 C -17.332,0.781 0,0.431 0,0"
             inkscape:connector-curvature="0" /></g><g
           transform="translate(483.8619,370.6237)"
           id="g180"><path
             id="path182"
             style="fill:#455a64;fill-opacity:1;fill-rule:nonzero;stroke:none"
             d="m 0,0 c 0,-0.432 -18.926,-0.781 -42.266,-0.781 -23.347,0 -42.269,0.349 -42.269,0.781 0,0.431 18.922,0.781 42.269,0.781 C -18.926,0.781 0,0.431 0,0"
             inkscape:connector-curvature="0" /></g><g
           transform="translate(483.8619,356.7448)"
           id="g184"><path
             id="path186"
             style="fill:#455a64;fill-opacity:1;fill-rule:nonzero;stroke:none"
             d="m 0,0 c 0,-0.432 -8.427,-0.781 -18.818,-0.781 -10.396,0 -18.821,0.349 -18.821,0.781 0,0.431 8.425,0.781 18.821,0.781 C -8.427,0.781 0,0.431 0,0"
             inkscape:connector-curvature="0" /></g><g
           transform="translate(405.9987,413.8801)"
           id="g188"><path
             id="path190"
             style="fill:#e8505b;fill-opacity:1;fill-rule:nonzero;stroke:none"
             d="m 0,0 c 0,-0.432 -20.419,-0.781 -45.601,-0.781 -25.191,0 -45.605,0.349 -45.605,0.781 0,0.431 20.414,0.781 45.605,0.781 C -20.419,0.781 0,0.431 0,0"
             inkscape:connector-curvature="0" /></g><g
           transform="translate(532.8639,59.111)"
           id="g192"><path
             id="path194"
             style="fill:#263238;fill-opacity:1;fill-rule:nonzero;stroke:none"
             d="m 0,0 h -399.531 c -8.045,0 -14.567,6.522 -14.567,14.567 v 254.338 c 0,8.045 6.522,14.567 14.567,14.567 H 0 c 8.045,0 14.567,-6.522 14.567,-14.567 V 14.567 C 14.567,6.522 8.045,0 0,0"
             inkscape:connector-curvature="0" /></g><g
           transform="translate(548.067,55.2731)"
           id="g196"><path
             id="path198"
             style="fill:#263238;fill-opacity:1;fill-rule:nonzero;stroke:none"
             d="m 0,0 h -428.831 c -9.829,0 -17.797,7.969 -17.797,17.798 v 7.006 H 17.798 V 17.798 C 17.798,7.969 9.83,0 0,0"
             inkscape:connector-curvature="0" /></g><path
           id="path200"
           style="fill:#455a64;fill-opacity:1;fill-rule:nonzero;stroke:none"
           d="M 535.325,91.932 H 130.872 v 239.389 h 404.453 z"
           inkscape:connector-curvature="0" /><g
           transform="translate(291.4401,80.0768)"
           id="g202"><path
             id="path204"
             style="fill:#455a64;fill-opacity:1;fill-rule:nonzero;stroke:none"
             d="m 0,0 c -0.008,0.005 0.143,0.009 0.446,0.014 0.33,0.003 0.781,0.007 1.36,0.013 1.232,0.007 3.006,0.017 5.281,0.03 4.642,0.019 11.325,0.047 19.598,0.08 16.68,0.036 39.769,0.085 65.524,0.14 l 0.483,0.001 -0.244,-0.418 c -0.824,-1.413 -1.71,-2.929 -2.6,-4.456 -0.934,-1.599 -1.863,-3.189 -2.75,-4.711 l -0.081,-0.137 h -0.16 C 51.22,-9.377 20.785,-9.32 5.763,-9.292 H 5.693 L 5.657,-9.233 C 3.809,-6.229 2.386,-3.914 1.41,-2.327 0.949,-1.572 0.595,-0.991 0.342,-0.578 0.106,-0.188 0,0 0,0 0,0 0.145,-0.21 0.403,-0.606 0.671,-1.021 1.047,-1.604 1.537,-2.36 2.532,-3.909 3.984,-6.167 5.869,-9.101 l -0.106,0.059 c 15.022,0.028 45.457,0.086 81.094,0.152 l -0.239,-0.137 c 0.889,1.522 1.817,3.111 2.75,4.712 0.892,1.525 1.777,3.043 2.602,4.455 l 0.239,-0.417 c -25.65,0.055 -48.645,0.104 -65.256,0.14 -8.313,0.033 -15.026,0.061 -19.69,0.08 -2.31,0.013 -4.112,0.023 -5.364,0.03 -0.598,0.006 -1.064,0.01 -1.404,0.013 C 0.175,-0.009 0,0 0,0"
             inkscape:connector-curvature="0" /></g><g
           transform="translate(118.7658,80.0768)"
           id="g206"><path
             id="path208"
             style="fill:#263238;fill-opacity:1;fill-rule:nonzero;stroke:none"
             d="M 0,0 H 428.666"
             inkscape:connector-curvature="0" /></g><g
           transform="translate(547.4313,80.0768)"
           id="g210"><path
             id="path212"
             style="fill:#455a64;fill-opacity:1;fill-rule:nonzero;stroke:none"
             d="m 0,0 c 0,-0.144 -95.968,-0.261 -214.323,-0.261 -118.395,0 -214.343,0.117 -214.343,0.261 0,0.144 95.948,0.261 214.343,0.261 C -95.968,0.261 0,0.144 0,0"
             inkscape:connector-curvature="0" /></g><g
           transform="translate(438.0309,379.1286)"
           id="g214"><path
             id="path216"
             style="fill:#263238;fill-opacity:1;fill-rule:nonzero;stroke:none"
             d="m 0,0 v 0 c 6.613,0 11.975,-5.361 11.975,-11.974 v -24.571 h -35.807 v 22.668 C -23.832,-6.213 -17.618,0 -9.954,0 Z"
             inkscape:connector-curvature="0" /></g><g
           transform="translate(438.0309,379.1291)"
           id="g218"><path
             id="path220"
             style="fill:#263238;fill-opacity:1;fill-rule:nonzero;stroke:none"
             d="m 0,0 c 0,-0.144 -33.784,-0.231 -75.449,-0.194 -41.679,0.036 -75.455,0.182 -75.455,0.326 0,0.144 33.777,0.231 75.456,0.195 C -33.783,0.29 0,0.144 0,0"
             inkscape:connector-curvature="0" /></g><g
           transform="translate(437.7164,379.1584)"
           id="g222"><path
             id="path224"
             style="fill:#fafafa;fill-opacity:1;fill-rule:nonzero;stroke:none"
             d="m 0,0 -14.932,0.103 -21.69,-0.133 h -159.342 c -13.53,0 -24.498,-10.968 -24.498,-24.498 V -283.275 -287.8 H -14.105 V -13.461 C -13.5,-0.03 0,0 0,0"
             inkscape:connector-curvature="0" /></g><g
           transform="translate(437.7164,379.1584)"
           id="g226"><path
             id="path228"
             style="fill:#263238;fill-opacity:1;fill-rule:nonzero;stroke:none"
             d="m 0,0 c -1.541,-0.054 -3.068,-0.352 -4.538,-0.807 -1.475,-0.448 -2.88,-1.128 -4.135,-2.016 -2.583,-1.718 -4.279,-4.535 -4.947,-7.521 -0.233,-0.738 -0.26,-1.512 -0.353,-2.275 -0.117,-0.761 -0.087,-1.534 -0.087,-2.305 l 0.009,-4.625 0.019,-9.251 0.072,-37.001 0.118,-74.001 0.101,-147.998 v -0.364 h -0.364 l -206.357,-0.133 h -0.498 v 0.497 l 0.167,248.854 c 0.029,5.191 -0.051,10.356 0.068,15.567 0.013,1.316 0.26,2.61 0.463,3.906 l 0.492,1.908 c 0.145,0.641 0.429,1.239 0.637,1.861 0.948,2.444 2.243,4.764 3.907,6.798 3.336,4.04 7.921,7.095 13.029,8.354 1.26,0.376 2.57,0.52 3.867,0.7 1.311,0.07 2.623,0.144 3.914,0.117 l 7.776,-0.006 62.213,-0.047 z m 0,0 -124.426,-0.271 -62.214,-0.047 -7.776,-0.006 c -1.304,0.026 -2.58,-0.051 -3.858,-0.119 -1.266,-0.179 -2.544,-0.319 -3.773,-0.688 -4.982,-1.235 -9.45,-4.223 -12.698,-8.166 -1.62,-1.986 -2.878,-4.249 -3.799,-6.631 -0.202,-0.607 -0.479,-1.189 -0.619,-1.815 l -0.477,-1.859 c -0.194,-1.263 -0.435,-2.523 -0.445,-3.806 -0.111,-5.153 -0.025,-10.361 -0.047,-15.538 l 0.167,-248.854 -0.497,0.497 206.357,-0.134 -0.364,-0.363 0.1,148.005 0.119,73.999 0.072,36.999 0.019,9.25 0.009,4.625 c 0.003,0.771 -0.024,1.542 0.096,2.309 0.096,0.767 0.127,1.545 0.364,2.285 0.682,2.998 2.4,5.823 4.997,7.535 1.261,0.885 2.672,1.561 4.149,2.003 C -3.07,-0.34 -1.542,-0.048 0,0"
             inkscape:connector-curvature="0" /></g><g
           transform="translate(248.3385,331.7604)"
           id="g230"><path
             id="path232"
             style="fill:#e8505b;fill-opacity:1;fill-rule:nonzero;stroke:none"
             d="m 0,0 h 36.01 l 0.057,-12.062 h -1.722 c -0.566,4.316 -2.181,7.235 -4.848,8.758 -1.5,0.84 -3.738,1.298 -6.718,1.377 v -31.508 c 0,-2.202 0.385,-3.663 1.155,-4.383 0.768,-0.722 2.37,-1.082 4.803,-1.082 v -1.519 H 7.418 v 1.519 c 2.336,0 3.889,0.365 4.658,1.095 0.769,0.732 1.153,2.188 1.153,4.37 V -1.927 C 10.31,-2.006 8.07,-2.464 6.513,-3.304 3.65,-4.866 2.034,-7.785 1.665,-12.062 h -1.724 z"
             inkscape:connector-curvature="0" /></g><g
           transform="translate(395.2946,329.0407)"
           id="g234"><path
             id="path236"
             style="fill:#e8505b;fill-opacity:1;fill-rule:nonzero;stroke:none"
             d="m 0,0 c 0,-0.432 -19.864,-0.781 -44.362,-0.781 -24.506,0 -44.366,0.349 -44.366,0.781 0,0.431 19.86,0.781 44.366,0.781 C -19.864,0.781 0,0.431 0,0"
             inkscape:connector-curvature="0" /></g><g
           transform="translate(342.653,314.8649)"
           id="g238"><path
             id="path240"
             style="fill:#455a64;fill-opacity:1;fill-rule:nonzero;stroke:none"
             d="m 0,0 c 0,-0.432 -7.68,-0.781 -17.152,-0.781 -9.475,0 -17.154,0.349 -17.154,0.781 0,0.431 7.679,0.781 17.154,0.781 C -7.68,0.781 0,0.431 0,0"
             inkscape:connector-curvature="0" /></g><g
           transform="translate(299.4127,271.6213)"
           id="g242"><path
             id="path244"
             style="fill:#455a64;fill-opacity:1;fill-rule:nonzero;stroke:none"
             d="m 0,0 c 0,-0.431 -14.586,-0.781 -32.574,-0.781 -17.995,0 -32.578,0.35 -32.578,0.781 0,0.432 14.583,0.781 32.578,0.781 C -14.586,0.781 0,0.432 0,0"
             inkscape:connector-curvature="0" /></g><g
           transform="translate(373.1906,271.6213)"
           id="g246"><path
             id="path248"
             style="fill:#e8505b;fill-opacity:1;fill-rule:nonzero;stroke:none"
             d="m 0,0 c 0,-0.431 -14.586,-0.781 -32.575,-0.781 -17.994,0 -32.577,0.35 -32.577,0.781 0,0.432 14.583,0.781 32.577,0.781 C -14.586,0.781 0,0.432 0,0"
             inkscape:connector-curvature="0" /></g><g
           transform="translate(299.4127,260.0729)"
           id="g250"><path
             id="path252"
             style="fill:#455a64;fill-opacity:1;fill-rule:nonzero;stroke:none"
             d="m 0,0 c 0,-0.432 -14.586,-0.781 -32.574,-0.781 -17.995,0 -32.578,0.349 -32.578,0.781 0,0.431 14.583,0.781 32.578,0.781 C -14.586,0.781 0,0.431 0,0"
             inkscape:connector-curvature="0" /></g><g
           transform="translate(299.4127,248.5241)"
           id="g254"><path
             id="path256"
             style="fill:#e8505b;fill-opacity:1;fill-rule:nonzero;stroke:none"
             d="m 0,0 c 0,-0.432 -14.586,-0.781 -32.574,-0.781 -17.995,0 -32.578,0.349 -32.578,0.781 0,0.432 14.583,0.781 32.578,0.781 C -14.586,0.781 0,0.432 0,0"
             inkscape:connector-curvature="0" /></g><g
           transform="translate(342.653,291.3415)"
           id="g258"><path
             id="path260"
             style="fill:#455a64;fill-opacity:1;fill-rule:nonzero;stroke:none"
             d="m 0,0 c 0,-0.432 -7.68,-0.781 -17.152,-0.781 -9.475,0 -17.154,0.349 -17.154,0.781 0,0.432 7.679,0.781 17.154,0.781 C -7.68,0.781 0,0.432 0,0"
             inkscape:connector-curvature="0" /></g><g
           transform="translate(402.151,271.6213)"
           id="g262"><path
             id="path264"
             style="fill:#455a64;fill-opacity:1;fill-rule:nonzero;stroke:none"
             d="m 0,0 c 0,-0.431 -5.12,-0.781 -11.436,-0.781 -6.316,0 -11.435,0.35 -11.435,0.781 0,0.432 5.119,0.781 11.435,0.781 C -5.12,0.781 0,0.432 0,0"
             inkscape:connector-curvature="0" /></g><g
           transform="translate(408.2701,314.8649)"
           id="g266"><path
             id="path268"
             style="fill:#455a64;fill-opacity:1;fill-rule:nonzero;stroke:none"
             d="m 0,0 c 0,-0.432 -13.179,-0.781 -29.431,-0.781 -16.258,0 -29.434,0.349 -29.434,0.781 0,0.431 13.176,0.781 29.434,0.781 C -13.179,0.781 0,0.431 0,0"
             inkscape:connector-curvature="0" /></g><g
           transform="translate(405.6129,303.6037)"
           id="g270"><path
             id="path272"
             style="fill:#455a64;fill-opacity:1;fill-rule:nonzero;stroke:none"
             d="m 0,0 c 0,-0.432 -21.775,-0.781 -48.631,-0.781 -26.865,0 -48.635,0.349 -48.635,0.781 0,0.431 21.77,0.781 48.635,0.781 C -21.775,0.781 0,0.431 0,0"
             inkscape:connector-curvature="0" /></g><g
           transform="translate(402.151,260.0729)"
           id="g274"><path
             id="path276"
             style="fill:#455a64;fill-opacity:1;fill-rule:nonzero;stroke:none"
             d="m 0,0 c 0,-0.432 -21.069,-0.781 -47.054,-0.781 -25.994,0 -47.058,0.349 -47.058,0.781 0,0.431 21.064,0.781 47.058,0.781 C -21.069,0.781 0,0.431 0,0"
             inkscape:connector-curvature="0" /></g><g
           transform="translate(402.151,226.6393)"
           id="g278"><path
             id="path280"
             style="fill:#e8505b;fill-opacity:1;fill-rule:nonzero;stroke:none"
             d="m 0,0 c 0,-0.432 -19.771,-0.781 -44.153,-0.781 -24.392,0 -44.158,0.349 -44.158,0.781 0,0.432 19.766,0.781 44.158,0.781 C -19.771,0.781 0,0.432 0,0"
             inkscape:connector-curvature="0" /></g><g
           transform="translate(402.151,215.4001)"
           id="g282"><path
             id="path284"
             style="fill:#455a64;fill-opacity:1;fill-rule:nonzero;stroke:none"
             d="m 0,0 c 0,-0.432 -19.771,-0.781 -44.153,-0.781 -24.392,0 -44.158,0.349 -44.158,0.781 0,0.431 19.766,0.781 44.158,0.781 C -19.771,0.781 0,0.431 0,0"
             inkscape:connector-curvature="0" /></g><g
           transform="translate(402.151,204.1599)"
           id="g286"><path
             id="path288"
             style="fill:#455a64;fill-opacity:1;fill-rule:nonzero;stroke:none"
             d="m 0,0 c 0,-0.432 -19.771,-0.781 -44.153,-0.781 -24.392,0 -44.158,0.349 -44.158,0.781 0,0.432 19.766,0.781 44.158,0.781 C -19.771,0.781 0,0.432 0,0"
             inkscape:connector-curvature="0" /></g><g
           transform="translate(402.151,192.9206)"
           id="g290"><path
             id="path292"
             style="fill:#455a64;fill-opacity:1;fill-rule:nonzero;stroke:none"
             d="m 0,0 c 0,-0.432 -19.771,-0.781 -44.153,-0.781 -24.392,0 -44.158,0.349 -44.158,0.781 0,0.432 19.766,0.781 44.158,0.781 C -19.771,0.781 0,0.432 0,0"
             inkscape:connector-curvature="0" /></g><g
           transform="translate(364.6793,181.6813)"
           id="g294"><path
             id="path296"
             style="fill:#455a64;fill-opacity:1;fill-rule:nonzero;stroke:none"
             d="m 0,0 c 0,-0.216 -2.845,-0.411 -7.445,-0.553 -4.6,-0.141 -10.955,-0.228 -17.973,-0.228 -7.021,0 -13.376,0.087 -17.977,0.228 -4.6,0.142 -7.444,0.337 -7.444,0.553 0,0.215 2.844,0.41 7.444,0.552 4.601,0.141 10.956,0.228 17.977,0.228 7.018,0 13.373,-0.087 17.973,-0.228 C -2.845,0.41 0,0.215 0,0"
             inkscape:connector-curvature="0" /></g><g
           transform="translate(386.15,247.9196)"
           id="g298"><path
             id="path300"
             style="fill:#455a64;fill-opacity:1;fill-rule:nonzero;stroke:none"
             d="m 0,0 c 0,-0.432 -17.029,-0.781 -38.031,-0.781 -21.009,0 -38.034,0.349 -38.034,0.781 0,0.432 17.025,0.781 38.034,0.781 C -17.029,0.781 0,0.432 0,0"
             inkscape:connector-curvature="0" /></g><g
           transform="translate(297.8712,225.3708)"
           id="g302"><path
             id="path304"
             style="fill:#e0e0e0;fill-opacity:1;fill-rule:nonzero;stroke:none"
             d="M 0,0 4.686,-86.759 -80.145,-97.384 -80.21,0.735 Z"
             inkscape:connector-curvature="0" /></g><g
           transform="translate(303.1486,230.6472)"
           id="g306"><path
             id="path308"
             style="fill:#f5f5f5;fill-opacity:1;fill-rule:nonzero;stroke:none"
             d="m 0,0 -0.591,-92.035 -115.12,0.74 0.591,92.035 z"
             inkscape:connector-curvature="0" /></g><g
           style="fill:#2c5aa0"
           transform="translate(191.4435,145.1208)"
           id="g310"><path
             id="path312"
             style="fill:#2c5aa0;fill-opacity:1;fill-rule:nonzero;stroke:none"
             d="M 0,0 107.032,-0.688 107.549,79.76 0.517,80.447 Z"
             inkscape:connector-curvature="0" /></g><g
           id="g314"><g
             id="g316" /><g
             id="g328"><g
               style="opacity:0.19999701"
               id="g326"
               clip-path="url(#clipPath320)"><g
                 id="g324"
                 transform="translate(191.4435,145.1208)"><path
                   id="path322"
                   style="fill:#000000;fill-opacity:1;fill-rule:nonzero;stroke:none"
                   d="M 0,0 37.705,49.765 60.661,18.33 76.475,34.954 107.032,-0.688 Z"
                   inkscape:connector-curvature="0" /></g></g></g></g><g
           id="g330"><g
             id="g332" /><g
             id="g344"><g
               style="opacity:0.19999701"
               id="g342"
               clip-path="url(#clipPath336)"><g
                 id="g340"
                 transform="translate(262.1749,200.7995)"><path
                   id="path338"
                   style="fill:#000000;fill-opacity:1;fill-rule:nonzero;stroke:none"
                   d="m 0,0 c -0.03,-4.655 -3.827,-8.403 -8.481,-8.374 -4.655,0.03 -8.404,3.827 -8.374,8.482 0.03,4.655 3.827,8.403 8.481,8.373 C -3.719,8.451 0.03,4.654 0,0"
                   inkscape:connector-curvature="0" /></g></g></g></g><g
           transform="translate(313.6442,116.8962)"
           id="g346"><path
             id="path348"
             style="fill:#263238;fill-opacity:1;fill-rule:nonzero;stroke:none"
             d="m 0,0 c 0,-0.982 -0.796,-1.779 -1.78,-1.779 -0.983,0 -1.779,0.797 -1.779,1.779 0,0.983 0.796,1.78 1.779,1.78 C -0.796,1.78 0,0.983 0,0"
             inkscape:connector-curvature="0" /></g><g
           transform="translate(324.2076,116.8962)"
           id="g350"><path
             id="path352"
             style="fill:#263238;fill-opacity:1;fill-rule:nonzero;stroke:none"
             d="m 0,0 c 0,-0.982 -0.797,-1.779 -1.78,-1.779 -0.983,0 -1.78,0.797 -1.78,1.779 0,0.983 0.797,1.78 1.78,1.78 C -0.797,1.78 0,0.983 0,0"
             inkscape:connector-curvature="0" /></g><g
           transform="translate(334.7711,116.8962)"
           id="g354"><path
             id="path356"
             style="fill:#263238;fill-opacity:1;fill-rule:nonzero;stroke:none"
             d="m 0,0 c 0,-0.982 -0.797,-1.779 -1.779,-1.779 -0.984,0 -1.781,0.797 -1.781,1.779 0,0.983 0.797,1.78 1.781,1.78 C -0.797,1.78 0,0.983 0,0"
             inkscape:connector-curvature="0" /></g><g
           transform="translate(373.6862,158.2595)"
           id="g358"><path
             id="path360"
             style="fill:#e8505b;fill-opacity:1;fill-rule:nonzero;stroke:none"
             d="m 0,0 c 0,-0.431 -14.586,-0.781 -32.575,-0.781 -17.994,0 -32.577,0.35 -32.577,0.781 0,0.432 14.583,0.781 32.577,0.781 C -14.586,0.781 0,0.432 0,0"
             inkscape:connector-curvature="0" /></g><g
           transform="translate(402.6461,146.7116)"
           id="g362"><path
             id="path364"
             style="fill:#455a64;fill-opacity:1;fill-rule:nonzero;stroke:none"
             d="m 0,0 c 0,-0.432 -21.069,-0.781 -47.054,-0.781 -25.993,0 -47.058,0.349 -47.058,0.781 0,0.431 21.065,0.781 47.058,0.781 C -21.069,0.781 0,0.431 0,0"
             inkscape:connector-curvature="0" /></g></g></g><g
       transform="translate(679.0387,127.0251)"
       id="g366"><path
         id="path368"
         style="fill:#f5f5f5;fill-opacity:1;fill-rule:nonzero;stroke:none"
         d="m 0,0 -0.355,-55.438 -69.344,0.445 0.356,55.438 z"
         inkscape:connector-curvature="0" /></g><g
       style="fill:#3771c8"
       transform="translate(611.7526,75.5075)"
       id="g370"><path
         id="path372"
         style="fill:#3771c8;fill-opacity:1;fill-rule:nonzero;stroke:none"
         d="M 0,0 64.472,-0.415 64.783,48.044 0.312,48.458 Z"
         inkscape:connector-curvature="0" /></g><g
       id="g374"><g
         clip-path="url(#clipPath380)"
         id="g376"><g
           id="g382"><g
             id="g384" /><g
             id="g396"><g
               style="opacity:0.19999701"
               id="g394"
               clip-path="url(#clipPath388)"><g
                 id="g392"
                 transform="translate(611.7526,75.5075)"><path
                   id="path390"
                   style="fill:#000000;fill-opacity:1;fill-rule:nonzero;stroke:none"
                   d="M 0,0 22.712,29.976 36.54,11.041 46.065,21.055 64.472,-0.415 Z"
                   inkscape:connector-curvature="0" /></g></g></g></g><g
           id="g398"><g
             id="g400" /><g
             id="g412"><g
               style="opacity:0.19999701"
               id="g410"
               clip-path="url(#clipPath404)"><g
                 id="g408"
                 transform="translate(654.358,109.0456)"><path
                   id="path406"
                   style="fill:#000000;fill-opacity:1;fill-rule:nonzero;stroke:none"
                   d="m 0,0 c -0.018,-2.804 -2.305,-5.062 -5.108,-5.044 -2.804,0.019 -5.062,2.306 -5.044,5.109 0.018,2.804 2.305,5.062 5.109,5.044 C -2.239,5.091 0.019,2.804 0,0"
                   inkscape:connector-curvature="0" /></g></g></g></g></g></g><g
       transform="translate(668.8698,132.8141)"
       id="g414"><path
         id="path416"
         style="fill:#f5f5f5;fill-opacity:1;fill-rule:nonzero;stroke:none"
         d="m 0,0 -0.355,-55.438 -69.344,0.446 0.356,55.437 z"
         inkscape:connector-curvature="0" /></g><g
       style="fill:#3771c8"
       transform="translate(601.5836,81.2966)"
       id="g418"><path
         id="path420"
         style="fill:#3771c8;fill-opacity:1;fill-rule:nonzero;stroke:none"
         d="M 0,0 64.472,-0.415 64.783,48.043 0.312,48.458 Z"
         inkscape:connector-curvature="0" /></g><g
       id="g422"><g
         clip-path="url(#clipPath428)"
         id="g424"><g
           id="g430"><g
             id="g432" /><g
             id="g444"><g
               style="opacity:0.19999701"
               id="g442"
               clip-path="url(#clipPath436)"><g
                 id="g440"
                 transform="translate(601.5836,81.2966)"><path
                   id="path438"
                   style="fill:#000000;fill-opacity:1;fill-rule:nonzero;stroke:none"
                   d="M 0,0 22.712,29.976 36.54,11.041 46.065,21.055 64.472,-0.415 Z"
                   inkscape:connector-curvature="0" /></g></g></g></g><g
           id="g446"><g
             id="g448" /><g
             id="g460"><g
               style="opacity:0.19999701"
               id="g458"
               clip-path="url(#clipPath452)"><g
                 id="g456"
                 transform="translate(644.1891,114.8347)"><path
                   id="path454"
                   style="fill:#000000;fill-opacity:1;fill-rule:nonzero;stroke:none"
                   d="m 0,0 c -0.018,-2.804 -2.305,-5.062 -5.108,-5.044 -2.804,0.019 -5.062,2.306 -5.044,5.109 0.017,2.804 2.305,5.062 5.109,5.044 C -2.239,5.091 0.019,2.804 0,0"
                   inkscape:connector-curvature="0" /></g></g></g></g></g></g><g
       style="fill:#3771c8"
       transform="translate(659.8141,137.5983)"
       id="g462"><path
         id="path464"
         style="fill:#3771c8;fill-opacity:1;fill-rule:nonzero;stroke:none"
         d="m 0,0 -0.356,-55.438 -69.343,0.445 0.355,55.438 z"
         inkscape:connector-curvature="0" /></g><g
       style="fill:#87aade"
       transform="translate(592.528,86.0798)"
       id="g466"><path
         id="path468"
         style="fill:#87aade;fill-opacity:1;fill-rule:nonzero;stroke:none"
         d="M 0,0 64.471,-0.414 64.782,48.044 0.311,48.458 Z"
         inkscape:connector-curvature="0" /></g><g
       id="g470"><g
         clip-path="url(#clipPath476)"
         id="g472"><g
           id="g478"><g
             id="g480" /><g
             id="g492"><g
               style="opacity:0.19999701"
               id="g490"
               clip-path="url(#clipPath484)"><g
                 id="g488"
                 transform="translate(592.528,86.0798)"><path
                   id="path486"
                   style="fill:#000000;fill-opacity:1;fill-rule:nonzero;stroke:none"
                   d="M 0,0 22.711,29.977 36.539,11.042 46.064,21.056 64.471,-0.414 Z"
                   inkscape:connector-curvature="0" /></g></g></g></g><g
           id="g494"><g
             id="g496" /><g
             id="g508"><g
               style="opacity:0.19999701"
               id="g506"
               clip-path="url(#clipPath500)"><g
                 id="g504"
                 transform="translate(635.1334,119.6188)"><path
                   id="path502"
                   style="fill:#000000;fill-opacity:1;fill-rule:nonzero;stroke:none"
                   d="m 0,0 c -0.019,-2.804 -2.306,-5.062 -5.109,-5.044 -2.804,0.019 -5.062,2.306 -5.044,5.109 0.018,2.804 2.305,5.062 5.109,5.043 C -2.24,5.091 0.018,2.804 0,0"
                   inkscape:connector-curvature="0" /></g></g></g></g></g></g><g
       transform="translate(649.6451,131.6432)"
       id="g510"><path
         id="path512"
         style="fill:#f5f5f5;fill-opacity:1;fill-rule:nonzero;stroke:none"
         d="m 0,0 -0.356,-55.438 -69.343,0.446 0.355,55.437 z"
         inkscape:connector-curvature="0" /></g><g
       style="fill:#162d50"
       transform="translate(582.358,80.1257)"
       id="g514"><path
         id="path516"
         style="fill:#162d50;fill-opacity:1;fill-rule:nonzero;stroke:none"
         d="M 0,0 64.472,-0.414 64.783,48.044 0.312,48.458 Z"
         inkscape:connector-curvature="0" /></g><g
       id="g518"><g
         clip-path="url(#clipPath524)"
         id="g520"><g
           id="g526"><g
             id="g528" /><g
             id="g540"><g
               style="opacity:0.19999701"
               id="g538"
               clip-path="url(#clipPath532)"><g
                 id="g536"
                 transform="translate(582.358,80.1257)"><path
                   id="path534"
                   style="fill:#000000;fill-opacity:1;fill-rule:nonzero;stroke:none"
                   d="M 0,0 22.712,29.977 36.54,11.041 46.065,21.055 64.472,-0.414 Z"
                   inkscape:connector-curvature="0" /></g></g></g></g><g
           id="g542"><g
             id="g544" /><g
             id="g556"><g
               style="opacity:0.19999701"
               id="g554"
               clip-path="url(#clipPath548)"><g
                 id="g552"
                 transform="translate(624.9645,113.6638)"><path
                   id="path550"
                   style="fill:#000000;fill-opacity:1;fill-rule:nonzero;stroke:none"
                   d="m 0,0 c -0.019,-2.804 -2.306,-5.062 -5.109,-5.043 -2.804,0.018 -5.062,2.305 -5.044,5.108 0.018,2.804 2.305,5.062 5.109,5.044 C -2.24,5.091 0.018,2.804 0,0"
                   inkscape:connector-curvature="0" /></g></g></g></g></g></g><path
       id="path558"
       style="fill:#263238;fill-opacity:1;fill-rule:nonzero;stroke:none"
       d="m 689.679,57.946 h -40.034 v 53.528 h 40.034 z"
       inkscape:connector-curvature="0" /><g
       style="fill:#2c5aa0"
       id="g560"><g
         style="fill:#2c5aa0"
         clip-path="url(#clipPath566)"
         id="g562"><g
           style="fill:#2c5aa0"
           transform="translate(621.5182,98.8063)"
           id="g568"><path
             id="path570"
             style="fill:#2c5aa0;fill-opacity:1;fill-rule:nonzero;stroke:none"
             d="m 0,0 h -17.023 c -2.036,0 -3.685,1.649 -3.685,3.684 0,2.035 1.649,3.684 3.685,3.684 H 0 C 2.034,7.368 3.684,5.719 3.684,3.684 3.684,1.649 2.034,0 0,0 m -48.547,-40.86 h 80.069 v 53.528 h -80.069 z"
             inkscape:connector-curvature="0" /></g></g></g><g
       id="g572"><g
         clip-path="url(#clipPath578)"
         id="g574"><g
           transform="translate(521.0543,63.5417)"
           id="g580"><path
             id="path582"
             style="fill:#455a64;fill-opacity:1;fill-rule:nonzero;stroke:none"
             d="m 0,0 -74.457,4.559 c -0.47,1.065 -0.782,1.686 -0.782,1.686 l -20.18,-0.402 -6.566,0.402 c 0,0 -0.101,-0.2 -0.26,-0.538 l -67.741,-1.351 c -13.505,0 -27.704,-8.239 -27.704,-18.767 -0.171,-10.021 4.682,-20.898 16.783,-20.651 l 92.295,0.31 92.295,-0.31 c 12.101,-0.247 15.3,7.051 15.319,15.708 C 20.416,-3.231 10.317,-0.135 0,0"
             inkscape:connector-curvature="0" /></g><g
           transform="translate(348.6183,28.4733)"
           id="g584"><path
             id="path586"
             style="fill:#263238;fill-opacity:1;fill-rule:nonzero;stroke:none"
             d="M 0,0 C 0,0 0.15,0.018 0.444,0.026 0.76,0.032 1.193,0.04 1.749,0.051 2.921,0.062 4.609,0.077 6.776,0.098 11.171,0.117 17.502,0.145 25.348,0.179 41.093,0.199 62.915,0.228 87.32,0.26 l -0.259,-0.276 c -0.127,2.024 -0.262,4.189 -0.398,6.371 -0.279,4.465 -0.551,8.857 -0.812,13.035 l 0.23,-0.241 c -22.669,2.523 -42.7,4.752 -57.09,6.353 -7.165,0.82 -12.924,1.478 -16.917,1.935 -1.965,0.236 -3.495,0.419 -4.558,0.546 -0.502,0.066 -0.892,0.117 -1.18,0.154 -0.265,0.037 -0.399,0.06 -0.399,0.068 10e-4,0.008 0.138,0.001 0.405,-0.019 0.288,-0.027 0.68,-0.062 1.184,-0.107 1.066,-0.106 2.599,-0.26 4.568,-0.456 3.997,-0.42 9.762,-1.026 16.934,-1.78 14.395,-1.558 34.432,-3.727 57.109,-6.181 l 0.215,-0.023 0.014,-0.217 C 86.627,15.244 86.903,10.853 87.182,6.388 87.319,4.205 87.454,2.04 87.58,0.017 L 87.597,-0.26 H 87.32 C 62.915,-0.228 41.093,-0.198 25.348,-0.178 17.502,-0.144 11.171,-0.116 6.776,-0.097 4.609,-0.077 2.921,-0.061 1.749,-0.05 1.192,-0.039 0.76,-0.031 0.444,-0.025 0.15,-0.017 0,0 0,0"
             inkscape:connector-curvature="0" /></g><g
           transform="translate(367.6476,54.9509)"
           id="g588"><path
             id="path590"
             style="fill:#263238;fill-opacity:1;fill-rule:nonzero;stroke:none"
             d="M 0,0 C -0.057,-0.069 -0.983,0.677 -2.609,1.668 -4.231,2.662 -6.6,3.84 -9.388,4.646 c -2.791,0.798 -5.424,1.059 -7.326,1.079 -1.905,0.023 -3.085,-0.117 -3.097,-0.028 -0.004,0.036 0.286,0.102 0.818,0.19 0.532,0.095 1.31,0.171 2.276,0.206 1.928,0.075 4.625,-0.131 7.473,-0.946 2.845,-0.823 5.24,-2.081 6.833,-3.168 0.799,-0.543 1.419,-1.02 1.819,-1.384 C -0.188,0.237 0.023,0.027 0,0"
             inkscape:connector-curvature="0" /></g><g
           transform="translate(515.274,58.9118)"
           id="g592"><path
             id="path594"
             style="fill:#263238;fill-opacity:1;fill-rule:nonzero;stroke:none"
             d="m 0,0 c 0.032,-0.14 -14.653,-3.691 -32.798,-7.931 -18.15,-4.241 -32.886,-7.564 -32.918,-7.424 -0.033,0.139 14.65,3.69 32.8,7.931 C -14.771,-3.184 -0.033,0.141 0,0"
             inkscape:connector-curvature="0" /></g><g
           transform="translate(502.8561,60.3464)"
           id="g596"><path
             id="path598"
             style="fill:#263238;fill-opacity:1;fill-rule:nonzero;stroke:none"
             d="m 0,0 c 0.049,-0.161 -2.837,-0.744 -5.754,-2.755 -2.942,-1.975 -4.543,-4.446 -4.676,-4.341 -0.051,0.033 0.275,0.692 1.001,1.627 0.723,0.936 1.883,2.12 3.382,3.145 1.503,1.018 3.03,1.662 4.165,1.991 C -0.744,-0.002 -0.011,0.061 0,0"
             inkscape:connector-curvature="0" /></g><g
           transform="translate(475.1412,144.8786)"
           id="g600"><path
             id="path602"
             style="fill:#ffbe9d;fill-opacity:1;fill-rule:nonzero;stroke:none"
             d="m 0,0 23.585,-41.054 c 2.912,-5.069 3.091,-11.26 0.477,-16.49 -3.036,-6.068 -9.313,-9.827 -16.095,-9.636 l -36.214,1.023 -0.954,13.169 31.894,6.107 -21.504,37.218 z"
             inkscape:connector-curvature="0" /></g><g
           transform="translate(387.2438,74.6247)"
           id="g604"><path
             id="path606"
             style="fill:#ffbe9d;fill-opacity:1;fill-rule:nonzero;stroke:none"
             d="M 0,0 33.301,-8.82 34.024,1.165 3.337,18.989 25.749,60.591 6.938,70.254 -16.646,29.2 C -22.355,18.597 -17.021,5.414 -5.545,1.764 Z"
             inkscape:connector-curvature="0" /></g><g
           style="fill:#2c5aa0"
           transform="translate(465.1276,118.5202)"
           id="g608"><path
             id="path610"
             style="fill:#2c5aa0;fill-opacity:1;fill-rule:nonzero;stroke:none"
             d="m 0,0 22.761,11.986 c 0,0 -3.788,8.017 -9.751,16.261 -7.052,9.749 -17.983,16.566 -30.396,19.159 0,10e-4 -0.001,10e-4 -0.002,10e-4 l -26.179,-0.309 c -3.734,-0.402 -6.787,-1.114 -9.337,-2.149 l 0.018,0.102 C -67.093,41.917 -82.859,10.929 -82.859,10.929 l 20.712,-10.904 0.458,-3.257 c 0.602,-4.289 2.476,-8.319 5.397,-11.61 l -6.032,-39.669 67.221,-1.39 -8.558,28.409 z"
             inkscape:connector-curvature="0" /></g><g
           transform="translate(409.4459,103.4636)"
           id="g612"><path
             id="path614"
             style="fill:#263238;fill-opacity:1;fill-rule:nonzero;stroke:none"
             d="m 0,0 c -0.018,-0.023 -0.391,0.226 -1.001,0.757 -0.614,0.526 -1.44,1.372 -2.286,2.556 -1.688,2.348 -3.195,6.325 -2.805,10.815 0.316,2.212 0.946,4.219 1.537,6.03 0.603,1.809 1.214,3.411 1.746,4.748 0.535,1.336 0.995,2.406 1.328,3.139 0.334,0.732 0.54,1.129 0.572,1.114 0.033,-0.013 -0.11,-0.435 -0.385,-1.19 -0.313,-0.855 -0.705,-1.923 -1.17,-3.194 -0.487,-1.349 -1.06,-2.96 -1.635,-4.765 -0.563,-1.804 -1.172,-3.811 -1.476,-5.946 -0.203,-2.12 0.081,-4.226 0.566,-6.019 C -4.527,6.231 -3.748,4.711 -2.982,3.52 -1.396,1.149 0.085,0.085 0,0"
             inkscape:connector-curvature="0" /></g><g
           transform="translate(399.3698,54.4304)"
           id="g616"><path
             id="path618"
             style="fill:#263238;fill-opacity:1;fill-rule:nonzero;stroke:none"
             d="M 0,0 -3.795,44.246 H 78.087 L 72.661,-0.552 Z"
             inkscape:connector-curvature="0" /></g><g
           transform="translate(441.7291,75.0798)"
           id="g620"><path
             id="path622"
             style="fill:#fafafa;fill-opacity:1;fill-rule:nonzero;stroke:none"
             d="m 0,0 c 0,-2.879 -2.334,-5.214 -5.213,-5.214 -2.88,0 -5.214,2.335 -5.214,5.214 0,2.88 2.334,5.214 5.214,5.214 C -2.334,5.214 0,2.88 0,0"
             inkscape:connector-curvature="0" /></g><g
           transform="translate(435.0826,45.7858)"
           id="g624"><path
             id="path626"
             style="fill:#ffbe9d;fill-opacity:1;fill-rule:nonzero;stroke:none"
             d="m 0,0 13.902,-1.94 v -15.112 l -12.785,0.33 z"
             inkscape:connector-curvature="0" /></g><g
           style="fill:#0055d4"
           transform="translate(448.985,43.8454)"
           id="g628"><path
             id="path630"
             style="fill:#2c5aa0;fill-opacity:1;fill-rule:nonzero;stroke:none"
             d="m 0,0 h 6.25 c 1.217,0 2.412,-0.32 3.465,-0.929 l 3.296,-1.903 c 1.08,-0.623 4.572,-2.365 5.76,-2.747 3.8,-1.221 10.195,-2.864 11.541,-3.902 3.844,-2.966 2.676,-6.472 0.564,-6.838 C 29.021,-16.641 0,-15.111 0,-15.111 Z"
             inkscape:connector-curvature="0" /></g><g
           transform="translate(459.2526,29.9831)"
           id="g632"><path
             id="path634"
             style="fill:#263238;fill-opacity:1;fill-rule:nonzero;stroke:none"
             d="m 0,0 c -0.133,-0.031 -0.611,1.712 -0.674,3.927 -0.07,2.216 0.303,3.984 0.438,3.962 0.149,-0.02 0.013,-1.782 0.084,-3.947 C -0.093,1.778 0.148,0.028 0,0"
             inkscape:connector-curvature="0" /></g><g
           transform="translate(462.2184,30.0661)"
           id="g636"><path
             id="path638"
             style="fill:#263238;fill-opacity:1;fill-rule:nonzero;stroke:none"
             d="M 0,0 C -0.145,0.001 -0.248,1.617 -0.232,3.608 -0.216,5.6 -0.087,7.213 0.057,7.212 0.201,7.211 0.305,5.596 0.289,3.604 0.272,1.612 0.144,-0.001 0,0"
             inkscape:connector-curvature="0" /></g><g
           transform="translate(465.7213,29.4675)"
           id="g640"><path
             id="path642"
             style="fill:#263238;fill-opacity:1;fill-rule:nonzero;stroke:none"
             d="m 0,0 c -0.144,-0.012 -0.39,1.645 -0.55,3.697 -0.16,2.055 -0.174,3.728 -0.03,3.74 0.143,0.01 0.39,-1.645 0.55,-3.699 C 0.13,1.685 0.144,0.011 0,0"
             inkscape:connector-curvature="0" /></g><g
           transform="translate(456.5475,34.0065)"
           id="g644"><path
             id="path646"
             style="fill:#263238;fill-opacity:1;fill-rule:nonzero;stroke:none"
             d="M 0,0 C -0.009,-0.027 -0.481,0.067 -1.282,0.402 -2.078,0.738 -3.213,1.319 -4.404,2.332 -4.7,2.586 -5,2.864 -5.297,3.17 -5.59,3.478 -5.905,3.827 -6.094,4.298 c -0.189,0.467 -0.193,1.076 0.175,1.552 0.184,0.236 0.482,0.392 0.776,0.426 0.296,0.038 0.581,-0.014 0.843,-0.094 2.027,-0.69 3.768,-2.683 4.086,-5.135 0.306,-2.478 -1.025,-4.784 -2.778,-5.938 -0.438,-0.285 -0.901,-0.546 -1.433,-0.642 -0.261,-0.046 -0.542,-0.052 -0.815,0.039 -0.276,0.092 -0.508,0.3 -0.631,0.555 -0.242,0.545 -0.026,1.064 0.184,1.44 0.223,0.395 0.529,0.694 0.803,0.965 1.129,1.093 2.272,1.689 3.072,2.013 0.81,0.321 1.288,0.393 1.294,0.366 0.013,-0.041 -0.444,-0.181 -1.211,-0.552 -0.76,-0.372 -1.84,-1.002 -2.895,-2.088 -0.263,-0.275 -0.531,-0.557 -0.713,-0.9 -0.184,-0.334 -0.302,-0.752 -0.146,-1.053 0.15,-0.32 0.55,-0.428 0.975,-0.335 0.421,0.08 0.843,0.317 1.248,0.591 1.601,1.08 2.812,3.227 2.529,5.475 C -1.01,3.22 -2.635,5.087 -4.445,5.724 -4.886,5.877 -5.335,5.854 -5.564,5.561 -5.803,5.269 -5.834,4.813 -5.69,4.452 -5.381,3.704 -4.69,3.127 -4.161,2.609 -1.872,0.588 0.058,0.102 0,0"
             inkscape:connector-curvature="0" /></g><g
           transform="translate(479.861,27.5261)"
           id="g648"><path
             id="path650"
             style="fill:#263238;fill-opacity:1;fill-rule:nonzero;stroke:none"
             d="m 0,0 c -0.043,0.046 0.414,0.247 0.761,0.95 0.353,0.693 0.285,1.929 -0.409,3.152 -0.681,1.227 -2.095,2.292 -3.862,2.912 -1.766,0.635 -3.875,0.942 -6.002,1.605 -4.269,1.274 -7.879,3.141 -10.326,4.705 -1.227,0.782 -2.174,1.483 -2.814,1.983 -0.635,0.507 -0.969,0.808 -0.948,0.836 0.023,0.029 0.399,-0.217 1.067,-0.672 0.674,-0.448 1.646,-1.097 2.887,-1.832 2.477,-1.472 6.066,-3.263 10.284,-4.521 C -7.269,8.463 -5.181,8.149 -3.343,7.463 -1.513,6.794 -0.019,5.63 0.675,4.279 1.374,2.956 1.392,1.599 0.941,0.857 0.732,0.486 0.476,0.271 0.298,0.146 0.113,0.03 0.008,-0.014 0,0"
             inkscape:connector-curvature="0" /></g><g
           transform="translate(470.3951,155.0651)"
           id="g652"><path
             id="path654"
             style="fill:#f5f5f5;fill-opacity:1;fill-rule:nonzero;stroke:none"
             d="M 0,0 C 0.007,0 0.007,-0.072 -0.001,-0.213 -0.013,-0.378 -0.028,-0.583 -0.047,-0.836 -0.1,-1.42 -0.174,-2.226 -0.268,-3.253 -0.483,-5.4 -0.791,-8.473 -1.179,-12.331 l -0.023,-0.233 -0.21,0.11 c -3.35,1.764 -7.443,3.918 -12.071,6.354 l 0.286,0.08 c -1.99,-3.357 -4.204,-7.093 -6.557,-11.062 l -0.14,-0.237 -0.219,0.168 c -3.451,2.646 -7.176,5.503 -11.042,8.467 l 0.317,10e-4 c -1.535,-1.203 -3.162,-2.478 -4.809,-3.769 -2.227,-1.743 -4.416,-3.458 -6.557,-5.134 l -0.24,-0.188 -0.146,0.268 c -2.177,4.027 -4.269,7.9 -6.246,11.555 l 0.313,-0.106 c -4.814,-2.145 -9.262,-4.127 -13.246,-5.902 l -0.243,-0.108 -0.045,0.26 c -0.77,4.541 -1.44,8.492 -1.999,11.782 l 0.204,-0.115 c -3.228,-1.231 -5.792,-2.209 -7.584,-2.892 -0.856,-0.318 -1.528,-0.567 -2.017,-0.748 -0.211,-0.074 -0.383,-0.133 -0.523,-0.182 -0.118,-0.039 -0.179,-0.056 -0.182,-0.049 -0.003,0.006 0.054,0.036 0.167,0.088 0.137,0.059 0.303,0.131 0.508,0.22 0.482,0.199 1.144,0.473 1.988,0.821 1.781,0.714 4.326,1.736 7.533,3.023 l 0.171,0.069 0.033,-0.184 c 0.589,-3.285 1.295,-7.228 2.108,-11.761 l -0.288,0.152 c 3.975,1.795 8.414,3.8 13.216,5.969 l 0.204,0.093 0.109,-0.199 c 1.984,-3.651 4.087,-7.519 6.272,-11.541 l -0.385,0.08 c 2.139,1.678 4.328,3.394 6.553,5.138 1.649,1.291 3.277,2.566 4.812,3.769 l 0.158,0.124 0.159,-0.123 c 3.861,-2.972 7.579,-5.836 11.026,-8.491 l -0.36,-0.068 c 2.37,3.959 4.602,7.685 6.607,11.033 l 0.106,0.177 0.18,-0.097 c 4.608,-2.474 8.683,-4.664 12.018,-6.455 l -0.232,-0.123 c 0.449,3.853 0.808,6.919 1.058,9.062 0.128,1.025 0.23,1.827 0.303,2.409 0.036,0.251 0.066,0.454 0.089,0.618 C -0.022,-0.069 -0.008,0.001 0,0"
             inkscape:connector-curvature="0" /></g><g
           transform="translate(480.1119,143.9333)"
           id="g656"><path
             id="path658"
             style="fill:#f5f5f5;fill-opacity:1;fill-rule:nonzero;stroke:none"
             d="m 0,0 c 0.008,-0.003 -0.011,-0.102 -0.056,-0.293 -0.052,-0.216 -0.122,-0.496 -0.21,-0.85 -0.202,-0.774 -0.489,-1.869 -0.855,-3.271 -0.775,-2.876 -1.887,-7.009 -3.275,-12.167 l -0.054,-0.197 -0.186,0.089 c -4.01,1.925 -8.792,4.219 -14.105,6.77 l 0.276,0.072 c -3.602,-5.138 -7.609,-10.851 -11.882,-16.945 l -0.174,-0.249 -0.213,0.217 c -3.628,3.677 -7.469,7.569 -11.42,11.573 -0.804,0.815 -1.604,1.627 -2.397,2.432 l 0.323,-0.038 c -5.354,-3.358 -10.517,-6.595 -15.388,-9.65 l -0.22,-0.138 -0.127,0.226 c -2.973,5.249 -5.757,10.166 -8.297,14.651 l 0.261,-0.097 c -6.085,-2.095 -11.433,-3.936 -15.823,-5.447 l -0.151,-0.052 -0.051,0.149 c -1.498,4.347 -2.687,7.792 -3.511,10.183 -0.391,1.161 -0.694,2.064 -0.91,2.708 -0.093,0.289 -0.166,0.519 -0.224,0.699 -0.048,0.158 -0.069,0.239 -0.061,0.242 0.006,0.002 0.042,-0.074 0.103,-0.227 0.067,-0.176 0.155,-0.402 0.264,-0.686 0.235,-0.636 0.565,-1.53 0.988,-2.68 0.857,-2.378 2.092,-5.808 3.649,-10.133 l -0.201,0.096 c 4.38,1.542 9.715,3.421 15.784,5.559 l 0.171,0.059 0.09,-0.158 c 2.557,-4.476 5.359,-9.384 8.35,-14.622 l -0.347,0.088 c 4.866,3.061 10.025,6.306 15.375,9.671 l 0.177,0.11 0.147,-0.148 c 0.793,-0.805 1.593,-1.615 2.397,-2.432 3.947,-4.007 7.785,-7.903 11.409,-11.583 l -0.387,-0.032 c 4.292,6.081 8.316,11.781 11.935,16.908 l 0.108,0.154 0.169,-0.082 c 5.297,-2.584 10.063,-4.911 14.062,-6.862 l -0.239,-0.107 c 1.453,5.14 2.617,9.259 3.426,12.126 0.404,1.391 0.72,2.478 0.943,3.247 0.106,0.348 0.19,0.625 0.254,0.837 C -0.042,-0.093 -0.008,0.002 0,0"
             inkscape:connector-curvature="0" /></g><g
           transform="translate(470.025,213.694)"
           id="g660"><path
             id="path662"
             style="fill:#263238;fill-opacity:1;fill-rule:nonzero;stroke:none"
             d="m 0,0 c -3.997,-0.445 -8.159,0.868 -11.178,3.527 3.644,-1.839 8.497,0.685 9.779,4.56 1.281,3.874 0.23,11.083 -2.951,13.64 -3.026,2.431 -7.222,3.363 -10.972,2.359 -3.75,-1.004 -7.725,-6.705 -8.951,-10.389 l 0.07,-0.112 c -0.576,0.229 -1.158,0.444 -1.743,0.642 -4.154,1.394 -8.592,2.069 -12.944,1.565 -4.352,-0.504 -8.614,-2.233 -11.831,-5.209 l 25.429,-40.87 c 4.618,0.407 8.71,3.521 11.13,7.476 2.42,3.956 3.349,8.66 3.577,13.291 0.057,1.162 0.054,2.336 0.006,3.509 2.725,-0.437 5.452,-0.876 8.178,-1.314 -1.46,1.964 -3.322,3.628 -5.437,4.86 C -5.077,-3.518 -1.661,-2.443 0,0"
             inkscape:connector-curvature="0" /></g><g
           transform="translate(437.8834,150.2624)"
           id="g664"><path
             id="path666"
             style="fill:#ffbe9d;fill-opacity:1;fill-rule:nonzero;stroke:none"
             d="m 0,0 c 6.897,0.148 12.434,5.739 12.514,12.638 l 0.59,50.847 c 0.042,2.101 -1.532,3.884 -3.621,4.106 l -21.477,5.428 c -6.878,0.727 -11.452,-7.742 -11.887,-14.645 -0.483,-7.669 -0.77,-17.051 0.138,-22.773 1.827,-11.506 10.646,-12.971 10.646,-12.971 0.002,0.03 0.007,-4.452 0.034,-9.905 C -13.029,5.579 -7.144,-0.154 0,0"
             inkscape:connector-curvature="0" /></g><g
           transform="translate(418.4645,201.1882)"
           id="g668"><path
             id="path670"
             style="fill:#263238;fill-opacity:1;fill-rule:nonzero;stroke:none"
             d="m 0,0 c -0.027,-0.779 0.609,-1.444 1.423,-1.488 0.812,-0.044 1.494,0.551 1.521,1.33 C 2.972,0.621 2.335,1.288 1.523,1.332 0.71,1.376 0.027,0.779 0,0"
             inkscape:connector-curvature="0" /></g><g
           transform="translate(416.0377,203.7565)"
           id="g672"><path
             id="path674"
             style="fill:#263238;fill-opacity:1;fill-rule:nonzero;stroke:none"
             d="M 0,0 C 0.183,-0.193 1.301,0.635 2.889,0.63 4.476,0.648 5.641,-0.168 5.812,0.026 5.897,0.112 5.711,0.46 5.204,0.829 4.704,1.197 3.853,1.555 2.863,1.551 1.874,1.545 1.042,1.181 0.563,0.809 0.075,0.434 -0.09,0.086 0,0"
             inkscape:connector-curvature="0" /></g><g
           transform="translate(433.5709,201.1882)"
           id="g676"><path
             id="path678"
             style="fill:#263238;fill-opacity:1;fill-rule:nonzero;stroke:none"
             d="m 0,0 c -0.027,-0.779 0.609,-1.444 1.423,-1.488 0.811,-0.044 1.493,0.551 1.521,1.33 C 2.972,0.621 2.334,1.288 1.522,1.332 0.709,1.376 0.027,0.779 0,0"
             inkscape:connector-curvature="0" /></g><g
           transform="translate(431.6461,203.4597)"
           id="g680"><path
             id="path682"
             style="fill:#263238;fill-opacity:1;fill-rule:nonzero;stroke:none"
             d="M 0,0 C 0.184,-0.192 1.303,0.635 2.89,0.631 4.476,0.649 5.642,-0.168 5.813,0.026 5.898,0.113 5.714,0.46 5.204,0.829 4.705,1.197 3.854,1.556 2.864,1.551 1.875,1.546 1.043,1.182 0.564,0.809 0.077,0.435 -0.089,0.086 0,0"
             inkscape:connector-curvature="0" /></g><g
           transform="translate(425.8834,191.6833)"
           id="g684"><path
             id="path686"
             style="fill:#263238;fill-opacity:1;fill-rule:nonzero;stroke:none"
             d="m 0,0 c 0.008,0.091 -0.979,0.261 -2.579,0.466 -0.405,0.042 -0.789,0.122 -0.858,0.398 -0.095,0.294 0.075,0.731 0.271,1.202 0.382,0.982 0.78,2.01 1.199,3.088 1.665,4.396 2.871,8.011 2.694,8.076 C 0.549,13.296 -0.945,9.786 -2.61,5.39 -3.011,4.306 -3.395,3.272 -3.759,2.284 -3.912,1.823 -4.177,1.3 -3.97,0.692 -3.86,0.39 -3.563,0.17 -3.303,0.1 -3.043,0.021 -2.814,0.016 -2.614,0.004 -1.004,-0.083 -0.006,-0.09 0,0"
             inkscape:connector-curvature="0" /></g><g
           transform="translate(424.7867,172.8923)"
           id="g688"><path
             id="path690"
             style="fill:#eb996e;fill-opacity:1;fill-rule:nonzero;stroke:none"
             d="m 0,0 c 0,0 7.741,-0.499 15.41,4.111 0,0 -3.739,-7.904 -15.255,-6.828 z"
             inkscape:connector-curvature="0" /></g><g
           transform="translate(426.5553,187.8561)"
           id="g692"><path
             id="path694"
             style="fill:#eb996e;fill-opacity:1;fill-rule:nonzero;stroke:none"
             d="M 0,0 C 0.571,0.756 1.571,1.17 2.565,1.062 3.254,0.989 3.95,0.656 4.369,0.096 4.787,-0.466 4.875,-1.263 4.495,-1.797 4.066,-2.4 3.171,-2.539 2.413,-2.324 c -0.758,0.216 -1.41,0.715 -2.029,1.212 -0.172,0.137 -0.347,0.281 -0.454,0.469 -0.107,0.189 -0.13,0.435 0.003,0.591"
             inkscape:connector-curvature="0" /></g><g
           transform="translate(430.5573,190.5847)"
           id="g696"><path
             id="path698"
             style="fill:#263238;fill-opacity:1;fill-rule:nonzero;stroke:none"
             d="m 0,0 c -0.259,0.016 -0.262,-1.708 -1.737,-2.932 -1.473,-1.227 -3.31,-1.034 -3.324,-1.274 -0.024,-0.108 0.41,-0.335 1.185,-0.356 0.761,-0.026 1.871,0.218 2.774,0.966 0.9,0.75 1.288,1.751 1.346,2.459 C 0.31,-0.417 0.117,0.01 0,0"
             inkscape:connector-curvature="0" /></g><g
           transform="translate(430.9323,206.2399)"
           id="g700"><path
             id="path702"
             style="fill:#263238;fill-opacity:1;fill-rule:nonzero;stroke:none"
             d="M 0,0 C 0.156,-0.432 1.742,-0.228 3.604,-0.451 5.473,-0.639 6.975,-1.185 7.222,-0.797 7.332,-0.611 7.07,-0.206 6.463,0.213 5.861,0.63 4.9,1.026 3.782,1.151 2.663,1.273 1.64,1.096 0.961,0.819 0.277,0.544 -0.067,0.205 0,0"
             inkscape:connector-curvature="0" /></g><g
           transform="translate(416.2594,206.6862)"
           id="g704"><path
             id="path706"
             style="fill:#263238;fill-opacity:1;fill-rule:nonzero;stroke:none"
             d="M 0,0 C 0.279,-0.361 1.373,0.014 2.688,0.031 4.003,0.095 5.118,-0.211 5.374,0.166 5.486,0.349 5.312,0.71 4.824,1.052 4.345,1.392 3.543,1.67 2.639,1.643 1.735,1.614 0.951,1.287 0.494,0.918 0.029,0.547 -0.123,0.176 0,0"
             inkscape:connector-curvature="0" /></g><g
           transform="translate(449.7135,199.4479)"
           id="g708"><path
             id="path710"
             style="fill:#ffbe9d;fill-opacity:1;fill-rule:nonzero;stroke:none"
             d="m 0,0 c 0.871,0.604 2.091,0.381 3.009,-0.15 2.114,-1.223 3.165,-4.019 2.38,-6.331 -0.785,-2.313 -3.321,-3.892 -5.743,-3.576"
             inkscape:connector-curvature="0" /></g><g
           transform="translate(450.5172,192.8229)"
           id="g712"><path
             id="path714"
             style="fill:#eb996e;fill-opacity:1;fill-rule:nonzero;stroke:none"
             d="M 0,0 C 0.033,0.082 0.447,-0.098 1.002,0.157 1.55,0.374 2.047,1.183 1.989,2.123 1.958,3.077 1.341,3.761 0.762,3.969 0.187,4.204 -0.237,4.089 -0.262,4.178 -0.302,4.234 0.13,4.54 0.89,4.37 1.255,4.285 1.682,4.066 2.014,3.669 2.344,3.277 2.558,2.732 2.585,2.154 2.669,0.994 1.939,-0.059 1.146,-0.239 0.362,-0.445 -0.062,-0.046 0,0"
             inkscape:connector-curvature="0" /></g><g
           transform="translate(453.6617,190.4938)"
           id="g716"><path
             id="path718"
             style="fill:#455a64;fill-opacity:1;fill-rule:nonzero;stroke:none"
             d="M 0,0 C 0.015,0.018 0.198,-0.112 0.527,-0.372 0.912,-0.686 1.379,-1.066 1.937,-1.522 3.21,-2.604 4.899,-4.039 6.902,-5.74 L 7.069,-5.883 6.928,-6.052 c -1.849,-2.219 -3.908,-5 -6.224,-7.904 -0.524,-0.655 -1.048,-1.297 -1.557,-1.896 l -0.425,-0.502 -0.03,0.657 c -0.209,4.685 -0.37,8.833 -0.462,11.809 -0.034,1.417 -0.062,2.592 -0.084,3.509 -0.009,0.824 0.001,1.276 0.035,1.278 0.033,0.001 0.086,-0.448 0.153,-1.269 0.062,-0.915 0.144,-2.088 0.241,-3.501 0.184,-2.973 0.407,-7.117 0.634,-11.802 l -0.455,0.155 c 0.494,0.604 1.015,1.241 1.544,1.887 2.307,2.895 4.392,5.661 6.294,7.864 L 6.617,-6.078 C 4.663,-4.319 3.014,-2.836 1.771,-1.719 1.244,-1.226 0.805,-0.814 0.44,-0.475 0.139,-0.182 -0.015,-0.018 0,0"
             inkscape:connector-curvature="0" /></g><g
           transform="translate(430.3932,228.3112)"
           id="g720"><path
             id="path722"
             style="fill:#263238;fill-opacity:1;fill-rule:nonzero;stroke:none"
             d="m 0,0 c -2.815,-0.117 -5.654,-0.237 -8.39,-0.917 -2.734,-0.68 -5.393,-1.967 -7.254,-4.084 -1.86,-2.117 -2.808,-5.146 -2.003,-7.847 0.803,-2.701 3.577,-4.817 6.37,-4.443 2.121,0.284 4.155,1.854 6.202,1.23 1.933,-0.588 2.999,-2.949 4.987,-3.316 1.963,-0.363 3.71,1.399 5.698,1.571 2.195,0.191 4.099,-1.61 5.076,-3.584 0.976,-1.973 1.346,-4.204 2.327,-6.175 0.627,-1.26 1.601,-2.469 2.964,-2.821 1.251,-0.323 2.612,0.16 3.586,1.009 0.975,0.849 1.614,2.019 2.102,3.216 2.071,5.085 1.623,11.129 -1.177,15.852 -2.8,4.725 -7.886,8.02 -13.342,8.643"
             inkscape:connector-curvature="0" /></g><g
           style="fill:#3771c8"
           transform="translate(458.4293,216.0905)"
           id="g724"><path
             id="path726"
             style="fill:#3771c8;fill-opacity:1;fill-rule:nonzero;stroke:none"
             d="m 0,0 c -0.09,-0.026 -0.357,0.928 -1.063,2.336 -0.701,1.408 -1.925,3.236 -3.703,4.85 -1.785,1.605 -3.727,2.638 -5.199,3.193 -1.473,0.56 -2.448,0.73 -2.431,0.822 0.005,0.035 0.252,0.02 0.699,-0.039 0.447,-0.049 1.086,-0.194 1.854,-0.436 1.539,-0.477 3.582,-1.495 5.427,-3.155 C -2.58,5.905 -1.361,3.976 -0.73,2.493 -0.412,1.753 -0.203,1.132 -0.108,0.691 -0.005,0.254 0.035,0.009 0,0"
             inkscape:connector-curvature="0" /></g><g
           transform="translate(467.2311,232.945)"
           id="g728"><path
             id="path730"
             style="fill:#455a64;fill-opacity:1;fill-rule:nonzero;stroke:none"
             d="m 0,0 c -0.045,-0.092 -1.009,0.541 -2.771,0.859 -1.738,0.332 -4.311,0.199 -6.749,-1.015 -2.439,-1.223 -4.158,-3.103 -5.215,-4.538 -1.068,-1.45 -1.566,-2.463 -1.645,-2.422 -0.03,0.014 0.061,0.283 0.274,0.748 0.213,0.465 0.562,1.12 1.069,1.886 1.001,1.517 2.734,3.512 5.285,4.792 2.558,1.275 5.268,1.35 7.055,0.91 C -1.796,1.007 -1.102,0.712 -0.654,0.458 -0.205,0.206 0.016,0.025 0,0"
             inkscape:connector-curvature="0" /></g><g
           transform="translate(456.1686,219.4265)"
           id="g732"><path
             id="path734"
             style="fill:#455a64;fill-opacity:1;fill-rule:nonzero;stroke:none"
             d="M 0,0 C 0.059,0.001 0.152,-0.904 0.018,-2.366 -0.113,-3.825 -0.533,-5.835 -1.42,-7.9 c -0.893,-2.064 -2.067,-3.749 -3.037,-4.846 -0.971,-1.102 -1.694,-1.655 -1.733,-1.612 -0.136,0.111 2.569,2.596 4.292,6.664 C -0.125,-3.651 -0.175,0.022 0,0"
             inkscape:connector-curvature="0" /></g><g
           transform="translate(456.5006,219.1813)"
           id="g736"><path
             id="path738"
             style="fill:#455a64;fill-opacity:1;fill-rule:nonzero;stroke:none"
             d="m 0,0 c 0.034,0.011 0.132,-0.223 0.281,-0.659 0.157,-0.433 0.317,-1.083 0.45,-1.897 0.274,-1.624 0.305,-3.954 -0.31,-6.413 -0.626,-2.457 -1.761,-4.492 -2.774,-5.792 -0.503,-0.652 -0.953,-1.148 -1.296,-1.455 -0.338,-0.312 -0.536,-0.471 -0.561,-0.446 -0.065,0.065 0.647,0.785 1.559,2.117 0.915,1.326 1.959,3.32 2.567,5.704 0.597,2.385 0.625,4.637 0.45,6.237 C 0.196,-0.998 -0.089,-0.025 0,0"
             inkscape:connector-curvature="0" /></g></g></g><g
       id="g740"><g
         clip-path="url(#clipPath746)"
         id="g742"><g
           transform="translate(486.7594,216.5593)"
           id="g748"><path
             id="path750"
             style="fill:#ebebeb;fill-opacity:1;fill-rule:nonzero;stroke:none"
             d="m 0,0 c -2.906,-0.917 -4.165,-5.06 -2.261,-7.438 1.905,-2.38 6.223,-2.058 7.753,0.577 1.531,2.635 -0.328,6.546 -3.338,7.021"
             inkscape:connector-curvature="0" /></g><g
           transform="translate(500.2789,236.2057)"
           id="g752"><path
             id="path754"
             style="fill:#ebebeb;fill-opacity:1;fill-rule:nonzero;stroke:none"
             d="m 0,0 c -3.334,-1.052 -4.779,-5.805 -2.595,-8.534 2.186,-2.73 7.139,-2.361 8.895,0.663 1.757,3.022 -0.376,7.509 -3.829,8.055"
             inkscape:connector-curvature="0" /></g><g
           transform="translate(529.152,322.8098)"
           id="g756"><path
             id="path758"
             style="fill:#f5f5f5;fill-opacity:1;fill-rule:nonzero;stroke:none"
             d="m 0,0 c -9.047,0.765 -18.197,-1.255 -24.4,-7.884 -6.203,-6.629 -9.161,-16.163 -7.798,-25.138 -9.622,-3.999 -14.868,-16.234 -11.13,-25.96 3.737,-9.726 15.828,-15.3 25.651,-11.825 4.414,-11.188 15.016,-19.697 26.893,-21.588 11.878,-1.892 24.597,2.906 32.267,12.17 9.438,-2.133 20.029,-1.993 27.957,3.552 7.929,5.544 11.516,17.745 5.475,25.302 10.871,2.647 16.396,16.224 13.171,26.938 C 84.862,-13.719 75.212,-6.031 64.905,-1.677 58.093,1.2 49.6,2.703 43.788,-1.87 39.136,5.288 30.904,9.985 22.376,10.349 13.848,10.713 5.245,6.735 0,0"
             inkscape:connector-curvature="0" /></g><g
           transform="translate(529.152,322.8098)"
           id="g760"><path
             id="path762"
             style="fill:#263238;fill-opacity:1;fill-rule:nonzero;stroke:none"
             d="m 0,0 c 0,0 0.179,0.241 0.548,0.699 0.358,0.466 0.946,1.117 1.755,1.936 1.634,1.603 4.293,3.846 8.355,5.606 2.024,0.87 4.388,1.619 7.061,1.998 2.668,0.355 5.648,0.383 8.75,-0.268 3.102,-0.608 6.312,-1.865 9.36,-3.787 3.025,-1.946 5.897,-4.587 8.107,-7.957 l -0.256,0.042 c 2.338,1.816 5.386,2.857 8.558,2.937 3.174,0.115 6.446,-0.48 9.642,-1.538 3.2,-1.066 6.363,-2.532 9.444,-4.331 3.075,-1.804 6.075,-3.962 8.756,-6.606 2.704,-2.611 5.051,-5.746 6.764,-9.302 0.819,-1.795 1.502,-3.675 1.926,-5.655 0.355,-1.982 0.568,-4.027 0.404,-6.081 -0.264,-4.094 -1.525,-8.242 -3.907,-11.791 -1.208,-1.749 -2.625,-3.418 -4.396,-4.694 -1.752,-1.29 -3.754,-2.261 -5.896,-2.822 l 0.135,0.399 c 1.302,-1.656 2.225,-3.623 2.686,-5.709 0.468,-2.088 0.493,-4.278 0.157,-6.418 -0.68,-4.288 -2.815,-8.379 -5.975,-11.528 -3.204,-3.153 -7.471,-5.104 -11.904,-6.081 -4.458,-0.975 -9.121,-0.995 -13.705,-0.404 -1.673,0.204 -3.322,0.53 -4.943,0.876 l 0.258,0.088 c -8.305,-9.957 -21.889,-14.428 -33.79,-12.005 -5.958,1.195 -11.421,4.008 -15.856,7.78 -4.442,3.776 -7.881,8.537 -9.937,13.721 l 0.301,-0.137 c -5.691,-1.965 -11.907,-0.959 -16.786,1.755 -4.929,2.687 -8.622,7.309 -9.822,12.448 -1.225,5.137 -0.228,10.422 2.032,14.673 2.266,4.275 5.847,7.588 9.907,9.3 l -0.109,-0.193 c -0.614,4.164 -0.281,8.217 0.623,11.875 0.946,3.654 2.457,6.924 4.315,9.673 0.912,1.388 1.952,2.612 2.987,3.751 1.083,1.095 2.177,2.104 3.347,2.911 2.294,1.677 4.696,2.735 6.895,3.465 4.437,1.435 8.093,1.558 10.511,1.573 C -1.265,0.174 0,0 0,0 0,0 -0.319,0.003 -0.939,0.035 -1.56,0.076 -2.484,0.099 -3.698,0.097 -6.109,0.049 -9.751,-0.107 -14.146,-1.561 c -2.18,-0.74 -4.553,-1.802 -6.817,-3.474 -1.154,-0.804 -2.23,-1.808 -3.297,-2.896 -1.02,-1.133 -2.046,-2.349 -2.942,-3.728 -1.829,-2.731 -3.313,-5.974 -4.237,-9.594 -0.882,-3.623 -1.199,-7.632 -0.581,-11.743 l 0.021,-0.138 -0.13,-0.055 c -3.972,-1.688 -7.478,-4.946 -9.695,-9.151 -2.211,-4.181 -3.174,-9.375 -1.967,-14.388 1.181,-5.012 4.792,-9.524 9.628,-12.151 4.786,-2.655 10.873,-3.622 16.406,-1.703 l 0.217,0.075 0.085,-0.212 c 2.032,-5.105 5.428,-9.799 9.813,-13.52 4.378,-3.718 9.769,-6.486 15.635,-7.659 11.713,-2.383 25.121,2.037 33.29,11.839 l 0.101,0.122 0.157,-0.034 c 1.605,-0.342 3.239,-0.665 4.896,-0.867 4.537,-0.585 9.142,-0.564 13.525,0.394 4.354,0.955 8.547,2.882 11.654,5.942 3.079,3.064 5.172,7.066 5.834,11.241 0.69,4.155 -0.183,8.539 -2.73,11.733 l -0.241,0.301 0.376,0.099 c 2.077,0.544 4.017,1.482 5.72,2.732 1.721,1.238 3.103,2.864 4.285,4.571 2.332,3.464 3.577,7.534 3.839,11.547 0.164,2.015 -0.044,4.017 -0.388,5.958 -0.412,1.932 -1.081,3.787 -1.884,5.553 -1.68,3.5 -3.988,6.597 -6.657,9.183 -2.645,2.618 -5.614,4.761 -8.66,6.556 -3.049,1.791 -6.194,3.255 -9.355,4.316 -3.161,1.054 -6.389,1.647 -9.501,1.541 -3.113,-0.071 -6.077,-1.079 -8.357,-2.837 l -0.152,-0.117 -0.104,0.16 C 41.471,1.365 38.644,3.984 35.659,5.918 32.652,7.829 29.48,9.085 26.413,9.7 23.347,10.357 20.397,10.344 17.751,10.005 15.1,9.645 12.749,8.916 10.733,8.065 6.687,6.345 4.022,4.138 2.372,2.564 1.555,1.76 0.957,1.121 0.586,0.667 0.205,0.22 0,0 0,0"
             inkscape:connector-curvature="0" /></g><g
           transform="translate(590.9879,291.6379)"
           id="g764"><path
             id="path766"
             style="fill:#455a64;fill-opacity:1;fill-rule:nonzero;stroke:none"
             d="m 0,0 c 0,-0.432 -17.733,-0.781 -39.604,-0.781 -21.877,0 -39.607,0.349 -39.607,0.781 0,0.431 17.73,0.781 39.607,0.781 C -17.733,0.781 0,0.431 0,0"
             inkscape:connector-curvature="0" /></g><g
           transform="translate(590.9879,283.0441)"
           id="g768"><path
             id="path770"
             style="fill:#455a64;fill-opacity:1;fill-rule:nonzero;stroke:none"
             d="m 0,0 c 0,-0.431 -17.733,-0.781 -39.604,-0.781 -21.877,0 -39.607,0.35 -39.607,0.781 0,0.432 17.73,0.781 39.607,0.781 C -17.733,0.781 0,0.432 0,0"
             inkscape:connector-curvature="0" /></g><g
           transform="translate(590.9879,274.4509)"
           id="g772"><path
             id="path774"
             style="fill:#455a64;fill-opacity:1;fill-rule:nonzero;stroke:none"
             d="m 0,0 c 0,-0.432 -17.733,-0.781 -39.604,-0.781 -21.877,0 -39.607,0.349 -39.607,0.781 0,0.431 17.73,0.781 39.607,0.781 C -17.733,0.781 0,0.431 0,0"
             inkscape:connector-curvature="0" /></g><g
           transform="translate(590.9879,265.8571)"
           id="g776"><path
             id="path778"
             style="fill:#455a64;fill-opacity:1;fill-rule:nonzero;stroke:none"
             d="m 0,0 c 0,-0.432 -17.733,-0.781 -39.604,-0.781 -21.877,0 -39.607,0.349 -39.607,0.781 0,0.431 17.73,0.781 39.607,0.781 C -17.733,0.781 0,0.431 0,0"
             inkscape:connector-curvature="0" /></g></g></g></g></svg>