<?xml version="1.0" encoding="UTF-8" standalone="no"?>
<svg
   xmlns:dc="http://purl.org/dc/elements/1.1/"
   xmlns:cc="http://creativecommons.org/ns#"
   xmlns:rdf="http://www.w3.org/1999/02/22-rdf-syntax-ns#"
   xmlns:svg="http://www.w3.org/2000/svg"
   xmlns="http://www.w3.org/2000/svg"
   xmlns:sodipodi="http://sodipodi.sourceforge.net/DTD/sodipodi-0.dtd"
   xmlns:inkscape="http://www.inkscape.org/namespaces/inkscape"
   version="1.1"
   id="svg2"
   xml:space="preserve"
   width="50"
   height="50"
   viewBox="0 0 50 50"
   sodipodi:docname="logo.svg"
   inkscape:version="0.92.4 (5da689c313, 2019-01-14)"><metadata
     id="metadata8"><rdf:RDF><cc:Work
         rdf:about=""><dc:format>image/svg+xml</dc:format><dc:type
           rdf:resource="http://purl.org/dc/dcmitype/StillImage" /><dc:title /></cc:Work></rdf:RDF></metadata><defs
     id="defs6"><inkscape:path-effect
       effect="spiro"
       id="path-effect862"
       is_visible="true" /><inkscape:path-effect
       effect="spiro"
       id="path-effect858"
       is_visible="true" /><inkscape:path-effect
       effect="skeletal"
       id="path-effect843"
       is_visible="true"
       pattern="M 0,5 C 0,2.24 2.24,0 5,0 7.76,0 10,2.24 10,5 10,7.76 7.76,10 5,10 2.24,10 0,7.76 0,5 Z"
       copytype="single_stretched"
       prop_scale="1"
       scale_y_rel="false"
       spacing="0"
       normal_offset="0"
       tang_offset="0"
       prop_units="false"
       vertical_pattern="false"
       fuse_tolerance="0" /><inkscape:path-effect
       effect="skeletal"
       id="path-effect867"
       is_visible="true"
       pattern="M 0,5 C 0,2.24 2.24,0 5,0 7.76,0 10,2.24 10,5 10,7.76 7.76,10 5,10 2.24,10 0,7.76 0,5 Z"
       copytype="single_stretched"
       prop_scale="1"
       scale_y_rel="false"
       spacing="0"
       normal_offset="0"
       tang_offset="0"
       prop_units="false"
       vertical_pattern="false"
       fuse_tolerance="0" /></defs><sodipodi:namedview
     pagecolor="#ffffff"
     bordercolor="#666666"
     borderopacity="1"
     objecttolerance="10"
     gridtolerance="10"
     guidetolerance="10"
     inkscape:pageopacity="0"
     inkscape:pageshadow="2"
     inkscape:window-width="1366"
     inkscape:window-height="705"
     id="namedview4"
     showgrid="false"
     inkscape:pagecheckerboard="true"
     inkscape:zoom="8.2316068"
     inkscape:cx="8.6884094"
     inkscape:cy="21.557224"
     inkscape:window-x="-8"
     inkscape:window-y="-8"
     inkscape:window-maximized="1"
     inkscape:current-layer="g827" /><g
     id="g10"
     inkscape:groupmode="layer"
     inkscape:label="ink_ext_XXXXXX"
     transform="matrix(1.3333333,0,0,-1.3333333,0,50)"><g
       id="g12"
       transform="scale(0.1)"><g
         id="g827"
         transform="matrix(0.04212686,0.00811447,-0.00768973,0.03992177,44.828056,-61.475314)"><path
           style="fill:#e6e6e6;stroke:none;stroke-width:179.58332825px;stroke-linecap:butt;stroke-linejoin:miter;stroke-opacity:1"
           d="m 2354.6443,9368.7513 c 632.6773,279.3907 1360.5197,389.6663 2022.5642,189.5745 331.0222,-100.0459 640.4831,-277.1195 883.3294,-523.3118 242.8462,-246.1922 417.1738,-562.3097 480.3699,-902.2967 25.6812,-138.1618 34.3499,-283.008 98.5463,-408.0161 39.1045,-76.1473 97.6947,-141.596 166.3938,-192.6647 68.6991,-51.0687 147.3425,-88.0158 229.2652,-112.8404 163.8452,-49.6492 338.332,-50.967 509.2323,-40.7975 170.9002,10.1695 341.6217,31.4083 512.7171,25.3519 171.0954,-6.0563 345.6099,-41.4061 488.9378,-135.0406 114.2335,-74.6275 203.7737,-183.5277 266.7716,-304.5642 62.9978,-121.0365 100.4371,-254.0855 123.0843,-388.6428 45.2946,-269.1146 32.707,-544.978 70.1395,-815.2983 26.1712,-188.9961 76.7017,-374.5707 91.3884,-564.8041 7.3433,-95.1167 5.5952,-191.4071 -12.6192,-285.0519 -18.2145,-93.6448 -53.2946,-184.7438 -108.7657,-262.3587 -92.8779,-129.9544 -237.6999,-215.0778 -389.0481,-266.1476 -151.3483,-51.0699 -310.9949,-71.3976 -468.881,-95.6139 -157.886,-24.2162 -317.1435,-53.1942 -462.2985,-119.8611 -145.1549,-66.6669 -276.7073,-175.495 -340.4223,-321.9697 -53.0157,-121.878 -55.4767,-261.2027 -29.0007,-391.4483 26.476,-130.2456 80.3242,-253.1836 137.2453,-373.2872 56.921,-120.1037 117.5114,-239.0768 158.7892,-365.4138 41.2778,-126.337 62.7166,-261.9296 38.9475,-392.6963 -19.7214,-108.4982 -70.3685,-210.4901 -140.6649,-295.456 -70.2964,-84.9659 -159.8362,-153.1689 -257.9623,-203.4882 -196.2524,-100.6387 -422.4175,-129.0096 -642.9217,-124.4213 -220.5042,4.5882 -439.028,40.3528 -658.6281,60.8201 -219.6002,20.4673 -444.1858,25.248 -657.4689,-30.9079 -247.2027,-65.0867 -465.4254,-207.983 -697.1113,-315.9974 -115.843,-54.0072 -236.5283,-99.7462 -362.4663,-121.5632 -125.938,-21.8171 -257.8221,-18.9135 -378.7698,22.4146 -169.7084,57.9898 -307.745,188.4471 -403.5998,340.0243 -95.8547,151.5772 -153.3447,324.0288 -200.7684,496.9876 -47.4237,172.9589 -85.835,348.8048 -147.7862,517.1075 -61.9512,168.3027 -149.458,330.8999 -280.4804,453.3617 -122.3893,114.3928 -277.1378,188.6404 -435.4882,243.3214 -158.3504,54.681 -322.3045,91.419 -482.2115,141.3651 -159.90697,49.9461 -317.95365,114.3961 -450.05274,217.4238 -132.0991,103.0276 -236.91269,248.7356 -263.50132,414.1379 -23.55447,146.5274 15.78733,298.4668 88.63823,427.7642 72.85091,129.2975 177.47058,238.0451 289.79602,335.0403 224.65088,193.9906 489.80311,352.8257 649.49111,603.0258 130.1827,203.971 177.3636,452.6054 170.8849,694.4932 -6.4787,241.8878 -63.5344,479.4576 -128.3461,712.5909 -64.8118,233.1333 -137.8535,464.7592 -177.6151,703.4445 -39.7616,238.6854 -45.1493,487.3931 24.3869,719.1611 73.8749,246.2293 229.9821,462.8541 421.9145,633.8755 191.9324,171.0214 418.8816,298.8254 654.0451,402.6738 z"
           id="path860"
           inkscape:connector-curvature="0"
           inkscape:path-effect="#path-effect862"
           inkscape:original-d="m 2354.6443,9368.7513 c 358.4484,345.3702 2257.7139,-823.8764 3386.2635,-1236.034 1128.5499,-412.1576 65.9022,-271.8646 98.5463,-408.0161 32.6441,-136.1518 1271.2355,-303.848 1906.5462,-455.9913 635.3105,-152.1433 306.8683,-1005.5239 459.9954,-1508.5053 153.1268,-502.9812 -19.7929,-741.3303 -29.9965,-1112.2147 C 8165.7957,4277.1053 7069.1039,4112.4079 6515.3493,3844.3976 5961.5945,3576.3874 6719.5415,2829.3134 6821.3306,2321.552 6923.1195,1813.7904 5249.7714,1926.0627 4463.6847,1728.0987 3677.5981,1530.1348 3504.9912,1451.481 3025.3373,1312.9527 2545.6833,1174.4245 2337.1187,2518.0863 1992.7025,3120.4338 1648.2862,3722.7811 905.40469,3798.0788 361.44874,4136.682 c -543.956,338.603 685.48836,910.6998 1027.92536,1365.8303 342.4371,455.1307 -73.5882,1886.6062 -110.6894,2829.6897 -37.1012,943.0837 717.5111,691.1792 1075.9596,1036.5493 z"
           transform="matrix(1.092933,-0.00638949,-0.0057381,1.0626642,-439.39861,-257.14747)" /><g
           id="g875"
           transform="matrix(1.0942934,-0.03558036,-0.031953,0.92573926,-27.971313,1086.5119)"><path
             transform="translate(-11.2484,-958.1798)"
             inkscape:original-d="m 2382.2484,3406.2498 c 627.614,-269.8478 1658.8732,-108.1446 2197.2084,-543.5337 44.7005,-36.1524 -592.9857,-180.3787 -555.3812,-274.8363 93.691,-235.3389 2096.6387,-1055.9315 1480.7494,-1197.5848 -367.1123,-84.435 -3118.9656,609.7261 -2462.1035,476.2127 220.7607,-44.8716 548.5561,-456.2923 305.5528,-716.3885 C 2801.8055,565.21155 116.31705,2650.6979 -246.19474,2971.1984"
             inkscape:path-effect="#path-effect867"
             inkscape:connector-curvature="0"
             id="path865"
             d="m 2382.2484,3406.2498 c -0.01,-0.013 20.9672,-10.1041 62.9779,-25.972 42.8313,-16.1779 104.2641,-36.9878 189.2022,-58.3853 78.7622,-19.8426 167.9327,-37.8542 279.8984,-55.1887 91.6201,-14.1853 185.1688,-25.9349 296.7162,-38.686 94.0811,-10.7549 195.2959,-21.4408 302.9531,-34.295 0,0 3e-4,0 3e-4,0 93.5757,-11.1733 195.8553,-24.4905 298.6326,-41.9705 91.2353,-15.5179 187.4761,-35.0189 283.7508,-61.6779 85.3683,-23.6408 173.1476,-53.5427 258.3077,-93.3646 39.3399,-18.3943 78.3563,-39.0307 116.326,-62.2891 36.4527,-22.3291 72.0521,-47.1488 106.0403,-74.6756 0.3659,-0.326 0.641,-0.5753 0.7262,-0.7697 0.062,-0.122 0.1113,-0.229 0.097,-0.2615 0.03,-0.051 -0.026,-0.2351 -0.099,-0.4993 -0.1047,-0.3482 -0.3714,-0.7686 -0.7126,-1.2698 -0.9871,-1.4307 -2.5277,-2.7142 -4.2524,-4.0826 -2.4112,-1.865 -5.0748,-3.525 -7.8551,-5.1407 -3.5648,-2.0655 -7.2627,-3.969 -11.036,-5.8086 -4.5547,-2.2193 -9.191,-4.3165 -13.8818,-6.3545 -11.5326,-5.0104 -23.2786,-9.6209 -35.1698,-14.1262 -30.5021,-11.5552 -61.2764,-22.1422 -92.6944,-32.9304 -35.6735,-12.2487 -72.807,-24.8394 -109.0787,-37.556 -36.3019,-12.7269 -73.0732,-25.986 -109.5308,-40.3369 -16.6919,-6.5704 -33.3968,-13.4063 -49.9851,-20.6499 -14.8253,-6.4733 -29.6176,-13.29 -44.1803,-20.6883 -12.3532,-6.2738 -24.6222,-12.9885 -36.4471,-20.5528 0,0 -3e-4,-2e-4 -3e-4,-2e-4 -9.3485,-5.9691 -18.57,-12.5325 -26.8493,-20.3669 0,0 -3e-4,-3e-4 -3e-4,-3e-4 -3.2892,-3.1121 -6.4413,-6.4838 -9.2563,-10.2102 -2.3742,-3.131 -4.5069,-6.5878 -6.1057,-10.4028 -1.3922,-3.3113 -2.2933,-6.9353 -2.4413,-10.7206 -0.1187,-3.6641 0.5341,-7.3092 1.8788,-10.6877 0,0 2e-4,-5e-4 2e-4,-5e-4 1.6893,-4.2363 3.7716,-8.2493 6.0686,-12.0668 0,0 2e-4,-4e-4 2e-4,-4e-4 2.6637,-4.4323 5.6173,-8.6446 8.7329,-12.688 0,0 2e-4,-3e-4 2e-4,-3e-4 7.5921,-9.8511 16.1244,-18.8513 24.9953,-27.4092 0,0 3e-4,-3e-4 3e-4,-3e-4 10.9753,-10.5959 22.5345,-20.5462 34.384,-30.1613 13.9763,-11.3427 28.357,-22.201 42.9957,-32.8009 35.1297,-25.4375 71.4635,-49.2904 108.6257,-72.7568 43.6714,-27.5781 88.0946,-54.2628 133.3678,-80.8465 49.8977,-29.2995 100.2753,-58.1171 151.5248,-87.1216 53.9913,-30.5562 107.9571,-60.7451 163.0686,-91.5551 108.8522,-60.8537 222.7592,-124.3662 334.2583,-189.0049 52.5331,-30.4546 105.3694,-61.64 157.9157,-93.7345 47.83,-29.2141 95.6972,-59.3239 142.9081,-90.7331 41.0125,-27.2866 81.7622,-55.6425 121.2278,-85.8386 17.0847,-13.0717 33.9458,-26.5132 50.3874,-40.475 14.5528,-12.3587 28.7949,-25.1255 42.4421,-38.5001 11.7873,-11.554 23.1481,-23.5483 33.6445,-36.2331 8.8206,-10.6663 17.0548,-21.7855 24.0008,-33.6105 5.7064,-9.7359 10.5878,-19.898 13.591,-30.5208 1.3043,-4.5972 2.2606,-9.2621 2.7292,-13.9408 0.4368,-4.3591 0.4656,-8.7373 -0.01,-13.0306 -0.4571,-4.1585 -1.3807,-8.2642 -2.7714,-12.1932 -1.4158,-4.0119 -3.332,-7.8712 -5.6444,-11.4945 -2.4814,-3.8921 -5.4436,-7.523 -8.7252,-10.8887 -3.6536,-3.7465 -7.7183,-7.1503 -12.0336,-10.2762 -10.4821,-7.6049 -22.3352,-13.4488 -34.6483,-18.3951 -15.9147,-6.377 -32.5595,-11.0992 -49.4878,-14.9962 -6.0678,-1.3963 -12.2521,-2.4521 -18.5035,-3.3118 -7.2718,-0.9988 -14.6077,-1.7146 -21.985,-2.2538 -17.801,-1.3013 -35.7273,-1.5804 -53.7315,-1.3943 0,0 -5e-4,0 -5e-4,0 -21.8704,0.228 -43.7758,1.1918 -65.7351,2.559 0,0 -5e-4,0 -5e-4,0 -25.5116,1.5889 -51.0341,3.7377 -76.6078,6.2351 -60.4025,5.8985 -120.7659,13.6587 -181.469,22.3352 -70.4952,10.0767 -141.0388,21.4071 -211.9865,33.5288 -77.7529,13.2844 -155.6465,27.4854 -233.9758,42.3656 -82.2072,15.6169 -164.6205,31.9396 -247.4606,48.8461 -81.8294,16.7003 -163.9061,33.9265 -246.3258,51.6414 -85.5015,18.3773 -170.5614,37.1064 -255.0714,56.0735 -152.9466,34.3269 -304.0138,69.4126 -453.4245,105.3906 -62.8757,15.1405 -125.3297,30.4122 -187.4943,45.9437 -50.3113,12.5701 -100.2655,25.2513 -150.0201,38.306 -19.4927,5.1145 -38.9202,10.2788 -58.2953,15.5517 -15.3006,4.1642 -30.5422,8.3819 -45.7213,12.7544 -10.7625,3.1006 -21.4589,6.2424 -32.038,9.6466 0,0 -5e-4,10e-5 -5e-4,10e-5 -3.5443,1.1408 -7.0502,2.3005 -10.4957,3.5425 -1.2796,0.4613 -2.5375,0.9286 -3.7679,1.4162 -0.9467,0.3761 -1.8502,0.748 -2.6985,1.1402 -0.6083,0.2884 -1.1013,0.5185 -1.4465,0.7404 -0.1124,0.077 -0.1432,0.089 -0.081,0.048 0.027,0.029 0.2157,-0.1981 0.5923,-0.6647 0.1537,-0.1858 0.3277,-0.5412 0.5283,-1.0656 0.1847,-0.4577 0.2535,-1.0878 0.2116,-1.894 -0.096,-0.7898 -0.3306,-1.4687 -0.7077,-2.041 -0.4206,-0.59 -0.7817,-0.9817 -1.0901,-1.1733 -0.7453,-0.4518 -1.1397,-0.6661 -1.209,-0.6127 -0.1706,-0.035 -0.2011,-0.051 -0.098,-0.029 0.3227,0.048 0.8141,0.032 1.4649,0.025 0.9223,-0.024 1.8918,-0.095 2.9083,-0.1828 3.0857,-0.2683 6.217,-0.6895 9.401,-1.1439 4.6618,-0.6673 9.3294,-1.4265 14.0074,-2.22 0,0 5e-4,-10e-5 5e-4,-10e-5 6.2212,-1.0555 12.4386,-2.1762 18.6538,-3.3277 0,0 5e-4,-10e-5 5e-4,-10e-5 17.2679,-3.1993 34.502,-6.6261 51.6898,-10.1166 0,0 5e-4,-10e-5 5e-4,-10e-5 29.7905,-6.0256 58.2708,-17.9636 85.1297,-32.4904 31.3693,-16.9878 60.574,-37.7828 87.7609,-60.7165 29.8623,-25.198 57.2856,-53.0826 82.1369,-82.9013 25.8224,-30.9885 48.8594,-64.0769 68.4443,-98.9369 19.4773,-34.6758 35.5351,-71.0701 46.7949,-108.7784 10.9496,-36.685 17.3269,-74.587 17.3298,-112.4187 0.01,-37.6805 -6.4619,-75.2288 -19.7831,-110.0489 0,0 -2e-4,-4e-4 -2e-4,-4e-4 -6.9956,-18.3016 -15.8348,-35.8582 -26.2268,-52.3843 -11.1862,-17.7919 -24.1812,-34.4027 -38.4823,-49.7216 -16.702,-17.8898 -35.766,-33.4802 -56.4099,-46.3913 -21.32,-13.3389 -44.3342,-23.8507 -68.089,-31.8702 0,0 -4e-4,-2e-4 -4e-4,-2e-4 -25.7068,-8.6785 -52.3221,-14.4675 -79.115,-18.1147 0,0 -4e-4,-10e-5 -4e-4,-10e-5 -29.6594,-4.0356 -59.6009,-5.449 -89.3793,-5.0679 -33.1428,0.4255 -66.1609,3.0902 -98.8093,7.2479 -36.2061,4.6117 -72.0464,11.0858 -107.3868,18.7977 -81.2747,17.7341 -160.5038,42.0072 -237.1152,69.0736 -89.8057,31.7305 -177.0805,67.8359 -261.3255,105.6695 -95.9753,43.1024 -189.1577,89.0414 -278.9127,135.7744 -99.965,52.0495 -196.8686,105.7458 -289.9199,159.3767 -101.8343,58.6933 -200.2618,118.0262 -294.368,176.4754 -209.1128,129.8796 -403.7261,259.5481 -575.88983,378.2378 -194.45898,134.0602 -368.06761,259.5741 -515.15084,368.6164 0,0 -1.9e-4,2e-4 -1.9e-4,2e-4 -80.06566,59.3579 -152.78905,114.2372 -218.45208,164.4503 -69.95737,53.4972 -130.470727,100.5926 -183.6570172,142.5433 -10e-8,0 -1.205e-4,1e-4 -1.205e-4,1e-4 -59.0825643,46.6014 -104.1761623,82.916 -142.3383923,114.1228 -21.92272,17.9271 -39.02969,32.1119 -53.65221,44.3518 -27.16302,22.7371 -40.92853,34.7523 -41.07406,34.5877 -0.13522,-0.1529 13.33589,-12.5067 40.23575,-35.5771 14.3747,-12.3284 31.5642,-26.8574 53.24596,-44.8722 37.74926,-31.3651 82.998208,-68.2516 141.686618,-115.0053 0,0 1.21e-4,-1e-4 1.21e-4,-1e-4 52.962557,-42.1922 113.362351,-89.598 183.113251,-143.3302 65.49582,-50.4542 138.07414,-105.5808 217.99058,-165.1736 0,0 2e-4,-2e-4 2e-4,-2e-4 146.83555,-109.4937 320.17067,-235.4142 514.46452,-369.9077 172.01394,-119.0711 366.47524,-249.097 575.54954,-379.3586 94.0839,-58.6179 192.5035,-118.1209 294.3551,-176.9891 93.0661,-53.7906 190.0073,-107.6515 290.0423,-159.8731 89.8161,-46.8872 183.0966,-92.9895 279.2166,-136.2662 84.3686,-37.9866 171.8305,-74.2576 261.8985,-106.1679 76.8274,-27.2215 156.3899,-51.6588 238.1313,-69.5662 35.5484,-7.7872 71.6456,-14.333 108.1598,-19.0124 32.9253,-4.2203 66.2862,-6.9326 99.8407,-7.3899 30.1484,-0.4121 60.5426,1.0083 90.7404,5.0908 0,0 5e-4,0 5e-4,0 27.2831,3.6871 54.4719,9.5917 80.8383,18.4645 0,0 4e-4,10e-5 4e-4,10e-5 24.3731,8.2021 48.0464,19.0074 70.0675,32.7544 21.3264,13.3182 41.0257,29.4114 58.314,47.9028 14.6879,15.7091 28.0546,32.7815 39.5968,51.1083 10.7217,17.0265 19.8463,35.1283 27.0816,54.0208 0,0 2e-4,4e-4 2e-4,4e-4 13.7666,35.977 20.4671,74.6506 20.4667,113.4227 -0.01,38.8927 -6.4947,77.7078 -17.6716,115.1509 -11.4816,38.4793 -27.7977,75.533 -47.5712,110.7515 -19.8759,35.4083 -43.2311,68.9905 -69.3997,100.4158 -25.1787,30.2412 -52.9884,58.5377 -83.2981,84.1363 -27.5808,23.3007 -57.3233,44.4796 -89.3787,61.8686 -27.4148,14.89 -56.7914,27.1663 -87.8275,33.5043 0,0 -5e-4,10e-5 -5e-4,10e-5 -17.2128,3.5017 -34.5007,6.9448 -51.8515,10.1654 0,0 -5e-4,10e-5 -5e-4,10e-5 -6.2461,1.1593 -12.5118,2.2907 -18.7987,3.3595 0,0 -5e-4,10e-5 -5e-4,10e-5 -4.7222,0.803 -9.473,1.5767 -14.2571,2.2636 -3.2419,0.4668 -6.5515,0.9096 -9.9361,1.2086 -1.1144,0.099 -2.2799,0.1825 -3.4963,0.2176 -0.7743,0.032 -1.7133,0.029 -2.8079,-0.08 -0.3506,-0.028 -0.8345,-0.1109 -1.4451,-0.2676 -0.3608,-0.027 -1.0479,-0.342 -2.0357,-0.9745 -0.3932,-0.2547 -0.8319,-0.7208 -1.3096,-1.3999 -0.4266,-0.6494 -0.6938,-1.4168 -0.7985,-2.2978 -0.051,-0.9029 0.033,-1.6311 0.2488,-2.181 0.2386,-0.6377 0.4717,-1.0984 0.6931,-1.3825 0.5688,-0.7459 1.012,-1.2032 1.3024,-1.3881 0.4441,-0.3518 0.8253,-0.6125 1.1327,-0.7937 0.9103,-0.5499 1.7468,-0.9642 2.477,-1.2929 1.0879,-0.5003 2.1558,-0.9429 3.1915,-1.3523 1.3595,-0.5386 2.7131,-1.0426 4.0548,-1.5261 3.607,-1.3003 7.2196,-2.4976 10.8157,-3.6552 0,0 5e-4,-2e-4 5e-4,-2e-4 10.7376,-3.4575 21.5298,-6.6319 32.3247,-9.7443 15.244,-4.3958 30.531,-8.6309 45.8575,-12.8064 19.411,-5.2885 38.8662,-10.4658 58.378,-15.5907 49.802,-13.081 99.7911,-25.784 150.1235,-38.3712 62.1932,-15.5533 124.6721,-30.8443 187.5676,-46.0012 149.4567,-36.0167 300.5713,-71.1324 453.5631,-105.4794 84.5356,-18.9784 169.6243,-37.7166 255.1586,-56.1009 82.451,-17.7217 164.5625,-34.9526 246.4292,-51.6554 82.8787,-16.9092 165.3383,-33.2333 247.5984,-48.8501 78.379,-14.88 156.3357,-29.0803 234.1637,-42.3634 71.0144,-12.1203 141.6498,-23.4502 212.2603,-33.527 60.7964,-8.6767 121.3084,-16.439 181.912,-22.3415 25.6614,-2.4992 51.2995,-4.6498 76.954,-6.2405 0,0 6e-4,0 6e-4,0 22.0787,-1.3693 44.1538,-2.3325 66.2433,-2.5571 0,0 5e-4,0 5e-4,0 18.1747,-0.1863 36.373,0.1072 54.5461,1.4373 7.5367,0.5517 15.0785,1.2917 22.6023,2.3262 6.4644,0.8877 12.9351,1.9982 19.3623,3.4757 17.2532,3.9646 34.3772,8.8434 50.923,15.4647 12.8013,5.1105 25.3495,11.3434 36.7314,19.5594 4.6961,3.3947 9.1792,7.1623 13.2883,11.3669 3.696,3.7814 7.0694,7.9336 9.959,12.4521 2.6935,4.2156 4.9324,8.7403 6.6126,13.4904 1.643,4.6562 2.7306,9.4889 3.2638,14.3742 0.547,5.0373 0.5191,10.0936 0.012,15.0652 -0.5437,5.3284 -1.6092,10.5532 -3.0566,15.6207 -3.3431,11.6677 -8.5515,22.581 -14.572,32.7774 -7.308,12.4025 -15.8424,23.9397 -24.9023,34.8663 -10.7798,13.0086 -22.3724,25.2445 -34.3405,36.9592 -13.8583,13.5672 -28.2749,26.4819 -42.9664,38.9448 -16.5996,14.0823 -33.5936,27.6184 -50.7866,40.7596 -39.7101,30.3512 -80.6438,58.8092 -121.7831,86.1478 -47.3618,31.4749 -95.3474,61.6252 -143.2654,90.8564 -52.645,32.1151 -105.5603,63.3066 -158.1546,93.7544 -111.637,64.6287 -225.6101,128.08 -334.5086,188.8567 -55.1351,30.7712 -109.1042,60.9089 -163.0963,91.41 -51.2492,28.9517 -101.6081,57.7043 -151.4732,86.9284 -45.2458,26.5172 -89.6108,53.1138 -133.1974,80.5843 -37.0972,23.3819 -73.3006,47.0981 -108.2407,72.3513 -14.5565,10.5208 -28.8232,21.27 -42.655,32.4749 -11.7303,9.504 -23.1167,19.2815 -33.8671,29.6447 0,0 -3e-4,3e-4 -3e-4,3e-4 -8.6944,8.3875 -16.9601,17.0713 -24.1978,26.4638 0,0 -2e-4,3e-4 -2e-4,3e-4 -2.965,3.847 -5.7405,7.7893 -8.1987,11.8788 0,0 -2e-4,4e-4 -2e-4,4e-4 -2.1169,3.5266 -4.0016,7.1309 -5.4764,10.8423 0,0 -10e-5,3e-4 -10e-5,3e-4 -0.9256,2.3244 -1.3854,4.8418 -1.2982,7.3051 0.066,2.5813 0.7526,5.2313 1.798,7.797 1.2227,2.9878 3.0045,5.8389 5.0531,8.5836 2.4425,3.2583 5.2842,6.2888 8.3243,9.1854 0,0 3e-4,3e-4 3e-4,3e-4 7.6825,7.319 16.4849,13.569 25.5877,19.4216 0,0 4e-4,3e-4 4e-4,3e-4 11.4939,7.3758 23.519,13.9677 35.7127,20.1823 14.3664,7.3194 29.007,14.0837 43.7235,20.53 16.4636,7.2109 33.0689,14.0267 49.6852,20.5892 36.2951,14.3344 72.9573,27.6001 109.1985,40.3538 36.2012,12.7393 73.3104,25.3708 108.9854,37.6686 31.4075,10.8261 62.2477,21.4798 92.8838,33.1286 11.9436,4.5409 23.7981,9.2131 35.4933,14.3102 4.7594,2.0743 9.4947,4.2245 14.178,6.5131 3.8748,1.8925 7.732,3.8873 11.5131,6.0816 2.9348,1.6984 5.8757,3.55 8.686,5.7141 1.9851,1.4942 4.0366,3.3107 5.7833,5.6787 0.6494,0.8754 1.2489,1.9339 1.7109,3.1836 0.3995,1.0661 0.5933,2.3032 0.512,3.6585 -0.1213,1.3286 -0.5269,2.5464 -1.167,3.5945 -0.7388,1.1782 -1.5969,2.0963 -2.4752,2.7766 -34.3079,27.709 -70.2105,52.6698 -106.9505,75.1033 -38.2683,23.3665 -77.5565,44.0766 -117.144,62.5145 -85.6953,39.9094 -173.8833,69.8048 -259.563,93.372 -96.6255,26.5802 -193.1095,45.9558 -284.5168,61.3217 -102.9799,17.3123 -205.3629,30.4301 -299.0176,41.4005 -1e-4,0 -2e-4,0 -3e-4,10e-5 -107.7397,12.6207 -208.9819,23.0591 -303.0667,33.5565 -111.6117,12.4533 -205.0106,23.8924 -296.6607,37.755 -111.9769,16.9378 -201.0078,34.5305 -279.8218,53.9503 -84.9925,20.9432 -146.3742,41.2585 -189.3838,56.9841 -42.1193,15.4 -63.3882,24.8324 -63.4861,24.6047 z"
             style="fill:#5599ff;stroke:#5599ff;stroke-width:179.58332825px;stroke-linecap:round;stroke-linejoin:miter;stroke-opacity:1" /><path
             d="m 3300.43,3250.88 -22.56,-1.93 -849.42,-849.32 -2.06,-22.36 21.57,-6.26 1608.64,702.6 9.56,10.21 271.89,757.67 -4.22,18.51 -514.64,514.73 -19.6,3.72 -716.71,-312.72 -9.2,-9.19 -702.68,-1608.47 6.23,-21.67 22.47,2.11 849.26,849.24 1.86,22.62 c -55.8,79.42 -48.55,189.5 22.27,260.44 79.62,79.34 208.16,79.34 287.78,0 79.22,-79.63 79.22,-208.11 0,-287.69 -70.93,-71 -181.01,-78.11 -260.44,-22.24"
             style="fill:#2c89a0;fill-opacity:1;fill-rule:nonzero;stroke:none"
             id="path16"
             inkscape:connector-curvature="0" /><path
             d="M 5091.15,6192.49 6192.6,5091.16 C 7534.08,6473.78 9105.33,8522.19 8813.68,8813.71 8522.29,9105.19 6473.85,7534.01 5091.15,6192.49"
             style="fill:#ffdd55;fill-opacity:1;fill-rule:nonzero;stroke:none"
             id="path18"
             inkscape:connector-curvature="0" /><path
             d="M 4171.56,4171.57 C 4423.35,3919.71 4573.2,3644.8 5392.45,4331.2 L 4331.31,5392.43 C 3644.86,4573.15 3919.78,4423.39 4171.56,4171.57"
             style="fill:#ffdd55;fill-opacity:1;fill-rule:nonzero;stroke:none"
             id="path20"
             inkscape:connector-curvature="0" /><path
             d="m 5392.45,4331.2 c 92.29,77.31 193.13,166.88 303.41,269.98 L 4601.3,5695.9 C 4498.15,5585.51 4408.48,5484.63 4331.31,5392.43 L 5392.45,4331.2"
             style="fill:#ffeeaa;fill-opacity:1;fill-rule:nonzero;stroke:none"
             id="path22"
             inkscape:connector-curvature="0" /><path
             d="M 4601.3,5695.9 5695.86,4601.18 c 96.52,90.18 199.61,189.71 311.71,301.81 60.97,60.87 122.75,124.05 185.03,188.17 L 5091.15,6192.49 c -64.09,-62.13 -127.22,-124.01 -188.25,-184.96 -111.95,-111.99 -211.52,-215.17 -301.6,-311.63"
             style="fill:#ffd42a;fill-opacity:1;fill-rule:nonzero;stroke:none"
             id="path24"
             inkscape:connector-curvature="0" /></g></g></g></g></svg>